%TF.GenerationSoftware,KiCad,Pcbnew,9.0.2*%
%TF.CreationDate,2026-03-17T23:02:29-06:00*%
%TF.ProjectId,TelecomESP32,54656c65-636f-46d4-9553-5033322e6b69,rev?*%
%TF.SameCoordinates,Original*%
%TF.FileFunction,Soldermask,Bot*%
%TF.FilePolarity,Negative*%
%FSLAX46Y46*%
G04 Gerber Fmt 4.6, Leading zero omitted, Abs format (unit mm)*
G04 Created by KiCad (PCBNEW 9.0.2) date 2026-03-17 23:02:29*
%MOMM*%
%LPD*%
G01*
G04 APERTURE LIST*
%ADD10R,1.700000X1.700000*%
%ADD11C,1.700000*%
%ADD12C,3.200000*%
%ADD13C,3.000000*%
G04 APERTURE END LIST*
D10*
%TO.C,J2*%
X203200000Y-55880000D03*
D11*
X203200000Y-58420000D03*
X203200000Y-60960000D03*
X203200000Y-63500000D03*
X203200000Y-66040000D03*
X203200000Y-68580000D03*
X203200000Y-71120000D03*
%TD*%
D10*
%TO.C,J11*%
X208280000Y-83820000D03*
D11*
X208280000Y-86360000D03*
X208280000Y-88900000D03*
X208280000Y-91440000D03*
X208280000Y-93980000D03*
X208280000Y-96520000D03*
%TD*%
D10*
%TO.C,J3*%
X154940000Y-58420000D03*
D11*
X154940000Y-60960000D03*
X154940000Y-63500000D03*
X154940000Y-66040000D03*
X154940000Y-68580000D03*
X154940000Y-71120000D03*
%TD*%
D12*
%TO.C,H2*%
X149860000Y-80010000D03*
%TD*%
D10*
%TO.C,J9*%
X200660000Y-96520000D03*
D11*
X198120000Y-96520000D03*
X195580000Y-96520000D03*
X193040000Y-96520000D03*
X190500000Y-96520000D03*
X187960000Y-96520000D03*
X185420000Y-96520000D03*
X182880000Y-96520000D03*
%TD*%
D12*
%TO.C,H2*%
X3475000Y-3475000D03*
%TD*%
D10*
%TO.C,J4*%
X198120000Y-81280000D03*
D11*
X200660000Y-81280000D03*
%TD*%
D10*
%TO.C,J5*%
X200660000Y-91440000D03*
D11*
X198120000Y-91440000D03*
X195580000Y-91440000D03*
X193040000Y-91440000D03*
%TD*%
D10*
%TO.C,J7*%
X200660000Y-86360000D03*
D11*
X198120000Y-86360000D03*
X195580000Y-86360000D03*
X193040000Y-86360000D03*
%TD*%
D10*
%TO.C,J6*%
X154940000Y-96520000D03*
D11*
X157480000Y-96520000D03*
X160020000Y-96520000D03*
X162560000Y-96520000D03*
%TD*%
D12*
%TO.C,H1*%
X228600000Y-80010000D03*
%TD*%
D10*
%TO.C,J8*%
X175260000Y-91440000D03*
D11*
X175260000Y-93980000D03*
X175260000Y-96520000D03*
%TD*%
D10*
%TO.C,J1*%
X185420000Y-55880000D03*
D11*
X185420000Y-58420000D03*
X185420000Y-60960000D03*
X185420000Y-63500000D03*
X185420000Y-66040000D03*
X185420000Y-68580000D03*
X185420000Y-71120000D03*
%TD*%
D13*
%TO.C,TP1*%
X190500000Y-76200000D03*
%TD*%
%TO.C,TP2*%
X198120000Y-76200000D03*
%TD*%
M02*
