%TF.GenerationSoftware,KiCad,Pcbnew,9.0.2*%
%TF.CreationDate,2026-03-17T23:02:36-06:00*%
%TF.ProjectId,TelecomESP32,54656c65-636f-46d4-9553-5033322e6b69,rev?*%
%TF.SameCoordinates,Original*%
%TF.FileFunction,Drillmap*%
%TF.FilePolarity,Positive*%
%FSLAX45Y45*%
G04 Gerber Fmt 4.5, Leading zero omitted, Abs format (unit mm)*
G04 Created by KiCad (PCBNEW 9.0.2) date 2026-03-17 23:02:36*
%MOMM*%
%LPD*%
G01*
G04 APERTURE LIST*
%ADD10C,0.050000*%
%ADD11C,0.200000*%
%ADD12C,0.320000*%
G04 APERTURE END LIST*
D10*
X22868000Y-10160000D02*
X14978000Y-10160000D01*
X23368000Y-9660000D02*
G75*
G02*
X22868000Y-10160000I-500000J0D01*
G01*
X14478000Y-9660000D02*
X14478000Y-5580000D01*
X14978000Y-5080000D02*
X22868000Y-5080000D01*
X14478000Y-5580000D02*
G75*
G02*
X14978000Y-5080000I500000J0D01*
G01*
X23368000Y-5580000D02*
X23368000Y-9660000D01*
X18923000Y-5588000D02*
X20066000Y-5588000D01*
X20066000Y-7112000D01*
X18923000Y-7112000D01*
X18923000Y-5588000D01*
X14978000Y-10160000D02*
G75*
G02*
X14478000Y-9660000I0J500000D01*
G01*
X22868000Y-5080000D02*
G75*
G02*
X23368000Y-5580000I0J-500000D01*
G01*
D11*
D12*
X187500Y-187500D02*
X507500Y-507500D01*
X507500Y-187500D02*
X187500Y-507500D01*
X14826000Y-7841000D02*
X15146000Y-8161000D01*
X15146000Y-7841000D02*
X14826000Y-8161000D01*
X22700000Y-7841000D02*
X23020000Y-8161000D01*
X23020000Y-7841000D02*
X22700000Y-8161000D01*
D11*
X14736277Y-10473984D02*
X14736277Y-10273984D01*
X14736277Y-10273984D02*
X14783896Y-10273984D01*
X14783896Y-10273984D02*
X14812467Y-10283508D01*
X14812467Y-10283508D02*
X14831515Y-10302555D01*
X14831515Y-10302555D02*
X14841039Y-10321603D01*
X14841039Y-10321603D02*
X14850562Y-10359698D01*
X14850562Y-10359698D02*
X14850562Y-10388270D01*
X14850562Y-10388270D02*
X14841039Y-10426365D01*
X14841039Y-10426365D02*
X14831515Y-10445412D01*
X14831515Y-10445412D02*
X14812467Y-10464460D01*
X14812467Y-10464460D02*
X14783896Y-10473984D01*
X14783896Y-10473984D02*
X14736277Y-10473984D01*
X14936277Y-10473984D02*
X14936277Y-10340650D01*
X14936277Y-10378746D02*
X14945801Y-10359698D01*
X14945801Y-10359698D02*
X14955324Y-10350174D01*
X14955324Y-10350174D02*
X14974372Y-10340650D01*
X14974372Y-10340650D02*
X14993420Y-10340650D01*
X15060086Y-10473984D02*
X15060086Y-10340650D01*
X15060086Y-10273984D02*
X15050562Y-10283508D01*
X15050562Y-10283508D02*
X15060086Y-10293031D01*
X15060086Y-10293031D02*
X15069610Y-10283508D01*
X15069610Y-10283508D02*
X15060086Y-10273984D01*
X15060086Y-10273984D02*
X15060086Y-10293031D01*
X15183896Y-10473984D02*
X15164848Y-10464460D01*
X15164848Y-10464460D02*
X15155324Y-10445412D01*
X15155324Y-10445412D02*
X15155324Y-10273984D01*
X15288658Y-10473984D02*
X15269610Y-10464460D01*
X15269610Y-10464460D02*
X15260086Y-10445412D01*
X15260086Y-10445412D02*
X15260086Y-10273984D01*
X15517229Y-10473984D02*
X15517229Y-10273984D01*
X15517229Y-10273984D02*
X15583896Y-10416841D01*
X15583896Y-10416841D02*
X15650562Y-10273984D01*
X15650562Y-10273984D02*
X15650562Y-10473984D01*
X15831515Y-10473984D02*
X15831515Y-10369222D01*
X15831515Y-10369222D02*
X15821991Y-10350174D01*
X15821991Y-10350174D02*
X15802943Y-10340650D01*
X15802943Y-10340650D02*
X15764848Y-10340650D01*
X15764848Y-10340650D02*
X15745801Y-10350174D01*
X15831515Y-10464460D02*
X15812467Y-10473984D01*
X15812467Y-10473984D02*
X15764848Y-10473984D01*
X15764848Y-10473984D02*
X15745801Y-10464460D01*
X15745801Y-10464460D02*
X15736277Y-10445412D01*
X15736277Y-10445412D02*
X15736277Y-10426365D01*
X15736277Y-10426365D02*
X15745801Y-10407317D01*
X15745801Y-10407317D02*
X15764848Y-10397793D01*
X15764848Y-10397793D02*
X15812467Y-10397793D01*
X15812467Y-10397793D02*
X15831515Y-10388270D01*
X15926753Y-10340650D02*
X15926753Y-10540650D01*
X15926753Y-10350174D02*
X15945801Y-10340650D01*
X15945801Y-10340650D02*
X15983896Y-10340650D01*
X15983896Y-10340650D02*
X16002943Y-10350174D01*
X16002943Y-10350174D02*
X16012467Y-10359698D01*
X16012467Y-10359698D02*
X16021991Y-10378746D01*
X16021991Y-10378746D02*
X16021991Y-10435889D01*
X16021991Y-10435889D02*
X16012467Y-10454936D01*
X16012467Y-10454936D02*
X16002943Y-10464460D01*
X16002943Y-10464460D02*
X15983896Y-10473984D01*
X15983896Y-10473984D02*
X15945801Y-10473984D01*
X15945801Y-10473984D02*
X15926753Y-10464460D01*
X16107705Y-10454936D02*
X16117229Y-10464460D01*
X16117229Y-10464460D02*
X16107705Y-10473984D01*
X16107705Y-10473984D02*
X16098182Y-10464460D01*
X16098182Y-10464460D02*
X16107705Y-10454936D01*
X16107705Y-10454936D02*
X16107705Y-10473984D01*
X16107705Y-10350174D02*
X16117229Y-10359698D01*
X16117229Y-10359698D02*
X16107705Y-10369222D01*
X16107705Y-10369222D02*
X16098182Y-10359698D01*
X16098182Y-10359698D02*
X16107705Y-10350174D01*
X16107705Y-10350174D02*
X16107705Y-10369222D01*
X14275500Y-10702500D02*
X14475500Y-10902500D01*
X14475500Y-10702500D02*
X14275500Y-10902500D01*
X14717229Y-10693984D02*
X14841039Y-10693984D01*
X14841039Y-10693984D02*
X14774372Y-10770174D01*
X14774372Y-10770174D02*
X14802943Y-10770174D01*
X14802943Y-10770174D02*
X14821991Y-10779698D01*
X14821991Y-10779698D02*
X14831515Y-10789222D01*
X14831515Y-10789222D02*
X14841039Y-10808270D01*
X14841039Y-10808270D02*
X14841039Y-10855889D01*
X14841039Y-10855889D02*
X14831515Y-10874936D01*
X14831515Y-10874936D02*
X14821991Y-10884460D01*
X14821991Y-10884460D02*
X14802943Y-10893984D01*
X14802943Y-10893984D02*
X14745801Y-10893984D01*
X14745801Y-10893984D02*
X14726753Y-10884460D01*
X14726753Y-10884460D02*
X14717229Y-10874936D01*
X14926753Y-10874936D02*
X14936277Y-10884460D01*
X14936277Y-10884460D02*
X14926753Y-10893984D01*
X14926753Y-10893984D02*
X14917229Y-10884460D01*
X14917229Y-10884460D02*
X14926753Y-10874936D01*
X14926753Y-10874936D02*
X14926753Y-10893984D01*
X15012467Y-10713031D02*
X15021991Y-10703508D01*
X15021991Y-10703508D02*
X15041039Y-10693984D01*
X15041039Y-10693984D02*
X15088658Y-10693984D01*
X15088658Y-10693984D02*
X15107705Y-10703508D01*
X15107705Y-10703508D02*
X15117229Y-10713031D01*
X15117229Y-10713031D02*
X15126753Y-10732079D01*
X15126753Y-10732079D02*
X15126753Y-10751127D01*
X15126753Y-10751127D02*
X15117229Y-10779698D01*
X15117229Y-10779698D02*
X15002943Y-10893984D01*
X15002943Y-10893984D02*
X15126753Y-10893984D01*
X15250562Y-10693984D02*
X15269610Y-10693984D01*
X15269610Y-10693984D02*
X15288658Y-10703508D01*
X15288658Y-10703508D02*
X15298182Y-10713031D01*
X15298182Y-10713031D02*
X15307705Y-10732079D01*
X15307705Y-10732079D02*
X15317229Y-10770174D01*
X15317229Y-10770174D02*
X15317229Y-10817793D01*
X15317229Y-10817793D02*
X15307705Y-10855889D01*
X15307705Y-10855889D02*
X15298182Y-10874936D01*
X15298182Y-10874936D02*
X15288658Y-10884460D01*
X15288658Y-10884460D02*
X15269610Y-10893984D01*
X15269610Y-10893984D02*
X15250562Y-10893984D01*
X15250562Y-10893984D02*
X15231515Y-10884460D01*
X15231515Y-10884460D02*
X15221991Y-10874936D01*
X15221991Y-10874936D02*
X15212467Y-10855889D01*
X15212467Y-10855889D02*
X15202943Y-10817793D01*
X15202943Y-10817793D02*
X15202943Y-10770174D01*
X15202943Y-10770174D02*
X15212467Y-10732079D01*
X15212467Y-10732079D02*
X15221991Y-10713031D01*
X15221991Y-10713031D02*
X15231515Y-10703508D01*
X15231515Y-10703508D02*
X15250562Y-10693984D01*
X15441039Y-10693984D02*
X15460086Y-10693984D01*
X15460086Y-10693984D02*
X15479134Y-10703508D01*
X15479134Y-10703508D02*
X15488658Y-10713031D01*
X15488658Y-10713031D02*
X15498182Y-10732079D01*
X15498182Y-10732079D02*
X15507705Y-10770174D01*
X15507705Y-10770174D02*
X15507705Y-10817793D01*
X15507705Y-10817793D02*
X15498182Y-10855889D01*
X15498182Y-10855889D02*
X15488658Y-10874936D01*
X15488658Y-10874936D02*
X15479134Y-10884460D01*
X15479134Y-10884460D02*
X15460086Y-10893984D01*
X15460086Y-10893984D02*
X15441039Y-10893984D01*
X15441039Y-10893984D02*
X15421991Y-10884460D01*
X15421991Y-10884460D02*
X15412467Y-10874936D01*
X15412467Y-10874936D02*
X15402943Y-10855889D01*
X15402943Y-10855889D02*
X15393420Y-10817793D01*
X15393420Y-10817793D02*
X15393420Y-10770174D01*
X15393420Y-10770174D02*
X15402943Y-10732079D01*
X15402943Y-10732079D02*
X15412467Y-10713031D01*
X15412467Y-10713031D02*
X15421991Y-10703508D01*
X15421991Y-10703508D02*
X15441039Y-10693984D01*
X15593420Y-10893984D02*
X15593420Y-10760650D01*
X15593420Y-10779698D02*
X15602943Y-10770174D01*
X15602943Y-10770174D02*
X15621991Y-10760650D01*
X15621991Y-10760650D02*
X15650563Y-10760650D01*
X15650563Y-10760650D02*
X15669610Y-10770174D01*
X15669610Y-10770174D02*
X15679134Y-10789222D01*
X15679134Y-10789222D02*
X15679134Y-10893984D01*
X15679134Y-10789222D02*
X15688658Y-10770174D01*
X15688658Y-10770174D02*
X15707705Y-10760650D01*
X15707705Y-10760650D02*
X15736277Y-10760650D01*
X15736277Y-10760650D02*
X15755324Y-10770174D01*
X15755324Y-10770174D02*
X15764848Y-10789222D01*
X15764848Y-10789222D02*
X15764848Y-10893984D01*
X15860086Y-10893984D02*
X15860086Y-10760650D01*
X15860086Y-10779698D02*
X15869610Y-10770174D01*
X15869610Y-10770174D02*
X15888658Y-10760650D01*
X15888658Y-10760650D02*
X15917229Y-10760650D01*
X15917229Y-10760650D02*
X15936277Y-10770174D01*
X15936277Y-10770174D02*
X15945801Y-10789222D01*
X15945801Y-10789222D02*
X15945801Y-10893984D01*
X15945801Y-10789222D02*
X15955324Y-10770174D01*
X15955324Y-10770174D02*
X15974372Y-10760650D01*
X15974372Y-10760650D02*
X16002943Y-10760650D01*
X16002943Y-10760650D02*
X16021991Y-10770174D01*
X16021991Y-10770174D02*
X16031515Y-10789222D01*
X16031515Y-10789222D02*
X16031515Y-10893984D01*
X16421991Y-10684460D02*
X16250563Y-10941603D01*
X16679134Y-10693984D02*
X16698182Y-10693984D01*
X16698182Y-10693984D02*
X16717229Y-10703508D01*
X16717229Y-10703508D02*
X16726753Y-10713031D01*
X16726753Y-10713031D02*
X16736277Y-10732079D01*
X16736277Y-10732079D02*
X16745801Y-10770174D01*
X16745801Y-10770174D02*
X16745801Y-10817793D01*
X16745801Y-10817793D02*
X16736277Y-10855889D01*
X16736277Y-10855889D02*
X16726753Y-10874936D01*
X16726753Y-10874936D02*
X16717229Y-10884460D01*
X16717229Y-10884460D02*
X16698182Y-10893984D01*
X16698182Y-10893984D02*
X16679134Y-10893984D01*
X16679134Y-10893984D02*
X16660086Y-10884460D01*
X16660086Y-10884460D02*
X16650563Y-10874936D01*
X16650563Y-10874936D02*
X16641039Y-10855889D01*
X16641039Y-10855889D02*
X16631515Y-10817793D01*
X16631515Y-10817793D02*
X16631515Y-10770174D01*
X16631515Y-10770174D02*
X16641039Y-10732079D01*
X16641039Y-10732079D02*
X16650563Y-10713031D01*
X16650563Y-10713031D02*
X16660086Y-10703508D01*
X16660086Y-10703508D02*
X16679134Y-10693984D01*
X16831515Y-10874936D02*
X16841039Y-10884460D01*
X16841039Y-10884460D02*
X16831515Y-10893984D01*
X16831515Y-10893984D02*
X16821991Y-10884460D01*
X16821991Y-10884460D02*
X16831515Y-10874936D01*
X16831515Y-10874936D02*
X16831515Y-10893984D01*
X17031515Y-10893984D02*
X16917229Y-10893984D01*
X16974372Y-10893984D02*
X16974372Y-10693984D01*
X16974372Y-10693984D02*
X16955325Y-10722555D01*
X16955325Y-10722555D02*
X16936277Y-10741603D01*
X16936277Y-10741603D02*
X16917229Y-10751127D01*
X17107706Y-10713031D02*
X17117229Y-10703508D01*
X17117229Y-10703508D02*
X17136277Y-10693984D01*
X17136277Y-10693984D02*
X17183896Y-10693984D01*
X17183896Y-10693984D02*
X17202944Y-10703508D01*
X17202944Y-10703508D02*
X17212468Y-10713031D01*
X17212468Y-10713031D02*
X17221991Y-10732079D01*
X17221991Y-10732079D02*
X17221991Y-10751127D01*
X17221991Y-10751127D02*
X17212468Y-10779698D01*
X17212468Y-10779698D02*
X17098182Y-10893984D01*
X17098182Y-10893984D02*
X17221991Y-10893984D01*
X17393420Y-10693984D02*
X17355325Y-10693984D01*
X17355325Y-10693984D02*
X17336277Y-10703508D01*
X17336277Y-10703508D02*
X17326753Y-10713031D01*
X17326753Y-10713031D02*
X17307706Y-10741603D01*
X17307706Y-10741603D02*
X17298182Y-10779698D01*
X17298182Y-10779698D02*
X17298182Y-10855889D01*
X17298182Y-10855889D02*
X17307706Y-10874936D01*
X17307706Y-10874936D02*
X17317229Y-10884460D01*
X17317229Y-10884460D02*
X17336277Y-10893984D01*
X17336277Y-10893984D02*
X17374372Y-10893984D01*
X17374372Y-10893984D02*
X17393420Y-10884460D01*
X17393420Y-10884460D02*
X17402944Y-10874936D01*
X17402944Y-10874936D02*
X17412468Y-10855889D01*
X17412468Y-10855889D02*
X17412468Y-10808270D01*
X17412468Y-10808270D02*
X17402944Y-10789222D01*
X17402944Y-10789222D02*
X17393420Y-10779698D01*
X17393420Y-10779698D02*
X17374372Y-10770174D01*
X17374372Y-10770174D02*
X17336277Y-10770174D01*
X17336277Y-10770174D02*
X17317229Y-10779698D01*
X17317229Y-10779698D02*
X17307706Y-10789222D01*
X17307706Y-10789222D02*
X17298182Y-10808270D01*
X17536277Y-10693984D02*
X17555325Y-10693984D01*
X17555325Y-10693984D02*
X17574372Y-10703508D01*
X17574372Y-10703508D02*
X17583896Y-10713031D01*
X17583896Y-10713031D02*
X17593420Y-10732079D01*
X17593420Y-10732079D02*
X17602944Y-10770174D01*
X17602944Y-10770174D02*
X17602944Y-10817793D01*
X17602944Y-10817793D02*
X17593420Y-10855889D01*
X17593420Y-10855889D02*
X17583896Y-10874936D01*
X17583896Y-10874936D02*
X17574372Y-10884460D01*
X17574372Y-10884460D02*
X17555325Y-10893984D01*
X17555325Y-10893984D02*
X17536277Y-10893984D01*
X17536277Y-10893984D02*
X17517229Y-10884460D01*
X17517229Y-10884460D02*
X17507706Y-10874936D01*
X17507706Y-10874936D02*
X17498182Y-10855889D01*
X17498182Y-10855889D02*
X17488658Y-10817793D01*
X17488658Y-10817793D02*
X17488658Y-10770174D01*
X17488658Y-10770174D02*
X17498182Y-10732079D01*
X17498182Y-10732079D02*
X17507706Y-10713031D01*
X17507706Y-10713031D02*
X17517229Y-10703508D01*
X17517229Y-10703508D02*
X17536277Y-10693984D01*
X17679134Y-10693984D02*
X17679134Y-10732079D01*
X17755325Y-10693984D02*
X17755325Y-10732079D01*
X18050563Y-10970174D02*
X18041039Y-10960650D01*
X18041039Y-10960650D02*
X18021991Y-10932079D01*
X18021991Y-10932079D02*
X18012468Y-10913031D01*
X18012468Y-10913031D02*
X18002944Y-10884460D01*
X18002944Y-10884460D02*
X17993420Y-10836841D01*
X17993420Y-10836841D02*
X17993420Y-10798746D01*
X17993420Y-10798746D02*
X18002944Y-10751127D01*
X18002944Y-10751127D02*
X18012468Y-10722555D01*
X18012468Y-10722555D02*
X18021991Y-10703508D01*
X18021991Y-10703508D02*
X18041039Y-10674936D01*
X18041039Y-10674936D02*
X18050563Y-10665412D01*
X18107706Y-10693984D02*
X18231515Y-10693984D01*
X18231515Y-10693984D02*
X18164849Y-10770174D01*
X18164849Y-10770174D02*
X18193420Y-10770174D01*
X18193420Y-10770174D02*
X18212468Y-10779698D01*
X18212468Y-10779698D02*
X18221991Y-10789222D01*
X18221991Y-10789222D02*
X18231515Y-10808270D01*
X18231515Y-10808270D02*
X18231515Y-10855889D01*
X18231515Y-10855889D02*
X18221991Y-10874936D01*
X18221991Y-10874936D02*
X18212468Y-10884460D01*
X18212468Y-10884460D02*
X18193420Y-10893984D01*
X18193420Y-10893984D02*
X18136277Y-10893984D01*
X18136277Y-10893984D02*
X18117230Y-10884460D01*
X18117230Y-10884460D02*
X18107706Y-10874936D01*
X18469611Y-10893984D02*
X18469611Y-10693984D01*
X18555325Y-10893984D02*
X18555325Y-10789222D01*
X18555325Y-10789222D02*
X18545801Y-10770174D01*
X18545801Y-10770174D02*
X18526753Y-10760650D01*
X18526753Y-10760650D02*
X18498182Y-10760650D01*
X18498182Y-10760650D02*
X18479134Y-10770174D01*
X18479134Y-10770174D02*
X18469611Y-10779698D01*
X18679134Y-10893984D02*
X18660087Y-10884460D01*
X18660087Y-10884460D02*
X18650563Y-10874936D01*
X18650563Y-10874936D02*
X18641039Y-10855889D01*
X18641039Y-10855889D02*
X18641039Y-10798746D01*
X18641039Y-10798746D02*
X18650563Y-10779698D01*
X18650563Y-10779698D02*
X18660087Y-10770174D01*
X18660087Y-10770174D02*
X18679134Y-10760650D01*
X18679134Y-10760650D02*
X18707706Y-10760650D01*
X18707706Y-10760650D02*
X18726753Y-10770174D01*
X18726753Y-10770174D02*
X18736277Y-10779698D01*
X18736277Y-10779698D02*
X18745801Y-10798746D01*
X18745801Y-10798746D02*
X18745801Y-10855889D01*
X18745801Y-10855889D02*
X18736277Y-10874936D01*
X18736277Y-10874936D02*
X18726753Y-10884460D01*
X18726753Y-10884460D02*
X18707706Y-10893984D01*
X18707706Y-10893984D02*
X18679134Y-10893984D01*
X18860087Y-10893984D02*
X18841039Y-10884460D01*
X18841039Y-10884460D02*
X18831515Y-10865412D01*
X18831515Y-10865412D02*
X18831515Y-10693984D01*
X19012468Y-10884460D02*
X18993420Y-10893984D01*
X18993420Y-10893984D02*
X18955325Y-10893984D01*
X18955325Y-10893984D02*
X18936277Y-10884460D01*
X18936277Y-10884460D02*
X18926753Y-10865412D01*
X18926753Y-10865412D02*
X18926753Y-10789222D01*
X18926753Y-10789222D02*
X18936277Y-10770174D01*
X18936277Y-10770174D02*
X18955325Y-10760650D01*
X18955325Y-10760650D02*
X18993420Y-10760650D01*
X18993420Y-10760650D02*
X19012468Y-10770174D01*
X19012468Y-10770174D02*
X19021992Y-10789222D01*
X19021992Y-10789222D02*
X19021992Y-10808270D01*
X19021992Y-10808270D02*
X18926753Y-10827317D01*
X19098182Y-10884460D02*
X19117230Y-10893984D01*
X19117230Y-10893984D02*
X19155325Y-10893984D01*
X19155325Y-10893984D02*
X19174373Y-10884460D01*
X19174373Y-10884460D02*
X19183896Y-10865412D01*
X19183896Y-10865412D02*
X19183896Y-10855889D01*
X19183896Y-10855889D02*
X19174373Y-10836841D01*
X19174373Y-10836841D02*
X19155325Y-10827317D01*
X19155325Y-10827317D02*
X19126753Y-10827317D01*
X19126753Y-10827317D02*
X19107706Y-10817793D01*
X19107706Y-10817793D02*
X19098182Y-10798746D01*
X19098182Y-10798746D02*
X19098182Y-10789222D01*
X19098182Y-10789222D02*
X19107706Y-10770174D01*
X19107706Y-10770174D02*
X19126753Y-10760650D01*
X19126753Y-10760650D02*
X19155325Y-10760650D01*
X19155325Y-10760650D02*
X19174373Y-10770174D01*
X19250563Y-10970174D02*
X19260087Y-10960650D01*
X19260087Y-10960650D02*
X19279134Y-10932079D01*
X19279134Y-10932079D02*
X19288658Y-10913031D01*
X19288658Y-10913031D02*
X19298182Y-10884460D01*
X19298182Y-10884460D02*
X19307706Y-10836841D01*
X19307706Y-10836841D02*
X19307706Y-10798746D01*
X19307706Y-10798746D02*
X19298182Y-10751127D01*
X19298182Y-10751127D02*
X19288658Y-10722555D01*
X19288658Y-10722555D02*
X19279134Y-10703508D01*
X19279134Y-10703508D02*
X19260087Y-10674936D01*
X19260087Y-10674936D02*
X19250563Y-10665412D01*
X19612468Y-10970174D02*
X19602944Y-10960650D01*
X19602944Y-10960650D02*
X19583896Y-10932079D01*
X19583896Y-10932079D02*
X19574373Y-10913031D01*
X19574373Y-10913031D02*
X19564849Y-10884460D01*
X19564849Y-10884460D02*
X19555325Y-10836841D01*
X19555325Y-10836841D02*
X19555325Y-10798746D01*
X19555325Y-10798746D02*
X19564849Y-10751127D01*
X19564849Y-10751127D02*
X19574373Y-10722555D01*
X19574373Y-10722555D02*
X19583896Y-10703508D01*
X19583896Y-10703508D02*
X19602944Y-10674936D01*
X19602944Y-10674936D02*
X19612468Y-10665412D01*
X19688658Y-10760650D02*
X19688658Y-10893984D01*
X19688658Y-10779698D02*
X19698182Y-10770174D01*
X19698182Y-10770174D02*
X19717230Y-10760650D01*
X19717230Y-10760650D02*
X19745801Y-10760650D01*
X19745801Y-10760650D02*
X19764849Y-10770174D01*
X19764849Y-10770174D02*
X19774373Y-10789222D01*
X19774373Y-10789222D02*
X19774373Y-10893984D01*
X19898182Y-10893984D02*
X19879134Y-10884460D01*
X19879134Y-10884460D02*
X19869611Y-10874936D01*
X19869611Y-10874936D02*
X19860087Y-10855889D01*
X19860087Y-10855889D02*
X19860087Y-10798746D01*
X19860087Y-10798746D02*
X19869611Y-10779698D01*
X19869611Y-10779698D02*
X19879134Y-10770174D01*
X19879134Y-10770174D02*
X19898182Y-10760650D01*
X19898182Y-10760650D02*
X19926754Y-10760650D01*
X19926754Y-10760650D02*
X19945801Y-10770174D01*
X19945801Y-10770174D02*
X19955325Y-10779698D01*
X19955325Y-10779698D02*
X19964849Y-10798746D01*
X19964849Y-10798746D02*
X19964849Y-10855889D01*
X19964849Y-10855889D02*
X19955325Y-10874936D01*
X19955325Y-10874936D02*
X19945801Y-10884460D01*
X19945801Y-10884460D02*
X19926754Y-10893984D01*
X19926754Y-10893984D02*
X19898182Y-10893984D01*
X20021992Y-10760650D02*
X20098182Y-10760650D01*
X20050563Y-10693984D02*
X20050563Y-10865412D01*
X20050563Y-10865412D02*
X20060087Y-10884460D01*
X20060087Y-10884460D02*
X20079134Y-10893984D01*
X20079134Y-10893984D02*
X20098182Y-10893984D01*
X20317230Y-10760650D02*
X20317230Y-10960650D01*
X20317230Y-10770174D02*
X20336277Y-10760650D01*
X20336277Y-10760650D02*
X20374373Y-10760650D01*
X20374373Y-10760650D02*
X20393420Y-10770174D01*
X20393420Y-10770174D02*
X20402944Y-10779698D01*
X20402944Y-10779698D02*
X20412468Y-10798746D01*
X20412468Y-10798746D02*
X20412468Y-10855889D01*
X20412468Y-10855889D02*
X20402944Y-10874936D01*
X20402944Y-10874936D02*
X20393420Y-10884460D01*
X20393420Y-10884460D02*
X20374373Y-10893984D01*
X20374373Y-10893984D02*
X20336277Y-10893984D01*
X20336277Y-10893984D02*
X20317230Y-10884460D01*
X20526754Y-10893984D02*
X20507706Y-10884460D01*
X20507706Y-10884460D02*
X20498182Y-10865412D01*
X20498182Y-10865412D02*
X20498182Y-10693984D01*
X20688658Y-10893984D02*
X20688658Y-10789222D01*
X20688658Y-10789222D02*
X20679135Y-10770174D01*
X20679135Y-10770174D02*
X20660087Y-10760650D01*
X20660087Y-10760650D02*
X20621992Y-10760650D01*
X20621992Y-10760650D02*
X20602944Y-10770174D01*
X20688658Y-10884460D02*
X20669611Y-10893984D01*
X20669611Y-10893984D02*
X20621992Y-10893984D01*
X20621992Y-10893984D02*
X20602944Y-10884460D01*
X20602944Y-10884460D02*
X20593420Y-10865412D01*
X20593420Y-10865412D02*
X20593420Y-10846365D01*
X20593420Y-10846365D02*
X20602944Y-10827317D01*
X20602944Y-10827317D02*
X20621992Y-10817793D01*
X20621992Y-10817793D02*
X20669611Y-10817793D01*
X20669611Y-10817793D02*
X20688658Y-10808270D01*
X20755325Y-10760650D02*
X20831515Y-10760650D01*
X20783896Y-10693984D02*
X20783896Y-10865412D01*
X20783896Y-10865412D02*
X20793420Y-10884460D01*
X20793420Y-10884460D02*
X20812468Y-10893984D01*
X20812468Y-10893984D02*
X20831515Y-10893984D01*
X20974373Y-10884460D02*
X20955325Y-10893984D01*
X20955325Y-10893984D02*
X20917230Y-10893984D01*
X20917230Y-10893984D02*
X20898182Y-10884460D01*
X20898182Y-10884460D02*
X20888658Y-10865412D01*
X20888658Y-10865412D02*
X20888658Y-10789222D01*
X20888658Y-10789222D02*
X20898182Y-10770174D01*
X20898182Y-10770174D02*
X20917230Y-10760650D01*
X20917230Y-10760650D02*
X20955325Y-10760650D01*
X20955325Y-10760650D02*
X20974373Y-10770174D01*
X20974373Y-10770174D02*
X20983896Y-10789222D01*
X20983896Y-10789222D02*
X20983896Y-10808270D01*
X20983896Y-10808270D02*
X20888658Y-10827317D01*
X21155325Y-10893984D02*
X21155325Y-10693984D01*
X21155325Y-10884460D02*
X21136277Y-10893984D01*
X21136277Y-10893984D02*
X21098182Y-10893984D01*
X21098182Y-10893984D02*
X21079135Y-10884460D01*
X21079135Y-10884460D02*
X21069611Y-10874936D01*
X21069611Y-10874936D02*
X21060087Y-10855889D01*
X21060087Y-10855889D02*
X21060087Y-10798746D01*
X21060087Y-10798746D02*
X21069611Y-10779698D01*
X21069611Y-10779698D02*
X21079135Y-10770174D01*
X21079135Y-10770174D02*
X21098182Y-10760650D01*
X21098182Y-10760650D02*
X21136277Y-10760650D01*
X21136277Y-10760650D02*
X21155325Y-10770174D01*
X21231516Y-10970174D02*
X21241039Y-10960650D01*
X21241039Y-10960650D02*
X21260087Y-10932079D01*
X21260087Y-10932079D02*
X21269611Y-10913031D01*
X21269611Y-10913031D02*
X21279135Y-10884460D01*
X21279135Y-10884460D02*
X21288658Y-10836841D01*
X21288658Y-10836841D02*
X21288658Y-10798746D01*
X21288658Y-10798746D02*
X21279135Y-10751127D01*
X21279135Y-10751127D02*
X21269611Y-10722555D01*
X21269611Y-10722555D02*
X21260087Y-10703508D01*
X21260087Y-10703508D02*
X21241039Y-10674936D01*
X21241039Y-10674936D02*
X21231516Y-10665412D01*
M02*
