M48
; DRILL file {KiCad 9.0.2} date 2026-03-17T23:02:36-0600
; FORMAT={-:-/ absolute / metric / decimal}
; #@! TF.CreationDate,2026-03-17T23:02:36-06:00
; #@! TF.GenerationSoftware,Kicad,Pcbnew,9.0.2
; #@! TF.FileFunction,Plated,1,2,PTH
FMAT,2
METRIC
; #@! TA.AperFunction,Plated,PTH,ViaDrill
T1C0.300
; #@! TA.AperFunction,Plated,PTH,ComponentDrill
T2C1.000
%
G90
G05
T1
X161.015Y-79.2
X163.985Y-73.2
X172.72Y-84.697
X184.119Y-81.065
X194.31Y-88.9
X208.28Y-69.85
T2
X154.94Y-58.42
X154.94Y-60.96
X154.94Y-63.5
X154.94Y-66.04
X154.94Y-68.58
X154.94Y-71.12
X154.94Y-96.52
X157.48Y-96.52
X160.02Y-96.52
X162.56Y-96.52
X175.26Y-91.44
X175.26Y-93.98
X175.26Y-96.52
X182.88Y-96.52
X185.42Y-55.88
X185.42Y-58.42
X185.42Y-60.96
X185.42Y-63.5
X185.42Y-66.04
X185.42Y-68.58
X185.42Y-71.12
X185.42Y-96.52
X187.96Y-96.52
X190.5Y-96.52
X193.04Y-86.36
X193.04Y-91.44
X193.04Y-96.52
X195.58Y-86.36
X195.58Y-91.44
X195.58Y-96.52
X198.12Y-81.28
X198.12Y-86.36
X198.12Y-91.44
X198.12Y-96.52
X200.66Y-81.28
X200.66Y-86.36
X200.66Y-91.44
X200.66Y-96.52
X203.2Y-55.88
X203.2Y-58.42
X203.2Y-60.96
X203.2Y-63.5
X203.2Y-66.04
X203.2Y-68.58
X203.2Y-71.12
X208.28Y-83.82
X208.28Y-86.36
X208.28Y-88.9
X208.28Y-91.44
X208.28Y-93.98
X208.28Y-96.52
M30
