%TF.GenerationSoftware,KiCad,Pcbnew,9.0.2*%
%TF.CreationDate,2026-03-17T23:02:29-06:00*%
%TF.ProjectId,TelecomESP32,54656c65-636f-46d4-9553-5033322e6b69,rev?*%
%TF.SameCoordinates,Original*%
%TF.FileFunction,Copper,L1,Top*%
%TF.FilePolarity,Positive*%
%FSLAX46Y46*%
G04 Gerber Fmt 4.6, Leading zero omitted, Abs format (unit mm)*
G04 Created by KiCad (PCBNEW 9.0.2) date 2026-03-17 23:02:29*
%MOMM*%
%LPD*%
G01*
G04 APERTURE LIST*
G04 Aperture macros list*
%AMRoundRect*
0 Rectangle with rounded corners*
0 $1 Rounding radius*
0 $2 $3 $4 $5 $6 $7 $8 $9 X,Y pos of 4 corners*
0 Add a 4 corners polygon primitive as box body*
4,1,4,$2,$3,$4,$5,$6,$7,$8,$9,$2,$3,0*
0 Add four circle primitives for the rounded corners*
1,1,$1+$1,$2,$3*
1,1,$1+$1,$4,$5*
1,1,$1+$1,$6,$7*
1,1,$1+$1,$8,$9*
0 Add four rect primitives between the rounded corners*
20,1,$1+$1,$2,$3,$4,$5,0*
20,1,$1+$1,$4,$5,$6,$7,0*
20,1,$1+$1,$6,$7,$8,$9,0*
20,1,$1+$1,$8,$9,$2,$3,0*%
G04 Aperture macros list end*
%TA.AperFunction,ComponentPad*%
%ADD10R,1.700000X1.700000*%
%TD*%
%TA.AperFunction,ComponentPad*%
%ADD11C,1.700000*%
%TD*%
%TA.AperFunction,SMDPad,CuDef*%
%ADD12RoundRect,0.250000X-0.325000X-0.650000X0.325000X-0.650000X0.325000X0.650000X-0.325000X0.650000X0*%
%TD*%
%TA.AperFunction,SMDPad,CuDef*%
%ADD13R,0.350000X0.500000*%
%TD*%
%TA.AperFunction,SMDPad,CuDef*%
%ADD14RoundRect,0.250000X0.325000X0.650000X-0.325000X0.650000X-0.325000X-0.650000X0.325000X-0.650000X0*%
%TD*%
%TA.AperFunction,SMDPad,CuDef*%
%ADD15RoundRect,0.250000X0.650000X-0.325000X0.650000X0.325000X-0.650000X0.325000X-0.650000X-0.325000X0*%
%TD*%
%TA.AperFunction,SMDPad,CuDef*%
%ADD16R,2.500000X1.000000*%
%TD*%
%TA.AperFunction,SMDPad,CuDef*%
%ADD17RoundRect,0.250000X-0.312500X-0.625000X0.312500X-0.625000X0.312500X0.625000X-0.312500X0.625000X0*%
%TD*%
%TA.AperFunction,SMDPad,CuDef*%
%ADD18R,0.550000X0.250000*%
%TD*%
%TA.AperFunction,ViaPad*%
%ADD19C,0.600000*%
%TD*%
%TA.AperFunction,Conductor*%
%ADD20C,0.500000*%
%TD*%
%TA.AperFunction,Conductor*%
%ADD21C,0.200000*%
%TD*%
%TA.AperFunction,Conductor*%
%ADD22C,1.000000*%
%TD*%
G04 APERTURE END LIST*
D10*
%TO.P,J2,1,Pin_1*%
%TO.N,unconnected-(J2-Pin_1-Pad1)*%
X203200000Y-55880000D03*
D11*
%TO.P,J2,2,Pin_2*%
%TO.N,GND*%
X203200000Y-58420000D03*
%TO.P,J2,3,Pin_3*%
%TO.N,+3V3*%
X203200000Y-60960000D03*
%TO.P,J2,4,Pin_4*%
%TO.N,MOSI*%
X203200000Y-63500000D03*
%TO.P,J2,5,Pin_5*%
%TO.N,MISO*%
X203200000Y-66040000D03*
%TO.P,J2,6,Pin_6*%
%TO.N,SCK*%
X203200000Y-68580000D03*
%TO.P,J2,7,Pin_7*%
%TO.N,TX*%
X203200000Y-71120000D03*
%TD*%
D10*
%TO.P,J11,1,Pin_1*%
%TO.N,+3V3*%
X208280000Y-83820000D03*
D11*
%TO.P,J11,2,Pin_2*%
%TO.N,GND*%
X208280000Y-86360000D03*
%TO.P,J11,3,Pin_3*%
%TO.N,SCL*%
X208280000Y-88900000D03*
%TO.P,J11,4,Pin_4*%
%TO.N,SDA*%
X208280000Y-91440000D03*
%TO.P,J11,5,Pin_5*%
%TO.N,+BATT*%
X208280000Y-93980000D03*
%TO.P,J11,6,Pin_6*%
%TO.N,/+Vin*%
X208280000Y-96520000D03*
%TD*%
D10*
%TO.P,J3,1,Pin_1*%
%TO.N,unconnected-(J3-Pin_1-Pad1)*%
X154940000Y-58420000D03*
D11*
%TO.P,J3,2,Pin_2*%
%TO.N,unconnected-(J3-Pin_2-Pad2)*%
X154940000Y-60960000D03*
%TO.P,J3,3,Pin_3*%
%TO.N,+BATT*%
X154940000Y-63500000D03*
%TO.P,J3,4,Pin_4*%
%TO.N,unconnected-(J3-Pin_4-Pad4)*%
X154940000Y-66040000D03*
%TO.P,J3,5,Pin_5*%
%TO.N,RXS*%
X154940000Y-68580000D03*
%TO.P,J3,6,Pin_6*%
%TO.N,TXS*%
X154940000Y-71120000D03*
%TD*%
D12*
%TO.P,C1,1*%
%TO.N,Net-(IC1-DVI)*%
X177800000Y-86360000D03*
%TO.P,C1,2*%
%TO.N,GND*%
X180750000Y-86360000D03*
%TD*%
D10*
%TO.P,J9,1,Pin_1*%
%TO.N,+3V3*%
X200660000Y-96520000D03*
D11*
%TO.P,J9,2,Pin_2*%
%TO.N,GND*%
X198120000Y-96520000D03*
%TO.P,J9,3,Pin_3*%
%TO.N,SCL*%
X195580000Y-96520000D03*
%TO.P,J9,4,Pin_4*%
%TO.N,SDA*%
X193040000Y-96520000D03*
%TO.P,J9,5,Pin_5*%
%TO.N,unconnected-(J9-Pin_5-Pad5)*%
X190500000Y-96520000D03*
%TO.P,J9,6,Pin_6*%
%TO.N,unconnected-(J9-Pin_6-Pad6)*%
X187960000Y-96520000D03*
%TO.P,J9,7,Pin_7*%
%TO.N,unconnected-(J9-Pin_7-Pad7)*%
X185420000Y-96520000D03*
%TO.P,J9,8,Pin_8*%
%TO.N,unconnected-(J9-Pin_8-Pad8)*%
X182880000Y-96520000D03*
%TD*%
D13*
%TO.P,U1,1,GND*%
%TO.N,GND*%
X160610000Y-89390000D03*
%TO.P,U1,2,CSB*%
%TO.N,+3V3*%
X161260000Y-89390000D03*
%TO.P,U1,3,SDI*%
%TO.N,SDA*%
X161910000Y-89390000D03*
%TO.P,U1,4,SCK*%
%TO.N,SCL*%
X162560000Y-89390000D03*
%TO.P,U1,5,SDO*%
%TO.N,GND*%
X162560000Y-91440000D03*
%TO.P,U1,6,VDDIO*%
%TO.N,+3V3*%
X161910000Y-91440000D03*
%TO.P,U1,7,GND*%
%TO.N,GND*%
X161260000Y-91440000D03*
%TO.P,U1,8,VDD*%
%TO.N,+3V3*%
X160610000Y-91440000D03*
%TD*%
D14*
%TO.P,C5,1*%
%TO.N,+3V3*%
X220330000Y-73660000D03*
%TO.P,C5,2*%
%TO.N,GND*%
X217380000Y-73660000D03*
%TD*%
D10*
%TO.P,J4,1,Pin_1*%
%TO.N,/+Vin*%
X198120000Y-81280000D03*
D11*
%TO.P,J4,2,Pin_2*%
%TO.N,GND*%
X200660000Y-81280000D03*
%TD*%
D12*
%TO.P,C6,1*%
%TO.N,+3V3*%
X224590000Y-73660000D03*
%TO.P,C6,2*%
%TO.N,GND*%
X227540000Y-73660000D03*
%TD*%
D10*
%TO.P,J5,1,Pin_1*%
%TO.N,+3V3*%
X200660000Y-91440000D03*
D11*
%TO.P,J5,2,Pin_2*%
%TO.N,GND*%
X198120000Y-91440000D03*
%TO.P,J5,3,Pin_3*%
%TO.N,SCL*%
X195580000Y-91440000D03*
%TO.P,J5,4,Pin_4*%
%TO.N,SDA*%
X193040000Y-91440000D03*
%TD*%
D12*
%TO.P,C4,1*%
%TO.N,+3V3*%
X176325000Y-78740000D03*
%TO.P,C4,2*%
%TO.N,GND*%
X179275000Y-78740000D03*
%TD*%
D10*
%TO.P,J7,1,Pin_1*%
%TO.N,+3V3*%
X200660000Y-86360000D03*
D11*
%TO.P,J7,2,Pin_2*%
%TO.N,SDA*%
X198120000Y-86360000D03*
%TO.P,J7,3,Pin_3*%
%TO.N,SCL*%
X195580000Y-86360000D03*
%TO.P,J7,4,Pin_4*%
%TO.N,GND*%
X193040000Y-86360000D03*
%TD*%
D15*
%TO.P,C2,1*%
%TO.N,+3V3*%
X165100000Y-91850000D03*
%TO.P,C2,2*%
%TO.N,GND*%
X165100000Y-88900000D03*
%TD*%
D10*
%TO.P,J6,1,Pin_1*%
%TO.N,+3V3*%
X154940000Y-96520000D03*
D11*
%TO.P,J6,2,Pin_2*%
%TO.N,TX*%
X157480000Y-96520000D03*
%TO.P,J6,3,Pin_3*%
%TO.N,RX*%
X160020000Y-96520000D03*
%TO.P,J6,4,Pin_4*%
%TO.N,GND*%
X162560000Y-96520000D03*
%TD*%
D16*
%TO.P,U4,1,RESET*%
%TO.N,unconnected-(U4-RESET-Pad1)*%
X211880000Y-55880000D03*
%TO.P,U4,2,DIO0*%
%TO.N,unconnected-(U4-DIO0-Pad2)*%
X211880000Y-57880000D03*
%TO.P,U4,3,DIO1*%
%TO.N,unconnected-(U4-DIO1-Pad3)*%
X211880000Y-59880000D03*
%TO.P,U4,4,DIO2*%
%TO.N,unconnected-(U4-DIO2-Pad4)*%
X211880000Y-61880000D03*
%TO.P,U4,5,DIO3*%
%TO.N,unconnected-(U4-DIO3-Pad5)*%
X211880000Y-63880000D03*
%TO.P,U4,6,DIO4*%
%TO.N,unconnected-(U4-DIO4-Pad6)*%
X211880000Y-65880000D03*
%TO.P,U4,7,DIO5*%
%TO.N,unconnected-(U4-DIO5-Pad7)*%
X211880000Y-67880000D03*
%TO.P,U4,8,3.3V*%
%TO.N,+3V3*%
X211880000Y-69880000D03*
%TO.P,U4,9,GND*%
%TO.N,GND*%
X230080000Y-69880000D03*
%TO.P,U4,10,ANA*%
%TO.N,unconnected-(U4-ANA-Pad10)*%
X230080000Y-67880000D03*
%TO.P,U4,11,GND*%
%TO.N,GND*%
X230080000Y-65880000D03*
%TO.P,U4,12,SCK*%
%TO.N,SCK*%
X230080000Y-63880000D03*
%TO.P,U4,13,MISO*%
%TO.N,MISO*%
X230080000Y-61880000D03*
%TO.P,U4,14,MOSI*%
%TO.N,MOSI*%
X230080000Y-59880000D03*
%TO.P,U4,15,NSS*%
%TO.N,NSS*%
X230080000Y-57880000D03*
%TO.P,U4,16,NC*%
%TO.N,unconnected-(U4-NC-Pad16)*%
X230080000Y-55880000D03*
%TD*%
D15*
%TO.P,C3,1*%
%TO.N,+3V3*%
X157480000Y-91850000D03*
%TO.P,C3,2*%
%TO.N,GND*%
X157480000Y-88900000D03*
%TD*%
D10*
%TO.P,J8,1,Pin_1*%
%TO.N,A0*%
X175260000Y-91440000D03*
D11*
%TO.P,J8,2,Pin_2*%
%TO.N,+3V3*%
X175260000Y-93980000D03*
%TO.P,J8,3,Pin_3*%
%TO.N,GND*%
X175260000Y-96520000D03*
%TD*%
D17*
%TO.P,R1,1*%
%TO.N,+3V3*%
X172720000Y-86360000D03*
%TO.P,R1,2*%
%TO.N,Net-(IC1-DVI)*%
X175645000Y-86360000D03*
%TD*%
D18*
%TO.P,IC1,1,VCC*%
%TO.N,+3V3*%
X175260000Y-81280000D03*
%TO.P,IC1,2,ADDR*%
%TO.N,GND*%
X175260000Y-81780000D03*
%TO.P,IC1,3,GND*%
X175260000Y-82280000D03*
%TO.P,IC1,4,SDA*%
%TO.N,SDA*%
X178010000Y-82280000D03*
%TO.P,IC1,5,DVI*%
%TO.N,Net-(IC1-DVI)*%
X178010000Y-81780000D03*
%TO.P,IC1,6,SCL*%
%TO.N,SCL*%
X178010000Y-81280000D03*
%TD*%
D10*
%TO.P,J1,1,Pin_1*%
%TO.N,A0*%
X185420000Y-55880000D03*
D11*
%TO.P,J1,2,Pin_2*%
%TO.N,NSS*%
X185420000Y-58420000D03*
%TO.P,J1,3,Pin_3*%
%TO.N,RXS*%
X185420000Y-60960000D03*
%TO.P,J1,4,Pin_4*%
%TO.N,TXS*%
X185420000Y-63500000D03*
%TO.P,J1,5,Pin_5*%
%TO.N,SDA*%
X185420000Y-66040000D03*
%TO.P,J1,6,Pin_6*%
%TO.N,SCL*%
X185420000Y-68580000D03*
%TO.P,J1,7,Pin_7*%
%TO.N,RX*%
X185420000Y-71120000D03*
%TD*%
D19*
%TO.N,+BATT*%
X194310000Y-88900000D03*
%TO.N,+3V3*%
X172720000Y-84697500D03*
%TO.N,SCL*%
X184119000Y-81065400D03*
%TO.N,RX*%
X163985000Y-73200000D03*
%TO.N,TX*%
X161015000Y-79200000D03*
%TO.N,+3V3*%
X208280000Y-69850000D03*
%TD*%
D20*
%TO.N,NSS*%
X189261000Y-54579000D02*
X185420000Y-58420000D01*
X226029000Y-54579000D02*
X189261000Y-54579000D01*
X229330000Y-57880000D02*
X226029000Y-54579000D01*
X230080000Y-57880000D02*
X229330000Y-57880000D01*
%TO.N,Net-(IC1-DVI)*%
X175645000Y-86360000D02*
X177800000Y-86360000D01*
D21*
%TO.N,SCL*%
X183904400Y-81280000D02*
X184119000Y-81065400D01*
X178010000Y-81280000D02*
X183904400Y-81280000D01*
D20*
X190285400Y-81065400D02*
X195580000Y-86360000D01*
X184119000Y-81065400D02*
X190285400Y-81065400D01*
%TO.N,SDA*%
X193040000Y-89107925D02*
X193040000Y-91440000D01*
X193998925Y-88149000D02*
X193040000Y-89107925D01*
X196331000Y-88149000D02*
X193998925Y-88149000D01*
X198120000Y-86360000D02*
X196331000Y-88149000D01*
X199421000Y-87661000D02*
X204501000Y-87661000D01*
X204501000Y-87661000D02*
X208280000Y-91440000D01*
X198120000Y-86360000D02*
X199421000Y-87661000D01*
%TO.N,+BATT*%
X194310000Y-88900000D02*
X203200000Y-88900000D01*
X203200000Y-88900000D02*
X208280000Y-93980000D01*
%TO.N,SCL*%
X196881000Y-97821000D02*
X195580000Y-96520000D01*
X208818892Y-97821000D02*
X196881000Y-97821000D01*
X209581000Y-97058892D02*
X208818892Y-97821000D01*
X209581000Y-90201000D02*
X209581000Y-97058892D01*
X208280000Y-88900000D02*
X209581000Y-90201000D01*
%TO.N,SCK*%
X229129000Y-64831000D02*
X230080000Y-63880000D01*
X206949000Y-64831000D02*
X229129000Y-64831000D01*
X203200000Y-68580000D02*
X206949000Y-64831000D01*
%TO.N,MISO*%
X229129000Y-62831000D02*
X230080000Y-61880000D01*
X206409000Y-62831000D02*
X229129000Y-62831000D01*
X203200000Y-66040000D02*
X206409000Y-62831000D01*
%TO.N,MOSI*%
X229031000Y-60929000D02*
X230080000Y-59880000D01*
X205771000Y-60929000D02*
X229031000Y-60929000D01*
X203200000Y-63500000D02*
X205771000Y-60929000D01*
D21*
%TO.N,+3V3*%
X172720000Y-83318000D02*
X172720000Y-84697500D01*
X174758000Y-81280000D02*
X172720000Y-83318000D01*
X175260000Y-81280000D02*
X174758000Y-81280000D01*
D22*
X172720000Y-86360000D02*
X172720000Y-84697500D01*
D20*
%TO.N,TX*%
X200369000Y-73951000D02*
X166264000Y-73951000D01*
X203200000Y-71120000D02*
X200369000Y-73951000D01*
X166264000Y-73951000D02*
X161015000Y-79200000D01*
%TO.N,RXS*%
X161290000Y-62230000D02*
X184150000Y-62230000D01*
X184150000Y-62230000D02*
X185420000Y-60960000D01*
X154940000Y-68580000D02*
X161290000Y-62230000D01*
%TO.N,TXS*%
X162560000Y-63500000D02*
X185420000Y-63500000D01*
X154940000Y-71120000D02*
X162560000Y-63500000D01*
D21*
%TO.N,+3V3*%
X164214840Y-89776000D02*
X169304000Y-89776000D01*
X163277840Y-88839000D02*
X164214840Y-89776000D01*
X161260000Y-88940000D02*
X161361000Y-88839000D01*
X161361000Y-88839000D02*
X163277840Y-88839000D01*
X169304000Y-89776000D02*
X172720000Y-86360000D01*
X161260000Y-89390000D02*
X161260000Y-88940000D01*
D20*
X158046708Y-86360000D02*
X172720000Y-86360000D01*
X156129000Y-88277708D02*
X158046708Y-86360000D01*
X156129000Y-90499000D02*
X156129000Y-88277708D01*
X157480000Y-91850000D02*
X156129000Y-90499000D01*
X160610000Y-91440000D02*
X157890000Y-91440000D01*
X157890000Y-91440000D02*
X157480000Y-91850000D01*
D22*
X154940000Y-94390000D02*
X157480000Y-91850000D01*
X154940000Y-96520000D02*
X154940000Y-94390000D01*
D21*
%TO.N,GND*%
X162560000Y-91890000D02*
X162560000Y-91440000D01*
X161260000Y-91890000D02*
X161361000Y-91991000D01*
X161361000Y-91991000D02*
X162459000Y-91991000D01*
X162459000Y-91991000D02*
X162560000Y-91890000D01*
X161260000Y-91440000D02*
X161260000Y-91890000D01*
%TO.N,SCL*%
X174341700Y-87015260D02*
X174341700Y-84446300D01*
X177508000Y-81280000D02*
X178010000Y-81280000D01*
X171176660Y-90180300D02*
X174341700Y-87015260D01*
X163350300Y-90180300D02*
X171176660Y-90180300D01*
X162560000Y-89390000D02*
X163350300Y-90180300D01*
X174341700Y-84446300D02*
X177508000Y-81280000D01*
%TO.N,SDA*%
X171342060Y-90582000D02*
X174742700Y-87181360D01*
X161910000Y-89767000D02*
X162725000Y-90582000D01*
X162725000Y-90582000D02*
X171342060Y-90582000D01*
X161910000Y-89390000D02*
X161910000Y-89767000D01*
X179001340Y-91440000D02*
X193040000Y-91440000D01*
X174742700Y-87181360D02*
X179001340Y-91440000D01*
X174742700Y-86623400D02*
X174742700Y-87181360D01*
D22*
%TO.N,+3V3*%
X175820400Y-94540400D02*
X175260000Y-93980000D01*
X198680400Y-94540400D02*
X175820400Y-94540400D01*
X200660000Y-96520000D02*
X198680400Y-94540400D01*
X203200000Y-83820000D02*
X200660000Y-86360000D01*
X208280000Y-83820000D02*
X203200000Y-83820000D01*
X220330000Y-73660000D02*
X224590000Y-73660000D01*
X218729000Y-75261000D02*
X220330000Y-73660000D01*
X215761000Y-75261000D02*
X218729000Y-75261000D01*
X211880000Y-69880000D02*
X211880000Y-71380000D01*
X211880000Y-71380000D02*
X215761000Y-75261000D01*
X211850000Y-69850000D02*
X211880000Y-69880000D01*
X208280000Y-69850000D02*
X211850000Y-69850000D01*
X167230000Y-93980000D02*
X175260000Y-93980000D01*
X165100000Y-91850000D02*
X167230000Y-93980000D01*
D21*
%TO.N,SDA*%
X174742700Y-86623400D02*
X174742700Y-86360000D01*
X174742700Y-86360000D02*
X174742700Y-84970600D01*
%TO.N,+3V3*%
X176167900Y-81280000D02*
X175260000Y-81280000D01*
X176325000Y-81122900D02*
X176167900Y-81280000D01*
X176325000Y-78740000D02*
X176325000Y-81122900D01*
%TO.N,GND*%
X175260000Y-82280000D02*
X175260000Y-81780000D01*
X176235000Y-81780000D02*
X179275000Y-78740000D01*
X175260000Y-81780000D02*
X176235000Y-81780000D01*
%TO.N,+3V3*%
X161910000Y-91440000D02*
X161910000Y-90835500D01*
X161910000Y-90835500D02*
X161260000Y-90185500D01*
X161260000Y-90185500D02*
X161260000Y-89390000D01*
%TO.N,SDA*%
X178010000Y-82280000D02*
X177433300Y-82280000D01*
X174742700Y-84970600D02*
X177433300Y-82280000D01*
%TO.N,GND*%
X157480000Y-88900000D02*
X157970000Y-89390000D01*
X160610000Y-89390000D02*
X160610000Y-90339100D01*
X160610000Y-90339100D02*
X161260000Y-90989100D01*
X161260000Y-91214500D02*
X161260000Y-90989100D01*
X161260000Y-91214500D02*
X161260000Y-91440000D01*
D20*
%TO.N,RX*%
X185420000Y-71120000D02*
X183340000Y-73200000D01*
X183340000Y-73200000D02*
X163985000Y-73200000D01*
D21*
%TO.N,Net-(IC1-DVI)*%
X178586700Y-81780000D02*
X178586700Y-85573300D01*
X178010000Y-81780000D02*
X178586700Y-81780000D01*
X178586700Y-85573300D02*
X177800000Y-86360000D01*
%TD*%
%TA.AperFunction,Conductor*%
%TO.N,GND*%
G36*
X174786033Y-88089774D02*
G01*
X174830380Y-88118275D01*
X178516479Y-91804374D01*
X178516489Y-91804385D01*
X178520819Y-91808715D01*
X178520820Y-91808716D01*
X178632624Y-91920520D01*
X178632626Y-91920521D01*
X178632630Y-91920524D01*
X178763542Y-91996105D01*
X178769556Y-91999577D01*
X178856793Y-92022952D01*
X178922282Y-92040500D01*
X178922283Y-92040500D01*
X191754281Y-92040500D01*
X191821320Y-92060185D01*
X191864765Y-92108205D01*
X191884947Y-92147814D01*
X191884948Y-92147815D01*
X192009890Y-92319786D01*
X192160213Y-92470109D01*
X192332179Y-92595048D01*
X192332181Y-92595049D01*
X192332184Y-92595051D01*
X192521588Y-92691557D01*
X192723757Y-92757246D01*
X192933713Y-92790500D01*
X192933714Y-92790500D01*
X193146286Y-92790500D01*
X193146287Y-92790500D01*
X193356243Y-92757246D01*
X193558412Y-92691557D01*
X193747816Y-92595051D01*
X193834138Y-92532335D01*
X193919786Y-92470109D01*
X193919788Y-92470106D01*
X193919792Y-92470104D01*
X194070104Y-92319792D01*
X194070106Y-92319788D01*
X194070109Y-92319786D01*
X194195048Y-92147820D01*
X194195047Y-92147820D01*
X194195051Y-92147816D01*
X194199514Y-92139054D01*
X194247488Y-92088259D01*
X194315308Y-92071463D01*
X194381444Y-92093999D01*
X194420486Y-92139056D01*
X194424951Y-92147820D01*
X194549890Y-92319786D01*
X194700213Y-92470109D01*
X194872179Y-92595048D01*
X194872181Y-92595049D01*
X194872184Y-92595051D01*
X195061588Y-92691557D01*
X195263757Y-92757246D01*
X195473713Y-92790500D01*
X195473714Y-92790500D01*
X195686286Y-92790500D01*
X195686287Y-92790500D01*
X195896243Y-92757246D01*
X196098412Y-92691557D01*
X196287816Y-92595051D01*
X196374138Y-92532335D01*
X196459786Y-92470109D01*
X196459788Y-92470106D01*
X196459792Y-92470104D01*
X196610104Y-92319792D01*
X196610106Y-92319788D01*
X196610109Y-92319786D01*
X196678973Y-92225001D01*
X196735051Y-92147816D01*
X196739793Y-92138508D01*
X196787763Y-92087711D01*
X196855583Y-92070911D01*
X196921719Y-92093445D01*
X196960763Y-92138500D01*
X196965373Y-92147547D01*
X197004728Y-92201716D01*
X197637037Y-91569408D01*
X197654075Y-91632993D01*
X197719901Y-91747007D01*
X197812993Y-91840099D01*
X197927007Y-91905925D01*
X197990590Y-91922962D01*
X197358282Y-92555269D01*
X197358282Y-92555270D01*
X197412449Y-92594624D01*
X197601782Y-92691095D01*
X197803870Y-92756757D01*
X198013754Y-92790000D01*
X198226246Y-92790000D01*
X198436127Y-92756757D01*
X198436130Y-92756757D01*
X198638217Y-92691095D01*
X198827554Y-92594622D01*
X198881716Y-92555270D01*
X198881717Y-92555270D01*
X198249408Y-91922962D01*
X198312993Y-91905925D01*
X198427007Y-91840099D01*
X198520099Y-91747007D01*
X198585925Y-91632993D01*
X198602962Y-91569408D01*
X199273181Y-92239628D01*
X199306666Y-92300951D01*
X199309500Y-92327300D01*
X199309500Y-92337865D01*
X199309501Y-92337876D01*
X199315908Y-92397483D01*
X199366202Y-92532328D01*
X199366206Y-92532335D01*
X199452452Y-92647544D01*
X199452455Y-92647547D01*
X199567664Y-92733793D01*
X199567671Y-92733797D01*
X199702517Y-92784091D01*
X199702516Y-92784091D01*
X199709444Y-92784835D01*
X199762127Y-92790500D01*
X201557872Y-92790499D01*
X201617483Y-92784091D01*
X201752331Y-92733796D01*
X201867546Y-92647546D01*
X201953796Y-92532331D01*
X202004091Y-92397483D01*
X202010500Y-92337873D01*
X202010499Y-90542128D01*
X202004091Y-90482517D01*
X201953796Y-90347669D01*
X201953795Y-90347668D01*
X201953793Y-90347664D01*
X201867547Y-90232455D01*
X201867544Y-90232452D01*
X201752335Y-90146206D01*
X201752328Y-90146202D01*
X201617482Y-90095908D01*
X201617483Y-90095908D01*
X201557883Y-90089501D01*
X201557881Y-90089500D01*
X201557873Y-90089500D01*
X201557864Y-90089500D01*
X199762129Y-90089500D01*
X199762123Y-90089501D01*
X199702516Y-90095908D01*
X199567671Y-90146202D01*
X199567664Y-90146206D01*
X199452455Y-90232452D01*
X199452452Y-90232455D01*
X199366206Y-90347664D01*
X199366202Y-90347671D01*
X199315908Y-90482517D01*
X199309501Y-90542116D01*
X199309501Y-90542123D01*
X199309500Y-90542135D01*
X199309500Y-90552690D01*
X199289815Y-90619729D01*
X199273181Y-90640371D01*
X198602962Y-91310590D01*
X198585925Y-91247007D01*
X198520099Y-91132993D01*
X198427007Y-91039901D01*
X198312993Y-90974075D01*
X198249409Y-90957037D01*
X198881716Y-90324728D01*
X198827550Y-90285375D01*
X198638217Y-90188904D01*
X198436129Y-90123242D01*
X198226246Y-90090000D01*
X198013754Y-90090000D01*
X197803872Y-90123242D01*
X197803869Y-90123242D01*
X197601782Y-90188904D01*
X197412439Y-90285380D01*
X197358282Y-90324727D01*
X197358282Y-90324728D01*
X197990591Y-90957037D01*
X197927007Y-90974075D01*
X197812993Y-91039901D01*
X197719901Y-91132993D01*
X197654075Y-91247007D01*
X197637037Y-91310590D01*
X197004728Y-90678282D01*
X197004727Y-90678282D01*
X196965380Y-90732440D01*
X196965376Y-90732446D01*
X196960760Y-90741505D01*
X196912781Y-90792297D01*
X196844959Y-90809087D01*
X196778826Y-90786543D01*
X196739794Y-90741493D01*
X196735051Y-90732184D01*
X196735049Y-90732181D01*
X196735048Y-90732179D01*
X196610109Y-90560213D01*
X196459786Y-90409890D01*
X196287820Y-90284951D01*
X196098414Y-90188444D01*
X196098413Y-90188443D01*
X196098412Y-90188443D01*
X195896243Y-90122754D01*
X195896241Y-90122753D01*
X195896240Y-90122753D01*
X195734957Y-90097208D01*
X195686287Y-90089500D01*
X195473713Y-90089500D01*
X195425042Y-90097208D01*
X195263760Y-90122753D01*
X195061585Y-90188444D01*
X194872179Y-90284951D01*
X194700213Y-90409890D01*
X194549890Y-90560213D01*
X194424949Y-90732182D01*
X194420484Y-90740946D01*
X194372509Y-90791742D01*
X194304688Y-90808536D01*
X194238553Y-90785998D01*
X194199516Y-90740946D01*
X194195050Y-90732182D01*
X194070109Y-90560213D01*
X193919794Y-90409898D01*
X193919788Y-90409893D01*
X193841615Y-90353097D01*
X193798949Y-90297767D01*
X193790500Y-90252779D01*
X193790500Y-89736850D01*
X193810185Y-89669811D01*
X193862989Y-89624056D01*
X193932147Y-89614112D01*
X193961952Y-89622289D01*
X193966218Y-89624056D01*
X194076503Y-89669737D01*
X194195188Y-89693345D01*
X194231153Y-89700499D01*
X194231156Y-89700500D01*
X194231158Y-89700500D01*
X194388844Y-89700500D01*
X194388845Y-89700499D01*
X194465152Y-89685320D01*
X194543488Y-89669739D01*
X194543489Y-89669738D01*
X194543497Y-89669737D01*
X194567155Y-89659937D01*
X194614604Y-89650500D01*
X202837770Y-89650500D01*
X202904809Y-89670185D01*
X202925451Y-89686819D01*
X206909824Y-93671192D01*
X206943309Y-93732515D01*
X206944616Y-93778271D01*
X206929500Y-93873707D01*
X206929500Y-94086286D01*
X206962753Y-94296239D01*
X207028444Y-94498414D01*
X207124951Y-94687820D01*
X207249890Y-94859786D01*
X207400213Y-95010109D01*
X207572182Y-95135050D01*
X207580946Y-95139516D01*
X207631742Y-95187491D01*
X207648536Y-95255312D01*
X207625998Y-95321447D01*
X207580946Y-95360484D01*
X207572182Y-95364949D01*
X207400213Y-95489890D01*
X207249890Y-95640213D01*
X207124951Y-95812179D01*
X207028444Y-96001585D01*
X206962753Y-96203760D01*
X206929500Y-96413713D01*
X206929500Y-96626286D01*
X206962735Y-96836127D01*
X206962754Y-96836243D01*
X206974877Y-96873554D01*
X206986129Y-96908182D01*
X206988124Y-96978023D01*
X206952044Y-97037856D01*
X206889343Y-97068684D01*
X206868198Y-97070500D01*
X202134500Y-97070500D01*
X202067461Y-97050815D01*
X202021706Y-96998011D01*
X202010500Y-96946500D01*
X202010499Y-95622129D01*
X202010498Y-95622123D01*
X202010497Y-95622116D01*
X202004091Y-95562517D01*
X202003370Y-95560585D01*
X201953797Y-95427671D01*
X201953793Y-95427664D01*
X201867547Y-95312455D01*
X201867544Y-95312452D01*
X201752335Y-95226206D01*
X201752328Y-95226202D01*
X201617482Y-95175908D01*
X201617483Y-95175908D01*
X201557883Y-95169501D01*
X201557881Y-95169500D01*
X201557873Y-95169500D01*
X201557865Y-95169500D01*
X200775782Y-95169500D01*
X200708743Y-95149815D01*
X200688101Y-95133181D01*
X199461879Y-93906959D01*
X199461859Y-93906937D01*
X199318185Y-93763263D01*
X199318181Y-93763260D01*
X199154320Y-93653771D01*
X199154311Y-93653766D01*
X199081715Y-93623696D01*
X199025565Y-93600438D01*
X198972236Y-93578349D01*
X198972232Y-93578348D01*
X198972228Y-93578346D01*
X198875588Y-93559124D01*
X198778944Y-93539900D01*
X198778941Y-93539900D01*
X176626849Y-93539900D01*
X176559810Y-93520215D01*
X176514055Y-93467411D01*
X176512285Y-93463346D01*
X176511556Y-93461585D01*
X176415048Y-93272179D01*
X176290109Y-93100213D01*
X176176569Y-92986673D01*
X176143084Y-92925350D01*
X176148068Y-92855658D01*
X176189940Y-92799725D01*
X176220915Y-92782810D01*
X176352331Y-92733796D01*
X176467546Y-92647546D01*
X176553796Y-92532331D01*
X176604091Y-92397483D01*
X176610500Y-92337873D01*
X176610499Y-90542128D01*
X176604091Y-90482517D01*
X176553796Y-90347669D01*
X176553795Y-90347668D01*
X176553793Y-90347664D01*
X176467547Y-90232455D01*
X176467544Y-90232452D01*
X176352335Y-90146206D01*
X176352328Y-90146202D01*
X176217482Y-90095908D01*
X176217483Y-90095908D01*
X176157883Y-90089501D01*
X176157881Y-90089500D01*
X176157873Y-90089500D01*
X176157864Y-90089500D01*
X174362129Y-90089500D01*
X174362123Y-90089501D01*
X174302516Y-90095908D01*
X174167671Y-90146202D01*
X174167664Y-90146206D01*
X174052455Y-90232452D01*
X174052452Y-90232455D01*
X173966206Y-90347664D01*
X173966202Y-90347671D01*
X173915908Y-90482517D01*
X173909501Y-90542116D01*
X173909501Y-90542123D01*
X173909500Y-90542135D01*
X173909500Y-92337870D01*
X173909501Y-92337876D01*
X173915908Y-92397483D01*
X173966202Y-92532328D01*
X173966206Y-92532335D01*
X174052452Y-92647544D01*
X174052455Y-92647547D01*
X174167664Y-92733793D01*
X174167671Y-92733797D01*
X174182473Y-92739318D01*
X174238407Y-92781189D01*
X174262824Y-92846654D01*
X174247972Y-92914927D01*
X174198567Y-92964332D01*
X174139140Y-92979500D01*
X167695782Y-92979500D01*
X167628743Y-92959815D01*
X167608101Y-92943181D01*
X166536818Y-91871898D01*
X166503333Y-91810575D01*
X166500499Y-91784217D01*
X166500499Y-91474998D01*
X166500498Y-91474981D01*
X166489999Y-91372203D01*
X166489998Y-91372200D01*
X166481152Y-91345504D01*
X166478750Y-91275676D01*
X166514482Y-91215634D01*
X166577002Y-91184441D01*
X166598858Y-91182500D01*
X171255391Y-91182500D01*
X171255407Y-91182501D01*
X171263003Y-91182501D01*
X171421114Y-91182501D01*
X171421117Y-91182501D01*
X171573845Y-91141577D01*
X171623964Y-91112639D01*
X171710776Y-91062520D01*
X171822580Y-90950716D01*
X171822580Y-90950714D01*
X171832788Y-90940507D01*
X171832789Y-90940504D01*
X174655022Y-88118272D01*
X174716341Y-88084790D01*
X174786033Y-88089774D01*
G37*
%TD.AperFunction*%
%TA.AperFunction,Conductor*%
G36*
X189990209Y-81835585D02*
G01*
X190010851Y-81852219D01*
X192078993Y-83920361D01*
X192964434Y-84805801D01*
X192997919Y-84867124D01*
X192992935Y-84936816D01*
X192951063Y-84992749D01*
X192896151Y-85015955D01*
X192723872Y-85043242D01*
X192723869Y-85043242D01*
X192521782Y-85108904D01*
X192332439Y-85205380D01*
X192278282Y-85244727D01*
X192278282Y-85244728D01*
X192910591Y-85877037D01*
X192847007Y-85894075D01*
X192732993Y-85959901D01*
X192639901Y-86052993D01*
X192574075Y-86167007D01*
X192557037Y-86230591D01*
X191924728Y-85598282D01*
X191924727Y-85598282D01*
X191885380Y-85652439D01*
X191788904Y-85841782D01*
X191723242Y-86043869D01*
X191723242Y-86043872D01*
X191690000Y-86253753D01*
X191690000Y-86466246D01*
X191723242Y-86676127D01*
X191723242Y-86676130D01*
X191788904Y-86878217D01*
X191885375Y-87067550D01*
X191924728Y-87121716D01*
X192557037Y-86489408D01*
X192574075Y-86552993D01*
X192639901Y-86667007D01*
X192732993Y-86760099D01*
X192847007Y-86825925D01*
X192910589Y-86842962D01*
X192278282Y-87475269D01*
X192278282Y-87475270D01*
X192332449Y-87514624D01*
X192521782Y-87611095D01*
X192723870Y-87676757D01*
X192933754Y-87710000D01*
X193077194Y-87710000D01*
X193144233Y-87729685D01*
X193189988Y-87782489D01*
X193199932Y-87851647D01*
X193170907Y-87915203D01*
X193164875Y-87921681D01*
X192457048Y-88629508D01*
X192450038Y-88640000D01*
X192422585Y-88681088D01*
X192374914Y-88752432D01*
X192318343Y-88889007D01*
X192318340Y-88889017D01*
X192289500Y-89034004D01*
X192289500Y-90252779D01*
X192269815Y-90319818D01*
X192238385Y-90353097D01*
X192160211Y-90409893D01*
X192160205Y-90409898D01*
X192009890Y-90560213D01*
X191884948Y-90732184D01*
X191884947Y-90732185D01*
X191864765Y-90771795D01*
X191816791Y-90822591D01*
X191754281Y-90839500D01*
X179301437Y-90839500D01*
X179234398Y-90819815D01*
X179213756Y-90803181D01*
X176266223Y-87855648D01*
X176232738Y-87794325D01*
X176237722Y-87724633D01*
X176279594Y-87668700D01*
X176288801Y-87662432D01*
X176426156Y-87577712D01*
X176550212Y-87453656D01*
X176603002Y-87368069D01*
X176654947Y-87321346D01*
X176723909Y-87310123D01*
X176787992Y-87337966D01*
X176814077Y-87368070D01*
X176882285Y-87478652D01*
X176882288Y-87478656D01*
X177006344Y-87602712D01*
X177155666Y-87694814D01*
X177322203Y-87749999D01*
X177424991Y-87760500D01*
X178175008Y-87760499D01*
X178175016Y-87760498D01*
X178175019Y-87760498D01*
X178231302Y-87754748D01*
X178277797Y-87749999D01*
X178444334Y-87694814D01*
X178593656Y-87602712D01*
X178717712Y-87478656D01*
X178809814Y-87329334D01*
X178864999Y-87162797D01*
X178875500Y-87060009D01*
X178875500Y-87059986D01*
X179675001Y-87059986D01*
X179685494Y-87162697D01*
X179740641Y-87329119D01*
X179740643Y-87329124D01*
X179832684Y-87478345D01*
X179956654Y-87602315D01*
X180105875Y-87694356D01*
X180105880Y-87694358D01*
X180272302Y-87749505D01*
X180272309Y-87749506D01*
X180375019Y-87759999D01*
X180499999Y-87759999D01*
X181000000Y-87759999D01*
X181124972Y-87759999D01*
X181124986Y-87759998D01*
X181227697Y-87749505D01*
X181394119Y-87694358D01*
X181394124Y-87694356D01*
X181543345Y-87602315D01*
X181667315Y-87478345D01*
X181759356Y-87329124D01*
X181759358Y-87329119D01*
X181814505Y-87162697D01*
X181814506Y-87162690D01*
X181824999Y-87059986D01*
X181825000Y-87059973D01*
X181825000Y-86610000D01*
X181000000Y-86610000D01*
X181000000Y-87759999D01*
X180499999Y-87759999D01*
X180500000Y-87759998D01*
X180500000Y-86610000D01*
X179675001Y-86610000D01*
X179675001Y-87059986D01*
X178875500Y-87059986D01*
X178875499Y-86185095D01*
X178884143Y-86155655D01*
X178890667Y-86125669D01*
X178894421Y-86120653D01*
X178895184Y-86118057D01*
X178911813Y-86097420D01*
X178945206Y-86064028D01*
X178945211Y-86064024D01*
X178955414Y-86053820D01*
X178955416Y-86053820D01*
X179067220Y-85942016D01*
X179125202Y-85841588D01*
X179146277Y-85805085D01*
X179185150Y-85660013D01*
X179675000Y-85660013D01*
X179675000Y-86110000D01*
X180500000Y-86110000D01*
X181000000Y-86110000D01*
X181824999Y-86110000D01*
X181824999Y-85660028D01*
X181824998Y-85660013D01*
X181814505Y-85557302D01*
X181759358Y-85390880D01*
X181759356Y-85390875D01*
X181667315Y-85241654D01*
X181543345Y-85117684D01*
X181394124Y-85025643D01*
X181394119Y-85025641D01*
X181227697Y-84970494D01*
X181227690Y-84970493D01*
X181124986Y-84960000D01*
X181000000Y-84960000D01*
X181000000Y-86110000D01*
X180500000Y-86110000D01*
X180500000Y-84960000D01*
X180375027Y-84960000D01*
X180375012Y-84960001D01*
X180272302Y-84970494D01*
X180105880Y-85025641D01*
X180105875Y-85025643D01*
X179956654Y-85117684D01*
X179832684Y-85241654D01*
X179740643Y-85390875D01*
X179740641Y-85390880D01*
X179685494Y-85557302D01*
X179685493Y-85557309D01*
X179675000Y-85660013D01*
X179185150Y-85660013D01*
X179187201Y-85652357D01*
X179187201Y-85494242D01*
X179187200Y-85494238D01*
X179187200Y-82004500D01*
X179206885Y-81937461D01*
X179259689Y-81891706D01*
X179311200Y-81880500D01*
X183817731Y-81880500D01*
X183817747Y-81880501D01*
X183825343Y-81880501D01*
X183983457Y-81880501D01*
X184022174Y-81870125D01*
X184054270Y-81865900D01*
X184197844Y-81865900D01*
X184197845Y-81865899D01*
X184274152Y-81850720D01*
X184352488Y-81835139D01*
X184352489Y-81835138D01*
X184352497Y-81835137D01*
X184376155Y-81825337D01*
X184423604Y-81815900D01*
X189923170Y-81815900D01*
X189990209Y-81835585D01*
G37*
%TD.AperFunction*%
%TA.AperFunction,Conductor*%
G36*
X170887941Y-87130185D02*
G01*
X170933696Y-87182989D01*
X170943640Y-87252147D01*
X170914615Y-87315703D01*
X170908583Y-87322181D01*
X169091584Y-89139181D01*
X169030261Y-89172666D01*
X169003903Y-89175500D01*
X166576862Y-89175500D01*
X166509823Y-89155815D01*
X166502607Y-89150000D01*
X165224000Y-89150000D01*
X165156961Y-89130315D01*
X165111206Y-89077511D01*
X165100000Y-89026000D01*
X165100000Y-88900000D01*
X164974000Y-88900000D01*
X164906961Y-88880315D01*
X164861206Y-88827511D01*
X164850000Y-88776000D01*
X164850000Y-88650000D01*
X165350000Y-88650000D01*
X166499999Y-88650000D01*
X166499999Y-88525028D01*
X166499998Y-88525013D01*
X166489505Y-88422302D01*
X166434358Y-88255880D01*
X166434356Y-88255875D01*
X166342315Y-88106654D01*
X166218345Y-87982684D01*
X166069124Y-87890643D01*
X166069119Y-87890641D01*
X165902697Y-87835494D01*
X165902690Y-87835493D01*
X165799986Y-87825000D01*
X165350000Y-87825000D01*
X165350000Y-88650000D01*
X164850000Y-88650000D01*
X164850000Y-87825000D01*
X164400028Y-87825000D01*
X164400012Y-87825001D01*
X164297302Y-87835494D01*
X164130880Y-87890641D01*
X164130875Y-87890643D01*
X163981654Y-87982684D01*
X163857684Y-88106654D01*
X163765643Y-88255875D01*
X163762592Y-88262421D01*
X163761296Y-88261816D01*
X163753616Y-88272906D01*
X163745627Y-88292867D01*
X163734120Y-88301061D01*
X163726079Y-88312674D01*
X163706225Y-88320926D01*
X163688714Y-88333397D01*
X163674605Y-88334069D01*
X163661561Y-88339492D01*
X163640398Y-88335700D01*
X163618924Y-88336725D01*
X163596900Y-88327909D01*
X163592786Y-88327172D01*
X163586157Y-88323609D01*
X163579777Y-88319925D01*
X163559744Y-88308360D01*
X163559742Y-88308358D01*
X163559741Y-88308358D01*
X163509625Y-88279423D01*
X163356897Y-88238499D01*
X163198783Y-88238499D01*
X163191187Y-88238499D01*
X163191171Y-88238500D01*
X161447670Y-88238500D01*
X161447654Y-88238499D01*
X161440058Y-88238499D01*
X161281943Y-88238499D01*
X161133739Y-88278211D01*
X161130423Y-88279099D01*
X161129211Y-88279424D01*
X160992287Y-88358477D01*
X160992282Y-88358481D01*
X160779481Y-88571282D01*
X160779479Y-88571285D01*
X160772277Y-88583760D01*
X160745864Y-88629509D01*
X160700423Y-88708215D01*
X160676596Y-88797133D01*
X160673341Y-88804893D01*
X160656389Y-88825731D01*
X160642409Y-88848667D01*
X160634676Y-88852423D01*
X160629250Y-88859094D01*
X160603720Y-88867460D01*
X160579562Y-88879196D01*
X160571025Y-88878175D01*
X160562855Y-88880853D01*
X160536858Y-88874090D01*
X160510187Y-88870901D01*
X160503556Y-88865426D01*
X160495236Y-88863262D01*
X160477021Y-88843516D01*
X160456309Y-88826415D01*
X160453691Y-88818226D01*
X160447862Y-88811907D01*
X160443214Y-88785450D01*
X160435035Y-88759863D01*
X160435000Y-88756913D01*
X160435000Y-88640000D01*
X160387155Y-88640000D01*
X160327627Y-88646401D01*
X160327620Y-88646403D01*
X160192913Y-88696645D01*
X160192906Y-88696649D01*
X160077812Y-88782809D01*
X160077809Y-88782812D01*
X159991649Y-88897906D01*
X159991645Y-88897913D01*
X159941403Y-89032620D01*
X159941401Y-89032627D01*
X159935000Y-89092155D01*
X159935000Y-89215000D01*
X160460500Y-89215000D01*
X160469185Y-89217550D01*
X160478146Y-89216262D01*
X160502187Y-89227240D01*
X160527539Y-89234685D01*
X160533465Y-89241524D01*
X160541702Y-89245286D01*
X160555992Y-89267521D01*
X160573294Y-89287489D01*
X160575581Y-89298001D01*
X160579477Y-89304064D01*
X160584500Y-89338999D01*
X160584501Y-89440999D01*
X160564817Y-89508038D01*
X160512014Y-89553794D01*
X160460501Y-89565000D01*
X159935000Y-89565000D01*
X159935000Y-89687844D01*
X159941401Y-89747372D01*
X159941403Y-89747379D01*
X159991645Y-89882086D01*
X159991649Y-89882093D01*
X160077809Y-89997187D01*
X160077812Y-89997190D01*
X160192906Y-90083350D01*
X160192913Y-90083354D01*
X160327620Y-90133596D01*
X160327627Y-90133598D01*
X160387155Y-90139999D01*
X160387172Y-90140000D01*
X160435000Y-90140000D01*
X160447818Y-90127182D01*
X160509141Y-90093697D01*
X160578833Y-90098681D01*
X160634766Y-90140553D01*
X160659183Y-90206017D01*
X160659499Y-90214863D01*
X160659499Y-90264554D01*
X160659498Y-90264554D01*
X160700423Y-90417285D01*
X160713249Y-90439500D01*
X160713248Y-90439500D01*
X160713249Y-90439501D01*
X160750199Y-90503501D01*
X160766672Y-90571401D01*
X160743819Y-90637428D01*
X160688898Y-90680618D01*
X160642812Y-90689500D01*
X157816076Y-90689500D01*
X157787242Y-90695234D01*
X157787243Y-90695235D01*
X157671092Y-90718339D01*
X157671086Y-90718341D01*
X157606542Y-90745077D01*
X157606540Y-90745078D01*
X157562810Y-90763191D01*
X157493341Y-90770659D01*
X157430862Y-90739383D01*
X157427678Y-90736310D01*
X156915819Y-90224451D01*
X156882334Y-90163128D01*
X156879500Y-90136770D01*
X156879500Y-90098999D01*
X156899185Y-90031960D01*
X156951989Y-89986205D01*
X157003500Y-89974999D01*
X157230000Y-89974999D01*
X157730000Y-89974999D01*
X158179972Y-89974999D01*
X158179986Y-89974998D01*
X158282697Y-89964505D01*
X158449119Y-89909358D01*
X158449124Y-89909356D01*
X158598345Y-89817315D01*
X158722315Y-89693345D01*
X158814356Y-89544124D01*
X158814358Y-89544119D01*
X158869505Y-89377697D01*
X158869506Y-89377690D01*
X158879999Y-89274986D01*
X158880000Y-89274973D01*
X158880000Y-89150000D01*
X157730000Y-89150000D01*
X157730000Y-89974999D01*
X157230000Y-89974999D01*
X157230000Y-89024000D01*
X157249685Y-88956961D01*
X157302489Y-88911206D01*
X157354000Y-88900000D01*
X157480000Y-88900000D01*
X157480000Y-88774000D01*
X157499685Y-88706961D01*
X157552489Y-88661206D01*
X157604000Y-88650000D01*
X158879999Y-88650000D01*
X158879999Y-88525028D01*
X158879998Y-88525013D01*
X158869505Y-88422302D01*
X158814358Y-88255880D01*
X158814356Y-88255875D01*
X158722315Y-88106654D01*
X158598345Y-87982684D01*
X158449124Y-87890643D01*
X158449119Y-87890641D01*
X158282697Y-87835494D01*
X158282690Y-87835493D01*
X158179986Y-87825000D01*
X157942436Y-87825000D01*
X157875397Y-87805315D01*
X157829642Y-87752511D01*
X157819698Y-87683353D01*
X157848723Y-87619797D01*
X157854741Y-87613333D01*
X158321256Y-87146819D01*
X158382579Y-87113334D01*
X158408937Y-87110500D01*
X170820902Y-87110500D01*
X170887941Y-87130185D01*
G37*
%TD.AperFunction*%
%TA.AperFunction,Conductor*%
G36*
X206932898Y-84840185D02*
G01*
X206978653Y-84892989D01*
X206982030Y-84901140D01*
X206986204Y-84912331D01*
X206986205Y-84912332D01*
X206986206Y-84912335D01*
X207072452Y-85027544D01*
X207072455Y-85027547D01*
X207187664Y-85113793D01*
X207187671Y-85113797D01*
X207197034Y-85117289D01*
X207322517Y-85164091D01*
X207382127Y-85170500D01*
X207392685Y-85170499D01*
X207459723Y-85190179D01*
X207480372Y-85206818D01*
X208150591Y-85877037D01*
X208087007Y-85894075D01*
X207972993Y-85959901D01*
X207879901Y-86052993D01*
X207814075Y-86167007D01*
X207797037Y-86230591D01*
X207164728Y-85598282D01*
X207164727Y-85598282D01*
X207125380Y-85652439D01*
X207028904Y-85841782D01*
X206963242Y-86043869D01*
X206963242Y-86043872D01*
X206930000Y-86253753D01*
X206930000Y-86466246D01*
X206963242Y-86676127D01*
X206963242Y-86676130D01*
X207028904Y-86878217D01*
X207125375Y-87067550D01*
X207164728Y-87121716D01*
X207797037Y-86489408D01*
X207814075Y-86552993D01*
X207879901Y-86667007D01*
X207972993Y-86760099D01*
X208087007Y-86825925D01*
X208150590Y-86842962D01*
X207518282Y-87475269D01*
X207518282Y-87475270D01*
X207572452Y-87514626D01*
X207572451Y-87514626D01*
X207581495Y-87519234D01*
X207632292Y-87567208D01*
X207649087Y-87635029D01*
X207626550Y-87701164D01*
X207581499Y-87740202D01*
X207572182Y-87744949D01*
X207400213Y-87869890D01*
X207249890Y-88020213D01*
X207124951Y-88192179D01*
X207028444Y-88381585D01*
X206962753Y-88583760D01*
X206935518Y-88755713D01*
X206905589Y-88818848D01*
X206846277Y-88855779D01*
X206776414Y-88854781D01*
X206725364Y-88823996D01*
X204979421Y-87078052D01*
X204979420Y-87078051D01*
X204952428Y-87060016D01*
X204900148Y-87025084D01*
X204900147Y-87025083D01*
X204856501Y-86995919D01*
X204856488Y-86995912D01*
X204719917Y-86939343D01*
X204719907Y-86939340D01*
X204574920Y-86910500D01*
X204574918Y-86910500D01*
X202134500Y-86910500D01*
X202067461Y-86890815D01*
X202021706Y-86838011D01*
X202010500Y-86786500D01*
X202010499Y-86475781D01*
X202030183Y-86408742D01*
X202046813Y-86388105D01*
X203578102Y-84856819D01*
X203639425Y-84823334D01*
X203665783Y-84820500D01*
X206865859Y-84820500D01*
X206932898Y-84840185D01*
G37*
%TD.AperFunction*%
%TA.AperFunction,Conductor*%
G36*
X201792539Y-55349185D02*
G01*
X201838294Y-55401989D01*
X201849500Y-55453500D01*
X201849500Y-56777870D01*
X201849501Y-56777876D01*
X201855908Y-56837483D01*
X201906202Y-56972328D01*
X201906206Y-56972335D01*
X201992452Y-57087544D01*
X201992455Y-57087547D01*
X202107664Y-57173793D01*
X202107671Y-57173797D01*
X202152618Y-57190561D01*
X202242517Y-57224091D01*
X202302127Y-57230500D01*
X202312685Y-57230499D01*
X202379723Y-57250179D01*
X202400372Y-57266818D01*
X203070591Y-57937037D01*
X203007007Y-57954075D01*
X202892993Y-58019901D01*
X202799901Y-58112993D01*
X202734075Y-58227007D01*
X202717037Y-58290590D01*
X202084728Y-57658282D01*
X202084727Y-57658282D01*
X202045380Y-57712439D01*
X201948904Y-57901782D01*
X201883242Y-58103869D01*
X201883242Y-58103872D01*
X201850000Y-58313753D01*
X201850000Y-58526246D01*
X201883242Y-58736127D01*
X201883242Y-58736130D01*
X201948904Y-58938217D01*
X202045375Y-59127550D01*
X202084728Y-59181716D01*
X202717037Y-58549408D01*
X202734075Y-58612993D01*
X202799901Y-58727007D01*
X202892993Y-58820099D01*
X203007007Y-58885925D01*
X203070590Y-58902962D01*
X202438282Y-59535269D01*
X202438282Y-59535270D01*
X202492452Y-59574626D01*
X202492451Y-59574626D01*
X202501495Y-59579234D01*
X202552292Y-59627208D01*
X202569087Y-59695029D01*
X202546550Y-59761164D01*
X202501499Y-59800202D01*
X202492182Y-59804949D01*
X202320213Y-59929890D01*
X202169890Y-60080213D01*
X202044951Y-60252179D01*
X201948444Y-60441585D01*
X201882753Y-60643760D01*
X201849500Y-60853713D01*
X201849500Y-61066286D01*
X201882163Y-61272517D01*
X201882754Y-61276243D01*
X201900912Y-61332128D01*
X201948444Y-61478414D01*
X202044951Y-61667820D01*
X202169890Y-61839786D01*
X202320213Y-61990109D01*
X202492182Y-62115050D01*
X202500946Y-62119516D01*
X202551742Y-62167491D01*
X202568536Y-62235312D01*
X202545998Y-62301447D01*
X202500946Y-62340484D01*
X202492182Y-62344949D01*
X202320213Y-62469890D01*
X202169890Y-62620213D01*
X202044951Y-62792179D01*
X201948444Y-62981585D01*
X201882753Y-63183760D01*
X201864616Y-63298273D01*
X201849500Y-63393713D01*
X201849500Y-63606287D01*
X201882754Y-63816243D01*
X201945063Y-64008011D01*
X201948444Y-64018414D01*
X202044951Y-64207820D01*
X202169890Y-64379786D01*
X202320213Y-64530109D01*
X202492182Y-64655050D01*
X202500946Y-64659516D01*
X202551742Y-64707491D01*
X202568536Y-64775312D01*
X202545998Y-64841447D01*
X202500946Y-64880484D01*
X202492182Y-64884949D01*
X202320213Y-65009890D01*
X202169890Y-65160213D01*
X202044951Y-65332179D01*
X201948444Y-65521585D01*
X201948443Y-65521587D01*
X201948443Y-65521588D01*
X201925335Y-65592706D01*
X201882753Y-65723760D01*
X201881576Y-65731192D01*
X201849500Y-65933713D01*
X201849500Y-66146287D01*
X201882754Y-66356243D01*
X201925396Y-66487482D01*
X201948444Y-66558414D01*
X202044951Y-66747820D01*
X202169890Y-66919786D01*
X202320213Y-67070109D01*
X202492182Y-67195050D01*
X202500946Y-67199516D01*
X202551742Y-67247491D01*
X202568536Y-67315312D01*
X202545998Y-67381447D01*
X202500946Y-67420484D01*
X202492182Y-67424949D01*
X202320213Y-67549890D01*
X202169890Y-67700213D01*
X202044951Y-67872179D01*
X201948444Y-68061585D01*
X201882753Y-68263760D01*
X201849500Y-68473713D01*
X201849500Y-68686286D01*
X201881440Y-68887950D01*
X201882754Y-68896243D01*
X201923763Y-69022456D01*
X201948444Y-69098414D01*
X202044951Y-69287820D01*
X202169890Y-69459786D01*
X202320213Y-69610109D01*
X202492182Y-69735050D01*
X202500946Y-69739516D01*
X202551742Y-69787491D01*
X202568536Y-69855312D01*
X202545998Y-69921447D01*
X202500946Y-69960484D01*
X202492182Y-69964949D01*
X202320213Y-70089890D01*
X202169890Y-70240213D01*
X202044951Y-70412179D01*
X201948444Y-70601585D01*
X201948443Y-70601587D01*
X201948443Y-70601588D01*
X201941704Y-70622328D01*
X201882753Y-70803760D01*
X201849500Y-71013713D01*
X201849500Y-71226292D01*
X201864616Y-71321728D01*
X201855662Y-71391021D01*
X201829824Y-71428807D01*
X200094451Y-73164181D01*
X200033128Y-73197666D01*
X200006770Y-73200500D01*
X184700229Y-73200500D01*
X184633190Y-73180815D01*
X184587435Y-73128011D01*
X184577491Y-73058853D01*
X184606516Y-72995297D01*
X184612548Y-72988819D01*
X184641386Y-72959981D01*
X185111193Y-72490172D01*
X185172514Y-72456689D01*
X185218265Y-72455382D01*
X185313713Y-72470500D01*
X185313715Y-72470500D01*
X185526286Y-72470500D01*
X185526287Y-72470500D01*
X185736243Y-72437246D01*
X185938412Y-72371557D01*
X186127816Y-72275051D01*
X186284136Y-72161479D01*
X186299786Y-72150109D01*
X186299788Y-72150106D01*
X186299792Y-72150104D01*
X186450104Y-71999792D01*
X186450106Y-71999788D01*
X186450109Y-71999786D01*
X186575048Y-71827820D01*
X186575047Y-71827820D01*
X186575051Y-71827816D01*
X186671557Y-71638412D01*
X186737246Y-71436243D01*
X186770500Y-71226287D01*
X186770500Y-71013713D01*
X186737246Y-70803757D01*
X186671557Y-70601588D01*
X186575051Y-70412184D01*
X186575049Y-70412181D01*
X186575048Y-70412179D01*
X186450109Y-70240213D01*
X186299786Y-70089890D01*
X186127820Y-69964951D01*
X186127115Y-69964591D01*
X186119054Y-69960485D01*
X186068259Y-69912512D01*
X186051463Y-69844692D01*
X186073999Y-69778556D01*
X186119054Y-69739515D01*
X186127816Y-69735051D01*
X186149789Y-69719086D01*
X186299786Y-69610109D01*
X186299788Y-69610106D01*
X186299792Y-69610104D01*
X186450104Y-69459792D01*
X186450106Y-69459788D01*
X186450109Y-69459786D01*
X186575048Y-69287820D01*
X186575047Y-69287820D01*
X186575051Y-69287816D01*
X186671557Y-69098412D01*
X186737246Y-68896243D01*
X186770500Y-68686287D01*
X186770500Y-68473713D01*
X186737246Y-68263757D01*
X186671557Y-68061588D01*
X186575051Y-67872184D01*
X186575049Y-67872181D01*
X186575048Y-67872179D01*
X186450109Y-67700213D01*
X186299786Y-67549890D01*
X186127820Y-67424951D01*
X186127115Y-67424591D01*
X186119054Y-67420485D01*
X186068259Y-67372512D01*
X186051463Y-67304692D01*
X186073999Y-67238556D01*
X186119054Y-67199515D01*
X186127816Y-67195051D01*
X186149789Y-67179086D01*
X186299786Y-67070109D01*
X186299788Y-67070106D01*
X186299792Y-67070104D01*
X186450104Y-66919792D01*
X186450106Y-66919788D01*
X186450109Y-66919786D01*
X186575048Y-66747820D01*
X186575047Y-66747820D01*
X186575051Y-66747816D01*
X186671557Y-66558412D01*
X186737246Y-66356243D01*
X186770500Y-66146287D01*
X186770500Y-65933713D01*
X186737246Y-65723757D01*
X186671557Y-65521588D01*
X186575051Y-65332184D01*
X186575049Y-65332181D01*
X186575048Y-65332179D01*
X186450109Y-65160213D01*
X186299786Y-65009890D01*
X186127820Y-64884951D01*
X186119082Y-64880499D01*
X186119054Y-64880485D01*
X186068259Y-64832512D01*
X186051463Y-64764692D01*
X186073999Y-64698556D01*
X186119054Y-64659515D01*
X186127816Y-64655051D01*
X186172856Y-64622328D01*
X186299786Y-64530109D01*
X186299788Y-64530106D01*
X186299792Y-64530104D01*
X186450104Y-64379792D01*
X186450106Y-64379788D01*
X186450109Y-64379786D01*
X186575048Y-64207820D01*
X186575047Y-64207820D01*
X186575051Y-64207816D01*
X186671557Y-64018412D01*
X186737246Y-63816243D01*
X186770500Y-63606287D01*
X186770500Y-63393713D01*
X186737246Y-63183757D01*
X186671557Y-62981588D01*
X186575051Y-62792184D01*
X186575049Y-62792181D01*
X186575048Y-62792179D01*
X186450109Y-62620213D01*
X186299786Y-62469890D01*
X186127820Y-62344951D01*
X186127115Y-62344591D01*
X186119054Y-62340485D01*
X186068259Y-62292512D01*
X186051463Y-62224692D01*
X186073999Y-62158556D01*
X186119054Y-62119515D01*
X186127816Y-62115051D01*
X186202466Y-62060815D01*
X186299786Y-61990109D01*
X186299788Y-61990106D01*
X186299792Y-61990104D01*
X186450104Y-61839792D01*
X186450106Y-61839788D01*
X186450109Y-61839786D01*
X186575048Y-61667820D01*
X186575047Y-61667820D01*
X186575051Y-61667816D01*
X186671557Y-61478412D01*
X186737246Y-61276243D01*
X186770500Y-61066287D01*
X186770500Y-60853713D01*
X186737246Y-60643757D01*
X186671557Y-60441588D01*
X186575051Y-60252184D01*
X186575049Y-60252181D01*
X186575048Y-60252179D01*
X186450109Y-60080213D01*
X186299786Y-59929890D01*
X186127820Y-59804951D01*
X186127115Y-59804591D01*
X186119054Y-59800485D01*
X186068259Y-59752512D01*
X186051463Y-59684692D01*
X186073999Y-59618556D01*
X186119054Y-59579515D01*
X186127816Y-59575051D01*
X186214138Y-59512335D01*
X186299786Y-59450109D01*
X186299788Y-59450106D01*
X186299792Y-59450104D01*
X186450104Y-59299792D01*
X186450106Y-59299788D01*
X186450109Y-59299786D01*
X186575048Y-59127820D01*
X186575047Y-59127820D01*
X186575051Y-59127816D01*
X186671557Y-58938412D01*
X186737246Y-58736243D01*
X186770500Y-58526287D01*
X186770500Y-58313713D01*
X186755382Y-58218268D01*
X186764336Y-58148979D01*
X186790171Y-58111195D01*
X188517819Y-56383548D01*
X188579142Y-56350063D01*
X188648834Y-56355047D01*
X188704767Y-56396919D01*
X188729184Y-56462383D01*
X188729500Y-56471229D01*
X188729500Y-71185892D01*
X188740324Y-71226287D01*
X188763608Y-71313187D01*
X188796554Y-71370250D01*
X188829500Y-71427314D01*
X188922686Y-71520500D01*
X189036814Y-71586392D01*
X189164108Y-71620500D01*
X189164110Y-71620500D01*
X200725890Y-71620500D01*
X200725892Y-71620500D01*
X200853186Y-71586392D01*
X200967314Y-71520500D01*
X201060500Y-71427314D01*
X201126392Y-71313186D01*
X201160500Y-71185892D01*
X201160500Y-55814108D01*
X201126392Y-55686814D01*
X201060500Y-55572686D01*
X201028995Y-55541181D01*
X200995510Y-55479858D01*
X201000494Y-55410166D01*
X201042366Y-55354233D01*
X201107830Y-55329816D01*
X201116676Y-55329500D01*
X201725500Y-55329500D01*
X201792539Y-55349185D01*
G37*
%TD.AperFunction*%
%TA.AperFunction,Conductor*%
G36*
X210072539Y-55349185D02*
G01*
X210118294Y-55401989D01*
X210129500Y-55453500D01*
X210129500Y-56427870D01*
X210129501Y-56427876D01*
X210135908Y-56487483D01*
X210186202Y-56622328D01*
X210186206Y-56622335D01*
X210272452Y-56737544D01*
X210272453Y-56737544D01*
X210272454Y-56737546D01*
X210301615Y-56759376D01*
X210330145Y-56780734D01*
X210372015Y-56836668D01*
X210376999Y-56906360D01*
X210343513Y-56967683D01*
X210330145Y-56979266D01*
X210272452Y-57022455D01*
X210186206Y-57137664D01*
X210186202Y-57137671D01*
X210135908Y-57272517D01*
X210129980Y-57327664D01*
X210129501Y-57332123D01*
X210129500Y-57332135D01*
X210129500Y-58427870D01*
X210129501Y-58427876D01*
X210135908Y-58487483D01*
X210186202Y-58622328D01*
X210186206Y-58622335D01*
X210272452Y-58737544D01*
X210272453Y-58737544D01*
X210272454Y-58737546D01*
X210301615Y-58759376D01*
X210330145Y-58780734D01*
X210372015Y-58836668D01*
X210376999Y-58906360D01*
X210343513Y-58967683D01*
X210330145Y-58979266D01*
X210272452Y-59022455D01*
X210186206Y-59137664D01*
X210186202Y-59137671D01*
X210135908Y-59272517D01*
X210131032Y-59317876D01*
X210129500Y-59332127D01*
X210129500Y-59752512D01*
X210129501Y-60054500D01*
X210109817Y-60121539D01*
X210057013Y-60167294D01*
X210005501Y-60178500D01*
X205697080Y-60178500D01*
X205552092Y-60207340D01*
X205552082Y-60207343D01*
X205415508Y-60263913D01*
X205369110Y-60294916D01*
X205369109Y-60294915D01*
X205292589Y-60346044D01*
X205292581Y-60346050D01*
X204754635Y-60883996D01*
X204693312Y-60917481D01*
X204623620Y-60912497D01*
X204567687Y-60870625D01*
X204544481Y-60815713D01*
X204532100Y-60737546D01*
X204517246Y-60643757D01*
X204451557Y-60441588D01*
X204355051Y-60252184D01*
X204355049Y-60252181D01*
X204355048Y-60252179D01*
X204230109Y-60080213D01*
X204079786Y-59929890D01*
X203907817Y-59804949D01*
X203898504Y-59800204D01*
X203847707Y-59752230D01*
X203830912Y-59684409D01*
X203853449Y-59618274D01*
X203898507Y-59579232D01*
X203907555Y-59574622D01*
X203961716Y-59535270D01*
X203961717Y-59535270D01*
X203329408Y-58902962D01*
X203392993Y-58885925D01*
X203507007Y-58820099D01*
X203600099Y-58727007D01*
X203665925Y-58612993D01*
X203682962Y-58549408D01*
X204315270Y-59181717D01*
X204315270Y-59181716D01*
X204354622Y-59127554D01*
X204451095Y-58938217D01*
X204516757Y-58736130D01*
X204516757Y-58736127D01*
X204550000Y-58526246D01*
X204550000Y-58313753D01*
X204516757Y-58103872D01*
X204516757Y-58103869D01*
X204451095Y-57901782D01*
X204354624Y-57712449D01*
X204315270Y-57658282D01*
X204315269Y-57658282D01*
X203682962Y-58290590D01*
X203665925Y-58227007D01*
X203600099Y-58112993D01*
X203507007Y-58019901D01*
X203392993Y-57954075D01*
X203329409Y-57937037D01*
X203999627Y-57266818D01*
X204060950Y-57233333D01*
X204087307Y-57230499D01*
X204097872Y-57230499D01*
X204157483Y-57224091D01*
X204292331Y-57173796D01*
X204407546Y-57087546D01*
X204493796Y-56972331D01*
X204544091Y-56837483D01*
X204550500Y-56777873D01*
X204550499Y-55453499D01*
X204570184Y-55386461D01*
X204622987Y-55340706D01*
X204674499Y-55329500D01*
X210005500Y-55329500D01*
X210072539Y-55349185D01*
G37*
%TD.AperFunction*%
%TA.AperFunction,Conductor*%
G36*
X228682702Y-51300617D02*
G01*
X229066771Y-51317386D01*
X229077506Y-51318326D01*
X229455971Y-51368152D01*
X229466597Y-51370025D01*
X229839284Y-51452648D01*
X229849710Y-51455442D01*
X230213765Y-51570227D01*
X230223911Y-51573920D01*
X230576578Y-51720000D01*
X230586369Y-51724566D01*
X230924942Y-51900816D01*
X230934310Y-51906224D01*
X231256244Y-52111318D01*
X231265105Y-52117523D01*
X231567930Y-52349889D01*
X231576217Y-52356843D01*
X231857635Y-52614715D01*
X231865284Y-52622364D01*
X232123156Y-52903782D01*
X232130110Y-52912069D01*
X232362476Y-53214894D01*
X232368681Y-53223755D01*
X232573775Y-53545689D01*
X232579183Y-53555057D01*
X232755430Y-53893623D01*
X232760002Y-53903427D01*
X232906075Y-54256078D01*
X232909775Y-54266244D01*
X233024554Y-54630278D01*
X233027354Y-54640727D01*
X233109971Y-55013389D01*
X233111849Y-55024042D01*
X233161671Y-55402473D01*
X233162614Y-55413249D01*
X233179382Y-55797297D01*
X233179500Y-55802706D01*
X233179500Y-96597293D01*
X233179382Y-96602702D01*
X233162614Y-96986750D01*
X233161671Y-96997526D01*
X233111849Y-97375957D01*
X233109971Y-97386610D01*
X233027354Y-97759272D01*
X233024554Y-97769721D01*
X232909775Y-98133755D01*
X232906075Y-98143921D01*
X232760002Y-98496572D01*
X232755430Y-98506376D01*
X232579183Y-98844942D01*
X232573775Y-98854310D01*
X232368681Y-99176244D01*
X232362476Y-99185105D01*
X232130110Y-99487930D01*
X232123156Y-99496217D01*
X231865284Y-99777635D01*
X231857635Y-99785284D01*
X231576217Y-100043156D01*
X231567930Y-100050110D01*
X231265105Y-100282476D01*
X231256244Y-100288681D01*
X230934310Y-100493775D01*
X230924942Y-100499183D01*
X230586376Y-100675430D01*
X230576572Y-100680002D01*
X230223921Y-100826075D01*
X230213755Y-100829775D01*
X229849721Y-100944554D01*
X229839272Y-100947354D01*
X229466610Y-101029971D01*
X229455957Y-101031849D01*
X229077526Y-101081671D01*
X229066750Y-101082614D01*
X228682703Y-101099382D01*
X228677294Y-101099500D01*
X149782706Y-101099500D01*
X149777297Y-101099382D01*
X149393249Y-101082614D01*
X149382473Y-101081671D01*
X149004042Y-101031849D01*
X148993389Y-101029971D01*
X148620727Y-100947354D01*
X148610278Y-100944554D01*
X148246244Y-100829775D01*
X148236078Y-100826075D01*
X147883427Y-100680002D01*
X147873623Y-100675430D01*
X147535057Y-100499183D01*
X147525689Y-100493775D01*
X147203755Y-100288681D01*
X147194894Y-100282476D01*
X146892069Y-100050110D01*
X146883782Y-100043156D01*
X146602364Y-99785284D01*
X146594715Y-99777635D01*
X146336843Y-99496217D01*
X146329889Y-99487930D01*
X146097523Y-99185105D01*
X146091318Y-99176244D01*
X145886224Y-98854310D01*
X145880816Y-98844942D01*
X145723457Y-98542659D01*
X145704566Y-98506369D01*
X145699997Y-98496572D01*
X145695653Y-98486084D01*
X145553920Y-98143911D01*
X145550224Y-98133755D01*
X145473424Y-97890175D01*
X145435442Y-97769710D01*
X145432648Y-97759284D01*
X145350025Y-97386597D01*
X145348152Y-97375971D01*
X145298326Y-96997506D01*
X145297386Y-96986771D01*
X145280618Y-96602702D01*
X145280500Y-96597293D01*
X145280500Y-95622135D01*
X153589500Y-95622135D01*
X153589500Y-97417870D01*
X153589501Y-97417876D01*
X153595908Y-97477483D01*
X153646202Y-97612328D01*
X153646206Y-97612335D01*
X153732452Y-97727544D01*
X153732455Y-97727547D01*
X153847664Y-97813793D01*
X153847671Y-97813797D01*
X153982517Y-97864091D01*
X153982516Y-97864091D01*
X153989444Y-97864835D01*
X154042127Y-97870500D01*
X155837872Y-97870499D01*
X155897483Y-97864091D01*
X156032331Y-97813796D01*
X156147546Y-97727546D01*
X156233796Y-97612331D01*
X156282810Y-97480916D01*
X156324681Y-97424984D01*
X156390145Y-97400566D01*
X156458418Y-97415417D01*
X156486673Y-97436569D01*
X156600213Y-97550109D01*
X156772179Y-97675048D01*
X156772181Y-97675049D01*
X156772184Y-97675051D01*
X156961588Y-97771557D01*
X157163757Y-97837246D01*
X157373713Y-97870500D01*
X157373714Y-97870500D01*
X157586286Y-97870500D01*
X157586287Y-97870500D01*
X157796243Y-97837246D01*
X157998412Y-97771557D01*
X158187816Y-97675051D01*
X158274138Y-97612335D01*
X158359786Y-97550109D01*
X158359788Y-97550106D01*
X158359792Y-97550104D01*
X158510104Y-97399792D01*
X158510106Y-97399788D01*
X158510109Y-97399786D01*
X158635048Y-97227820D01*
X158635047Y-97227820D01*
X158635051Y-97227816D01*
X158639514Y-97219054D01*
X158687488Y-97168259D01*
X158755308Y-97151463D01*
X158821444Y-97173999D01*
X158860486Y-97219056D01*
X158864951Y-97227820D01*
X158989890Y-97399786D01*
X159140213Y-97550109D01*
X159312179Y-97675048D01*
X159312181Y-97675049D01*
X159312184Y-97675051D01*
X159501588Y-97771557D01*
X159703757Y-97837246D01*
X159913713Y-97870500D01*
X159913714Y-97870500D01*
X160126286Y-97870500D01*
X160126287Y-97870500D01*
X160336243Y-97837246D01*
X160538412Y-97771557D01*
X160727816Y-97675051D01*
X160814138Y-97612335D01*
X160899786Y-97550109D01*
X160899788Y-97550106D01*
X160899792Y-97550104D01*
X161050104Y-97399792D01*
X161050106Y-97399788D01*
X161050109Y-97399786D01*
X161135890Y-97281717D01*
X161175051Y-97227816D01*
X161179793Y-97218508D01*
X161227763Y-97167711D01*
X161295583Y-97150911D01*
X161361719Y-97173445D01*
X161400763Y-97218500D01*
X161405373Y-97227547D01*
X161444728Y-97281716D01*
X162077037Y-96649408D01*
X162094075Y-96712993D01*
X162159901Y-96827007D01*
X162252993Y-96920099D01*
X162367007Y-96985925D01*
X162430590Y-97002962D01*
X161798282Y-97635269D01*
X161798282Y-97635270D01*
X161852449Y-97674624D01*
X162041782Y-97771095D01*
X162243870Y-97836757D01*
X162453754Y-97870000D01*
X162666246Y-97870000D01*
X162876127Y-97836757D01*
X162876130Y-97836757D01*
X163078217Y-97771095D01*
X163267554Y-97674622D01*
X163321716Y-97635270D01*
X163321717Y-97635270D01*
X162689408Y-97002962D01*
X162752993Y-96985925D01*
X162867007Y-96920099D01*
X162960099Y-96827007D01*
X163025925Y-96712993D01*
X163042962Y-96649409D01*
X163675270Y-97281717D01*
X163675270Y-97281716D01*
X163714622Y-97227554D01*
X163811095Y-97038217D01*
X163876757Y-96836130D01*
X163876757Y-96836127D01*
X163910000Y-96626246D01*
X163910000Y-96413753D01*
X163876757Y-96203872D01*
X163876757Y-96203869D01*
X163811095Y-96001782D01*
X163714624Y-95812449D01*
X163675270Y-95758282D01*
X163675269Y-95758282D01*
X163042962Y-96390590D01*
X163025925Y-96327007D01*
X162960099Y-96212993D01*
X162867007Y-96119901D01*
X162752993Y-96054075D01*
X162689409Y-96037037D01*
X163321716Y-95404728D01*
X163267550Y-95365375D01*
X163078217Y-95268904D01*
X162876129Y-95203242D01*
X162666246Y-95170000D01*
X162453754Y-95170000D01*
X162243872Y-95203242D01*
X162243869Y-95203242D01*
X162041782Y-95268904D01*
X161852439Y-95365380D01*
X161798282Y-95404727D01*
X161798282Y-95404728D01*
X162430591Y-96037037D01*
X162367007Y-96054075D01*
X162252993Y-96119901D01*
X162159901Y-96212993D01*
X162094075Y-96327007D01*
X162077037Y-96390591D01*
X161444728Y-95758282D01*
X161444727Y-95758282D01*
X161405380Y-95812440D01*
X161405376Y-95812446D01*
X161400760Y-95821505D01*
X161352781Y-95872297D01*
X161284959Y-95889087D01*
X161218826Y-95866543D01*
X161179794Y-95821493D01*
X161175051Y-95812184D01*
X161175049Y-95812181D01*
X161175048Y-95812179D01*
X161050109Y-95640213D01*
X160899786Y-95489890D01*
X160727820Y-95364951D01*
X160538414Y-95268444D01*
X160538413Y-95268443D01*
X160538412Y-95268443D01*
X160336243Y-95202754D01*
X160336241Y-95202753D01*
X160336240Y-95202753D01*
X160174957Y-95177208D01*
X160126287Y-95169500D01*
X159913713Y-95169500D01*
X159865042Y-95177208D01*
X159703760Y-95202753D01*
X159501585Y-95268444D01*
X159312179Y-95364951D01*
X159140213Y-95489890D01*
X158989890Y-95640213D01*
X158864949Y-95812182D01*
X158860484Y-95820946D01*
X158812509Y-95871742D01*
X158744688Y-95888536D01*
X158678553Y-95865998D01*
X158639516Y-95820946D01*
X158635050Y-95812182D01*
X158510109Y-95640213D01*
X158359786Y-95489890D01*
X158187820Y-95364951D01*
X157998414Y-95268444D01*
X157998413Y-95268443D01*
X157998412Y-95268443D01*
X157796243Y-95202754D01*
X157796241Y-95202753D01*
X157796240Y-95202753D01*
X157634957Y-95177208D01*
X157586287Y-95169500D01*
X157373713Y-95169500D01*
X157325042Y-95177208D01*
X157163760Y-95202753D01*
X156961585Y-95268444D01*
X156772179Y-95364951D01*
X156600215Y-95489889D01*
X156486673Y-95603431D01*
X156425350Y-95636915D01*
X156355658Y-95631931D01*
X156299725Y-95590059D01*
X156282810Y-95559082D01*
X156233797Y-95427671D01*
X156233793Y-95427664D01*
X156147547Y-95312455D01*
X156147544Y-95312452D01*
X156032335Y-95226206D01*
X156032332Y-95226205D01*
X156032331Y-95226204D01*
X156021161Y-95222038D01*
X155965231Y-95180166D01*
X155940816Y-95114701D01*
X155940500Y-95105858D01*
X155940500Y-94855782D01*
X155960185Y-94788743D01*
X155976819Y-94768101D01*
X157783102Y-92961818D01*
X157844425Y-92928333D01*
X157870783Y-92925499D01*
X158180002Y-92925499D01*
X158180008Y-92925499D01*
X158282797Y-92914999D01*
X158449334Y-92859814D01*
X158598656Y-92767712D01*
X158722712Y-92643656D01*
X158814814Y-92494334D01*
X158869999Y-92327797D01*
X158872645Y-92301897D01*
X158899041Y-92237206D01*
X158956222Y-92197054D01*
X158996003Y-92190500D01*
X160690269Y-92190500D01*
X160690286Y-92190499D01*
X160832872Y-92190499D01*
X160892483Y-92184091D01*
X160909846Y-92177614D01*
X160928450Y-92176523D01*
X160945059Y-92180359D01*
X160962063Y-92179142D01*
X160975655Y-92183132D01*
X160977627Y-92183598D01*
X161037155Y-92189999D01*
X161037172Y-92190000D01*
X161085000Y-92190000D01*
X161085000Y-92152694D01*
X161104685Y-92085655D01*
X161117974Y-92068490D01*
X161125643Y-92060199D01*
X161142546Y-92047546D01*
X161164597Y-92018089D01*
X161168974Y-92013358D01*
X161193651Y-91998608D01*
X161216666Y-91981380D01*
X161223267Y-91980907D01*
X161228948Y-91977513D01*
X161257683Y-91978446D01*
X161286358Y-91976396D01*
X161292165Y-91979567D01*
X161298781Y-91979782D01*
X161322452Y-91996105D01*
X161347681Y-92009881D01*
X161355476Y-92018877D01*
X161356301Y-92019446D01*
X161356610Y-92020185D01*
X161359267Y-92023252D01*
X161377451Y-92047544D01*
X161377454Y-92047546D01*
X161385308Y-92053425D01*
X161427180Y-92109356D01*
X161435000Y-92152694D01*
X161435000Y-92190000D01*
X161482828Y-92190000D01*
X161482844Y-92189999D01*
X161542375Y-92183598D01*
X161549926Y-92181814D01*
X161550315Y-92183462D01*
X161610624Y-92179140D01*
X161627387Y-92184060D01*
X161627511Y-92184088D01*
X161627517Y-92184091D01*
X161687127Y-92190500D01*
X162132872Y-92190499D01*
X162192483Y-92184091D01*
X162192489Y-92184088D01*
X162200025Y-92182308D01*
X162200321Y-92183561D01*
X162262063Y-92179142D01*
X162275655Y-92183132D01*
X162277627Y-92183598D01*
X162337155Y-92189999D01*
X162337172Y-92190000D01*
X162385000Y-92190000D01*
X162385000Y-92152694D01*
X162404685Y-92085655D01*
X162413468Y-92073639D01*
X162422874Y-92062272D01*
X162442546Y-92047546D01*
X162513544Y-91952704D01*
X162515468Y-91950380D01*
X162542021Y-91932450D01*
X162567667Y-91913253D01*
X162570783Y-91913030D01*
X162573374Y-91911281D01*
X162605404Y-91910554D01*
X162637359Y-91908269D01*
X162640102Y-91909766D01*
X162643226Y-91909696D01*
X162670561Y-91926399D01*
X162698682Y-91941754D01*
X162700179Y-91944496D01*
X162702846Y-91946126D01*
X162716815Y-91974965D01*
X162732166Y-92003078D01*
X162732660Y-92007673D01*
X162733306Y-92009007D01*
X162733040Y-92011208D01*
X162735000Y-92029435D01*
X162735000Y-92190000D01*
X162782828Y-92190000D01*
X162782844Y-92189999D01*
X162842372Y-92183598D01*
X162842379Y-92183596D01*
X162977086Y-92133354D01*
X162977093Y-92133350D01*
X163092187Y-92047190D01*
X163092190Y-92047187D01*
X163178350Y-91932093D01*
X163178354Y-91932086D01*
X163228596Y-91797379D01*
X163228598Y-91797372D01*
X163234999Y-91737844D01*
X163235000Y-91737827D01*
X163235000Y-91615000D01*
X162709499Y-91615000D01*
X162700813Y-91612449D01*
X162691852Y-91613738D01*
X162667811Y-91602759D01*
X162642460Y-91595315D01*
X162636532Y-91588474D01*
X162628296Y-91584713D01*
X162614006Y-91562478D01*
X162596705Y-91542511D01*
X162594417Y-91531996D01*
X162590522Y-91525935D01*
X162585499Y-91491003D01*
X162585499Y-91388998D01*
X162605184Y-91321961D01*
X162657988Y-91276206D01*
X162709499Y-91265000D01*
X163235000Y-91265000D01*
X163252251Y-91247748D01*
X163254685Y-91239461D01*
X163261525Y-91233533D01*
X163265287Y-91225297D01*
X163287521Y-91211007D01*
X163307489Y-91193706D01*
X163318003Y-91191418D01*
X163324065Y-91187523D01*
X163359000Y-91182500D01*
X163601143Y-91182500D01*
X163668182Y-91202185D01*
X163713937Y-91254989D01*
X163723881Y-91324147D01*
X163718848Y-91345505D01*
X163710002Y-91372199D01*
X163710000Y-91372204D01*
X163699500Y-91474983D01*
X163699500Y-92225001D01*
X163699501Y-92225019D01*
X163710000Y-92327796D01*
X163710001Y-92327799D01*
X163740663Y-92420330D01*
X163765186Y-92494334D01*
X163857288Y-92643656D01*
X163981344Y-92767712D01*
X164130666Y-92859814D01*
X164297203Y-92914999D01*
X164399991Y-92925500D01*
X164709217Y-92925499D01*
X164776256Y-92945183D01*
X164796898Y-92961818D01*
X166449735Y-94614655D01*
X166449764Y-94614686D01*
X166592214Y-94757136D01*
X166592218Y-94757139D01*
X166756079Y-94866628D01*
X166756092Y-94866635D01*
X166884833Y-94919961D01*
X166927744Y-94937735D01*
X166938164Y-94942051D01*
X167034812Y-94961275D01*
X167083135Y-94970887D01*
X167131458Y-94980500D01*
X167131459Y-94980500D01*
X167131460Y-94980500D01*
X167328540Y-94980500D01*
X174299800Y-94980500D01*
X174366839Y-95000185D01*
X174379365Y-95009493D01*
X174552179Y-95135048D01*
X174552181Y-95135049D01*
X174552184Y-95135051D01*
X174561493Y-95139794D01*
X174612290Y-95187766D01*
X174629087Y-95255587D01*
X174606552Y-95321722D01*
X174561505Y-95360760D01*
X174552446Y-95365376D01*
X174552440Y-95365380D01*
X174498282Y-95404727D01*
X174498282Y-95404728D01*
X175130591Y-96037037D01*
X175067007Y-96054075D01*
X174952993Y-96119901D01*
X174859901Y-96212993D01*
X174794075Y-96327007D01*
X174777037Y-96390591D01*
X174144728Y-95758282D01*
X174144727Y-95758282D01*
X174105380Y-95812439D01*
X174008904Y-96001782D01*
X173943242Y-96203869D01*
X173943242Y-96203872D01*
X173910000Y-96413753D01*
X173910000Y-96626246D01*
X173943242Y-96836127D01*
X173943242Y-96836130D01*
X174008904Y-97038217D01*
X174105375Y-97227550D01*
X174144728Y-97281716D01*
X174777037Y-96649408D01*
X174794075Y-96712993D01*
X174859901Y-96827007D01*
X174952993Y-96920099D01*
X175067007Y-96985925D01*
X175130590Y-97002962D01*
X174498282Y-97635269D01*
X174498282Y-97635270D01*
X174552449Y-97674624D01*
X174741782Y-97771095D01*
X174943870Y-97836757D01*
X175153754Y-97870000D01*
X175366246Y-97870000D01*
X175576127Y-97836757D01*
X175576130Y-97836757D01*
X175778217Y-97771095D01*
X175967554Y-97674622D01*
X176021716Y-97635270D01*
X176021717Y-97635270D01*
X175389408Y-97002962D01*
X175452993Y-96985925D01*
X175567007Y-96920099D01*
X175660099Y-96827007D01*
X175725925Y-96712993D01*
X175742962Y-96649408D01*
X176375270Y-97281717D01*
X176375270Y-97281716D01*
X176414622Y-97227554D01*
X176511095Y-97038217D01*
X176576757Y-96836130D01*
X176576757Y-96836127D01*
X176610000Y-96626246D01*
X176610000Y-96413753D01*
X176576757Y-96203872D01*
X176576757Y-96203869D01*
X176511095Y-96001782D01*
X176414623Y-95812446D01*
X176360379Y-95737785D01*
X176336900Y-95671978D01*
X176352726Y-95603924D01*
X176402832Y-95555230D01*
X176460698Y-95540900D01*
X181678684Y-95540900D01*
X181745723Y-95560585D01*
X181791478Y-95613389D01*
X181801422Y-95682547D01*
X181779002Y-95737785D01*
X181724951Y-95812180D01*
X181628444Y-96001585D01*
X181562753Y-96203760D01*
X181529500Y-96413713D01*
X181529500Y-96626286D01*
X181562735Y-96836127D01*
X181562754Y-96836243D01*
X181628262Y-97037856D01*
X181628444Y-97038414D01*
X181724951Y-97227820D01*
X181849890Y-97399786D01*
X182000213Y-97550109D01*
X182172179Y-97675048D01*
X182172181Y-97675049D01*
X182172184Y-97675051D01*
X182361588Y-97771557D01*
X182563757Y-97837246D01*
X182773713Y-97870500D01*
X182773714Y-97870500D01*
X182986286Y-97870500D01*
X182986287Y-97870500D01*
X183196243Y-97837246D01*
X183398412Y-97771557D01*
X183587816Y-97675051D01*
X183674138Y-97612335D01*
X183759786Y-97550109D01*
X183759788Y-97550106D01*
X183759792Y-97550104D01*
X183910104Y-97399792D01*
X183910106Y-97399788D01*
X183910109Y-97399786D01*
X184035048Y-97227820D01*
X184035047Y-97227820D01*
X184035051Y-97227816D01*
X184039514Y-97219054D01*
X184087488Y-97168259D01*
X184155308Y-97151463D01*
X184221444Y-97173999D01*
X184260486Y-97219056D01*
X184264951Y-97227820D01*
X184389890Y-97399786D01*
X184540213Y-97550109D01*
X184712179Y-97675048D01*
X184712181Y-97675049D01*
X184712184Y-97675051D01*
X184901588Y-97771557D01*
X185103757Y-97837246D01*
X185313713Y-97870500D01*
X185313714Y-97870500D01*
X185526286Y-97870500D01*
X185526287Y-97870500D01*
X185736243Y-97837246D01*
X185938412Y-97771557D01*
X186127816Y-97675051D01*
X186214138Y-97612335D01*
X186299786Y-97550109D01*
X186299788Y-97550106D01*
X186299792Y-97550104D01*
X186450104Y-97399792D01*
X186450106Y-97399788D01*
X186450109Y-97399786D01*
X186575048Y-97227820D01*
X186575047Y-97227820D01*
X186575051Y-97227816D01*
X186579514Y-97219054D01*
X186627488Y-97168259D01*
X186695308Y-97151463D01*
X186761444Y-97173999D01*
X186800486Y-97219056D01*
X186804951Y-97227820D01*
X186929890Y-97399786D01*
X187080213Y-97550109D01*
X187252179Y-97675048D01*
X187252181Y-97675049D01*
X187252184Y-97675051D01*
X187441588Y-97771557D01*
X187643757Y-97837246D01*
X187853713Y-97870500D01*
X187853714Y-97870500D01*
X188066286Y-97870500D01*
X188066287Y-97870500D01*
X188276243Y-97837246D01*
X188478412Y-97771557D01*
X188667816Y-97675051D01*
X188754138Y-97612335D01*
X188839786Y-97550109D01*
X188839788Y-97550106D01*
X188839792Y-97550104D01*
X188990104Y-97399792D01*
X188990106Y-97399788D01*
X188990109Y-97399786D01*
X189115048Y-97227820D01*
X189115047Y-97227820D01*
X189115051Y-97227816D01*
X189119514Y-97219054D01*
X189167488Y-97168259D01*
X189235308Y-97151463D01*
X189301444Y-97173999D01*
X189340486Y-97219056D01*
X189344951Y-97227820D01*
X189469890Y-97399786D01*
X189620213Y-97550109D01*
X189792179Y-97675048D01*
X189792181Y-97675049D01*
X189792184Y-97675051D01*
X189981588Y-97771557D01*
X190183757Y-97837246D01*
X190393713Y-97870500D01*
X190393714Y-97870500D01*
X190606286Y-97870500D01*
X190606287Y-97870500D01*
X190816243Y-97837246D01*
X191018412Y-97771557D01*
X191207816Y-97675051D01*
X191294138Y-97612335D01*
X191379786Y-97550109D01*
X191379788Y-97550106D01*
X191379792Y-97550104D01*
X191530104Y-97399792D01*
X191530106Y-97399788D01*
X191530109Y-97399786D01*
X191655048Y-97227820D01*
X191655047Y-97227820D01*
X191655051Y-97227816D01*
X191659514Y-97219054D01*
X191707488Y-97168259D01*
X191775308Y-97151463D01*
X191841444Y-97173999D01*
X191880486Y-97219056D01*
X191884951Y-97227820D01*
X192009890Y-97399786D01*
X192160213Y-97550109D01*
X192332179Y-97675048D01*
X192332181Y-97675049D01*
X192332184Y-97675051D01*
X192521588Y-97771557D01*
X192723757Y-97837246D01*
X192933713Y-97870500D01*
X192933714Y-97870500D01*
X193146286Y-97870500D01*
X193146287Y-97870500D01*
X193356243Y-97837246D01*
X193558412Y-97771557D01*
X193747816Y-97675051D01*
X193834138Y-97612335D01*
X193919786Y-97550109D01*
X193919788Y-97550106D01*
X193919792Y-97550104D01*
X194070104Y-97399792D01*
X194070106Y-97399788D01*
X194070109Y-97399786D01*
X194195048Y-97227820D01*
X194195047Y-97227820D01*
X194195051Y-97227816D01*
X194199514Y-97219054D01*
X194247488Y-97168259D01*
X194315308Y-97151463D01*
X194381444Y-97173999D01*
X194420486Y-97219056D01*
X194424951Y-97227820D01*
X194549890Y-97399786D01*
X194700213Y-97550109D01*
X194872179Y-97675048D01*
X194872181Y-97675049D01*
X194872184Y-97675051D01*
X195061588Y-97771557D01*
X195263757Y-97837246D01*
X195473713Y-97870500D01*
X195473714Y-97870500D01*
X195686286Y-97870500D01*
X195686287Y-97870500D01*
X195781728Y-97855383D01*
X195851021Y-97864337D01*
X195888807Y-97890175D01*
X196402586Y-98403954D01*
X196432058Y-98423645D01*
X196476270Y-98453186D01*
X196525505Y-98486084D01*
X196525506Y-98486084D01*
X196525507Y-98486085D01*
X196525509Y-98486086D01*
X196574494Y-98506376D01*
X196662087Y-98542658D01*
X196662091Y-98542658D01*
X196662092Y-98542659D01*
X196807079Y-98571500D01*
X196807082Y-98571500D01*
X208892812Y-98571500D01*
X208990354Y-98552096D01*
X209037805Y-98542658D01*
X209174387Y-98486084D01*
X209223621Y-98453186D01*
X209223626Y-98453183D01*
X209247963Y-98436921D01*
X209297308Y-98403952D01*
X210163951Y-97537308D01*
X210246084Y-97414387D01*
X210302658Y-97277805D01*
X210310566Y-97238049D01*
X210327790Y-97151463D01*
X210331500Y-97132812D01*
X210331500Y-90127079D01*
X210302659Y-89982092D01*
X210302658Y-89982091D01*
X210302658Y-89982087D01*
X210261239Y-89882093D01*
X210246086Y-89845509D01*
X210246085Y-89845507D01*
X210213186Y-89796270D01*
X210213185Y-89796268D01*
X210163956Y-89722589D01*
X210163952Y-89722584D01*
X209650175Y-89208807D01*
X209616690Y-89147484D01*
X209615383Y-89101728D01*
X209626389Y-89032243D01*
X209630500Y-89006287D01*
X209630500Y-88793713D01*
X209597246Y-88583757D01*
X209531557Y-88381588D01*
X209435051Y-88192184D01*
X209435049Y-88192181D01*
X209435048Y-88192179D01*
X209310109Y-88020213D01*
X209159786Y-87869890D01*
X208987817Y-87744949D01*
X208978504Y-87740204D01*
X208927707Y-87692230D01*
X208910912Y-87624409D01*
X208933449Y-87558274D01*
X208978507Y-87519232D01*
X208987555Y-87514622D01*
X209041716Y-87475270D01*
X209041717Y-87475270D01*
X208409408Y-86842962D01*
X208472993Y-86825925D01*
X208587007Y-86760099D01*
X208680099Y-86667007D01*
X208745925Y-86552993D01*
X208762962Y-86489408D01*
X209395270Y-87121717D01*
X209395270Y-87121716D01*
X209434622Y-87067554D01*
X209531095Y-86878217D01*
X209596757Y-86676130D01*
X209596757Y-86676127D01*
X209630000Y-86466246D01*
X209630000Y-86253753D01*
X209596757Y-86043872D01*
X209596757Y-86043869D01*
X209531095Y-85841782D01*
X209434624Y-85652449D01*
X209395270Y-85598282D01*
X209395269Y-85598282D01*
X208762962Y-86230590D01*
X208745925Y-86167007D01*
X208680099Y-86052993D01*
X208587007Y-85959901D01*
X208472993Y-85894075D01*
X208409409Y-85877037D01*
X209079627Y-85206818D01*
X209140950Y-85173333D01*
X209167307Y-85170499D01*
X209177872Y-85170499D01*
X209237483Y-85164091D01*
X209372331Y-85113796D01*
X209487546Y-85027546D01*
X209573796Y-84912331D01*
X209624091Y-84777483D01*
X209630500Y-84717873D01*
X209630499Y-82922128D01*
X209624091Y-82862517D01*
X209622387Y-82857949D01*
X209573797Y-82727671D01*
X209573793Y-82727664D01*
X209487547Y-82612455D01*
X209487544Y-82612452D01*
X209372335Y-82526206D01*
X209372328Y-82526202D01*
X209237482Y-82475908D01*
X209237483Y-82475908D01*
X209177883Y-82469501D01*
X209177881Y-82469500D01*
X209177873Y-82469500D01*
X209177864Y-82469500D01*
X207382129Y-82469500D01*
X207382123Y-82469501D01*
X207322516Y-82475908D01*
X207187671Y-82526202D01*
X207187664Y-82526206D01*
X207072455Y-82612452D01*
X207072452Y-82612455D01*
X206986206Y-82727664D01*
X206986204Y-82727668D01*
X206986204Y-82727669D01*
X206982039Y-82738834D01*
X206940171Y-82794766D01*
X206874707Y-82819184D01*
X206865859Y-82819500D01*
X203101456Y-82819500D01*
X202908171Y-82857946D01*
X202908167Y-82857948D01*
X202908165Y-82857948D01*
X202908164Y-82857949D01*
X202897136Y-82862517D01*
X202832743Y-82889189D01*
X202726085Y-82933368D01*
X202726085Y-82933369D01*
X202726084Y-82933369D01*
X202562222Y-83042857D01*
X202562214Y-83042863D01*
X200631897Y-84973181D01*
X200570574Y-85006666D01*
X200544216Y-85009500D01*
X199762129Y-85009500D01*
X199762123Y-85009501D01*
X199702516Y-85015908D01*
X199567671Y-85066202D01*
X199567664Y-85066206D01*
X199452455Y-85152452D01*
X199452452Y-85152455D01*
X199366206Y-85267664D01*
X199366203Y-85267669D01*
X199317189Y-85399083D01*
X199275317Y-85455016D01*
X199209853Y-85479433D01*
X199141580Y-85464581D01*
X199113326Y-85443430D01*
X198999786Y-85329890D01*
X198827820Y-85204951D01*
X198638414Y-85108444D01*
X198638413Y-85108443D01*
X198638412Y-85108443D01*
X198436243Y-85042754D01*
X198436241Y-85042753D01*
X198436240Y-85042753D01*
X198267042Y-85015955D01*
X198226287Y-85009500D01*
X198013713Y-85009500D01*
X197972958Y-85015955D01*
X197803760Y-85042753D01*
X197601585Y-85108444D01*
X197412179Y-85204951D01*
X197240213Y-85329890D01*
X197089890Y-85480213D01*
X196964949Y-85652182D01*
X196960484Y-85660946D01*
X196912509Y-85711742D01*
X196844688Y-85728536D01*
X196778553Y-85705998D01*
X196739516Y-85660946D01*
X196735050Y-85652182D01*
X196610109Y-85480213D01*
X196459786Y-85329890D01*
X196287820Y-85204951D01*
X196098414Y-85108444D01*
X196098413Y-85108443D01*
X196098412Y-85108443D01*
X195896243Y-85042754D01*
X195896241Y-85042753D01*
X195896240Y-85042753D01*
X195727042Y-85015955D01*
X195686287Y-85009500D01*
X195473713Y-85009500D01*
X195473708Y-85009500D01*
X195378270Y-85024616D01*
X195308977Y-85015662D01*
X195271191Y-84989824D01*
X190763821Y-80482452D01*
X190763819Y-80482450D01*
X190763812Y-80482445D01*
X190690129Y-80433213D01*
X190640895Y-80400316D01*
X190640896Y-80400316D01*
X190640891Y-80400313D01*
X190597005Y-80382135D01*
X196769500Y-80382135D01*
X196769500Y-82177870D01*
X196769501Y-82177876D01*
X196775908Y-82237483D01*
X196826202Y-82372328D01*
X196826206Y-82372335D01*
X196912452Y-82487544D01*
X196912455Y-82487547D01*
X197027664Y-82573793D01*
X197027671Y-82573797D01*
X197162517Y-82624091D01*
X197162516Y-82624091D01*
X197169444Y-82624835D01*
X197222127Y-82630500D01*
X199017872Y-82630499D01*
X199077483Y-82624091D01*
X199212331Y-82573796D01*
X199327546Y-82487546D01*
X199413796Y-82372331D01*
X199464091Y-82237483D01*
X199470500Y-82177873D01*
X199470499Y-82153979D01*
X199473330Y-82140963D01*
X199483940Y-82121525D01*
X199490179Y-82100275D01*
X199506803Y-82079643D01*
X199506808Y-82079636D01*
X199506811Y-82079634D01*
X199506818Y-82079626D01*
X200177037Y-81409408D01*
X200194075Y-81472993D01*
X200259901Y-81587007D01*
X200352993Y-81680099D01*
X200467007Y-81745925D01*
X200530590Y-81762962D01*
X199898282Y-82395269D01*
X199898282Y-82395270D01*
X199952449Y-82434624D01*
X200141782Y-82531095D01*
X200343870Y-82596757D01*
X200553754Y-82630000D01*
X200766246Y-82630000D01*
X200976127Y-82596757D01*
X200976130Y-82596757D01*
X201178217Y-82531095D01*
X201367554Y-82434622D01*
X201421716Y-82395270D01*
X201421717Y-82395270D01*
X200789408Y-81762962D01*
X200852993Y-81745925D01*
X200967007Y-81680099D01*
X201060099Y-81587007D01*
X201125925Y-81472993D01*
X201142962Y-81409409D01*
X201775270Y-82041717D01*
X201775270Y-82041716D01*
X201814622Y-81987554D01*
X201911095Y-81798217D01*
X201976757Y-81596130D01*
X201976757Y-81596127D01*
X202010000Y-81386246D01*
X202010000Y-81173753D01*
X201976757Y-80963872D01*
X201976757Y-80963869D01*
X201911095Y-80761782D01*
X201814624Y-80572449D01*
X201775270Y-80518282D01*
X201775269Y-80518282D01*
X201142962Y-81150590D01*
X201125925Y-81087007D01*
X201060099Y-80972993D01*
X200967007Y-80879901D01*
X200852993Y-80814075D01*
X200789409Y-80797037D01*
X201421716Y-80164728D01*
X201367550Y-80125375D01*
X201178217Y-80028904D01*
X201097211Y-80002584D01*
X200976129Y-79963242D01*
X200766246Y-79930000D01*
X200553754Y-79930000D01*
X200343872Y-79963242D01*
X200343869Y-79963242D01*
X200141782Y-80028904D01*
X199952439Y-80125380D01*
X199898282Y-80164727D01*
X199898282Y-80164728D01*
X200530591Y-80797037D01*
X200467007Y-80814075D01*
X200352993Y-80879901D01*
X200259901Y-80972993D01*
X200194075Y-81087007D01*
X200177037Y-81150591D01*
X199506818Y-80480372D01*
X199473333Y-80419049D01*
X199473330Y-80419036D01*
X199470499Y-80406015D01*
X199470499Y-80382128D01*
X199464091Y-80322517D01*
X199435926Y-80247002D01*
X199413798Y-80187673D01*
X199413793Y-80187664D01*
X199327547Y-80072455D01*
X199327544Y-80072452D01*
X199212335Y-79986206D01*
X199212328Y-79986202D01*
X199077482Y-79935908D01*
X199077483Y-79935908D01*
X199017883Y-79929501D01*
X199017881Y-79929500D01*
X199017873Y-79929500D01*
X199017864Y-79929500D01*
X197222129Y-79929500D01*
X197222123Y-79929501D01*
X197162516Y-79935908D01*
X197027671Y-79986202D01*
X197027664Y-79986206D01*
X196912455Y-80072452D01*
X196912452Y-80072455D01*
X196826206Y-80187664D01*
X196826202Y-80187671D01*
X196775908Y-80322517D01*
X196769501Y-80382116D01*
X196769500Y-80382135D01*
X190597005Y-80382135D01*
X190504317Y-80343743D01*
X190504307Y-80343740D01*
X190359320Y-80314900D01*
X190359318Y-80314900D01*
X184423604Y-80314900D01*
X184376155Y-80305462D01*
X184352497Y-80295663D01*
X184352493Y-80295662D01*
X184352488Y-80295660D01*
X184197845Y-80264900D01*
X184197842Y-80264900D01*
X184040158Y-80264900D01*
X184040155Y-80264900D01*
X183885510Y-80295661D01*
X183885498Y-80295664D01*
X183739827Y-80356002D01*
X183739814Y-80356009D01*
X183608711Y-80443610D01*
X183608707Y-80443613D01*
X183497213Y-80555107D01*
X183497210Y-80555111D01*
X183450919Y-80624391D01*
X183397307Y-80669196D01*
X183347817Y-80679500D01*
X178464700Y-80679500D01*
X178421367Y-80671682D01*
X178412551Y-80668394D01*
X178392485Y-80660909D01*
X178382548Y-80659840D01*
X178332873Y-80654500D01*
X178332863Y-80654500D01*
X177687129Y-80654500D01*
X177687123Y-80654501D01*
X177627518Y-80660908D01*
X177608547Y-80667984D01*
X177598632Y-80671682D01*
X177555300Y-80679500D01*
X177428940Y-80679500D01*
X177388019Y-80690464D01*
X177388019Y-80690465D01*
X177350751Y-80700451D01*
X177276214Y-80720423D01*
X177276209Y-80720426D01*
X177139290Y-80799475D01*
X177139282Y-80799481D01*
X177137181Y-80801583D01*
X177134971Y-80802789D01*
X177132839Y-80804426D01*
X177132583Y-80804093D01*
X177075858Y-80835068D01*
X177006166Y-80830084D01*
X176950233Y-80788212D01*
X176925816Y-80722748D01*
X176925500Y-80713902D01*
X176925500Y-80171057D01*
X176945185Y-80104018D01*
X176984401Y-80065520D01*
X177118656Y-79982712D01*
X177242712Y-79858656D01*
X177334814Y-79709334D01*
X177389999Y-79542797D01*
X177400500Y-79440009D01*
X177400500Y-79439986D01*
X178200001Y-79439986D01*
X178210494Y-79542697D01*
X178265641Y-79709119D01*
X178265643Y-79709124D01*
X178357684Y-79858345D01*
X178481654Y-79982315D01*
X178630875Y-80074356D01*
X178630880Y-80074358D01*
X178797302Y-80129505D01*
X178797309Y-80129506D01*
X178900019Y-80139999D01*
X179024999Y-80139999D01*
X179525000Y-80139999D01*
X179649972Y-80139999D01*
X179649986Y-80139998D01*
X179752697Y-80129505D01*
X179919119Y-80074358D01*
X179919124Y-80074356D01*
X180068345Y-79982315D01*
X180161949Y-79888711D01*
X226749500Y-79888711D01*
X226749500Y-80131288D01*
X226781161Y-80371785D01*
X226843947Y-80606104D01*
X226936773Y-80830205D01*
X226936777Y-80830214D01*
X226958974Y-80868661D01*
X227058064Y-81040289D01*
X227058066Y-81040292D01*
X227058067Y-81040293D01*
X227205733Y-81232736D01*
X227205739Y-81232743D01*
X227377256Y-81404260D01*
X227377262Y-81404265D01*
X227569711Y-81551936D01*
X227779788Y-81673224D01*
X228003900Y-81766054D01*
X228238211Y-81828838D01*
X228415810Y-81852219D01*
X228478711Y-81860500D01*
X228478712Y-81860500D01*
X228721289Y-81860500D01*
X228769388Y-81854167D01*
X228961789Y-81828838D01*
X229196100Y-81766054D01*
X229420212Y-81673224D01*
X229630289Y-81551936D01*
X229822738Y-81404265D01*
X229994265Y-81232738D01*
X230141936Y-81040289D01*
X230263224Y-80830212D01*
X230356054Y-80606100D01*
X230418838Y-80371789D01*
X230450500Y-80131288D01*
X230450500Y-79888712D01*
X230418838Y-79648211D01*
X230356054Y-79413900D01*
X230263224Y-79189788D01*
X230141936Y-78979711D01*
X229994265Y-78787262D01*
X229994260Y-78787256D01*
X229822743Y-78615739D01*
X229822736Y-78615733D01*
X229630293Y-78468067D01*
X229630292Y-78468066D01*
X229630289Y-78468064D01*
X229420212Y-78346776D01*
X229420205Y-78346773D01*
X229196104Y-78253947D01*
X228961785Y-78191161D01*
X228721289Y-78159500D01*
X228721288Y-78159500D01*
X228478712Y-78159500D01*
X228478711Y-78159500D01*
X228238214Y-78191161D01*
X228003895Y-78253947D01*
X227779794Y-78346773D01*
X227779785Y-78346777D01*
X227569706Y-78468067D01*
X227377263Y-78615733D01*
X227377256Y-78615739D01*
X227205739Y-78787256D01*
X227205733Y-78787263D01*
X227058067Y-78979706D01*
X226936777Y-79189785D01*
X226936773Y-79189794D01*
X226843947Y-79413895D01*
X226781161Y-79648214D01*
X226749500Y-79888711D01*
X180161949Y-79888711D01*
X180192315Y-79858345D01*
X180284356Y-79709124D01*
X180284358Y-79709119D01*
X180339505Y-79542697D01*
X180339506Y-79542690D01*
X180349999Y-79439986D01*
X180350000Y-79439973D01*
X180350000Y-78990000D01*
X179525000Y-78990000D01*
X179525000Y-80139999D01*
X179024999Y-80139999D01*
X179025000Y-80139998D01*
X179025000Y-78990000D01*
X178200001Y-78990000D01*
X178200001Y-79439986D01*
X177400500Y-79439986D01*
X177400499Y-78689711D01*
X177400499Y-78040013D01*
X178200000Y-78040013D01*
X178200000Y-78490000D01*
X179025000Y-78490000D01*
X179525000Y-78490000D01*
X180349999Y-78490000D01*
X180349999Y-78040028D01*
X180349998Y-78040013D01*
X180339505Y-77937302D01*
X180284358Y-77770880D01*
X180284356Y-77770875D01*
X180192315Y-77621654D01*
X180068345Y-77497684D01*
X179919124Y-77405643D01*
X179919119Y-77405641D01*
X179752697Y-77350494D01*
X179752690Y-77350493D01*
X179649986Y-77340000D01*
X179525000Y-77340000D01*
X179525000Y-78490000D01*
X179025000Y-78490000D01*
X179025000Y-77340000D01*
X178900027Y-77340000D01*
X178900012Y-77340001D01*
X178797302Y-77350494D01*
X178630880Y-77405641D01*
X178630875Y-77405643D01*
X178481654Y-77497684D01*
X178357684Y-77621654D01*
X178265643Y-77770875D01*
X178265641Y-77770880D01*
X178210494Y-77937302D01*
X178210493Y-77937309D01*
X178200000Y-78040013D01*
X177400499Y-78040013D01*
X177400499Y-78039998D01*
X177400498Y-78039981D01*
X177389999Y-77937203D01*
X177389998Y-77937200D01*
X177334814Y-77770666D01*
X177242712Y-77621344D01*
X177118656Y-77497288D01*
X176969334Y-77405186D01*
X176802797Y-77350001D01*
X176802795Y-77350000D01*
X176700010Y-77339500D01*
X175949998Y-77339500D01*
X175949980Y-77339501D01*
X175847203Y-77350000D01*
X175847200Y-77350001D01*
X175680668Y-77405185D01*
X175680663Y-77405187D01*
X175531342Y-77497289D01*
X175407289Y-77621342D01*
X175315187Y-77770663D01*
X175315185Y-77770668D01*
X175315115Y-77770880D01*
X175260001Y-77937203D01*
X175260001Y-77937204D01*
X175260000Y-77937204D01*
X175249500Y-78039983D01*
X175249500Y-79440001D01*
X175249501Y-79440018D01*
X175260000Y-79542796D01*
X175260001Y-79542799D01*
X175294932Y-79648211D01*
X175315186Y-79709334D01*
X175407288Y-79858656D01*
X175531344Y-79982712D01*
X175665597Y-80065519D01*
X175712321Y-80117465D01*
X175724500Y-80171057D01*
X175724500Y-80531681D01*
X175704815Y-80598720D01*
X175652011Y-80644475D01*
X175587249Y-80654970D01*
X175582873Y-80654500D01*
X175582864Y-80654500D01*
X174937129Y-80654500D01*
X174937123Y-80654501D01*
X174877518Y-80660908D01*
X174858547Y-80667984D01*
X174848632Y-80671682D01*
X174805300Y-80679500D01*
X174678942Y-80679500D01*
X174526215Y-80720423D01*
X174526214Y-80720423D01*
X174526212Y-80720424D01*
X174526209Y-80720425D01*
X174476096Y-80749359D01*
X174476095Y-80749360D01*
X174432689Y-80774420D01*
X174389285Y-80799479D01*
X174389282Y-80799481D01*
X172239481Y-82949282D01*
X172239480Y-82949284D01*
X172193169Y-83029499D01*
X172189361Y-83036094D01*
X172189359Y-83036096D01*
X172160425Y-83086209D01*
X172160424Y-83086210D01*
X172160423Y-83086215D01*
X172119499Y-83238943D01*
X172119499Y-83238945D01*
X172119499Y-83407046D01*
X172119500Y-83407059D01*
X172119500Y-83831716D01*
X172099815Y-83898755D01*
X172083181Y-83919397D01*
X171942863Y-84059714D01*
X171942860Y-84059718D01*
X171833371Y-84223579D01*
X171833364Y-84223592D01*
X171757950Y-84405660D01*
X171757947Y-84405670D01*
X171719500Y-84598956D01*
X171719500Y-85405270D01*
X171719049Y-85408061D01*
X171719427Y-85409532D01*
X171713206Y-85444273D01*
X171686621Y-85524503D01*
X171646849Y-85581948D01*
X171582333Y-85608772D01*
X171568915Y-85609500D01*
X157972784Y-85609500D01*
X157943950Y-85615234D01*
X157943951Y-85615235D01*
X157827800Y-85638339D01*
X157827794Y-85638341D01*
X157775526Y-85659992D01*
X157691214Y-85694915D01*
X157609080Y-85749795D01*
X157568293Y-85777047D01*
X157568289Y-85777050D01*
X155546052Y-87799286D01*
X155546051Y-87799287D01*
X155498874Y-87869895D01*
X155498873Y-87869896D01*
X155463914Y-87922215D01*
X155407343Y-88058790D01*
X155407340Y-88058800D01*
X155378500Y-88203787D01*
X155378500Y-88203790D01*
X155378500Y-90572918D01*
X155378500Y-90572920D01*
X155378499Y-90572920D01*
X155407340Y-90717907D01*
X155407343Y-90717917D01*
X155442661Y-90803181D01*
X155463916Y-90854495D01*
X155478883Y-90876895D01*
X155486268Y-90887948D01*
X155546049Y-90977418D01*
X155546052Y-90977421D01*
X156043181Y-91474548D01*
X156057884Y-91501475D01*
X156074477Y-91527294D01*
X156075368Y-91533494D01*
X156076666Y-91535871D01*
X156079500Y-91562229D01*
X156079500Y-91784216D01*
X156059815Y-91851255D01*
X156043181Y-91871897D01*
X155170287Y-92744792D01*
X154302220Y-93612859D01*
X154302218Y-93612861D01*
X154261313Y-93653766D01*
X154162859Y-93752219D01*
X154053371Y-93916079D01*
X154053364Y-93916092D01*
X153977950Y-94098160D01*
X153977947Y-94098170D01*
X153939500Y-94291456D01*
X153939500Y-95105858D01*
X153919815Y-95172897D01*
X153867011Y-95218652D01*
X153858847Y-95222034D01*
X153847669Y-95226204D01*
X153847664Y-95226206D01*
X153732455Y-95312452D01*
X153732452Y-95312455D01*
X153646206Y-95427664D01*
X153646202Y-95427671D01*
X153595908Y-95562517D01*
X153591510Y-95603431D01*
X153589501Y-95622123D01*
X153589500Y-95622135D01*
X145280500Y-95622135D01*
X145280500Y-79888711D01*
X148009500Y-79888711D01*
X148009500Y-80131288D01*
X148041161Y-80371785D01*
X148103947Y-80606104D01*
X148196773Y-80830205D01*
X148196777Y-80830214D01*
X148218974Y-80868661D01*
X148318064Y-81040289D01*
X148318066Y-81040292D01*
X148318067Y-81040293D01*
X148465733Y-81232736D01*
X148465739Y-81232743D01*
X148637256Y-81404260D01*
X148637262Y-81404265D01*
X148829711Y-81551936D01*
X149039788Y-81673224D01*
X149263900Y-81766054D01*
X149498211Y-81828838D01*
X149675810Y-81852219D01*
X149738711Y-81860500D01*
X149738712Y-81860500D01*
X149981289Y-81860500D01*
X150029388Y-81854167D01*
X150221789Y-81828838D01*
X150456100Y-81766054D01*
X150680212Y-81673224D01*
X150890289Y-81551936D01*
X151082738Y-81404265D01*
X151254265Y-81232738D01*
X151401936Y-81040289D01*
X151523224Y-80830212D01*
X151616054Y-80606100D01*
X151678838Y-80371789D01*
X151710500Y-80131288D01*
X151710500Y-79888712D01*
X151678838Y-79648211D01*
X151616054Y-79413900D01*
X151523224Y-79189788D01*
X151401936Y-78979711D01*
X151254265Y-78787262D01*
X151254260Y-78787256D01*
X151082743Y-78615739D01*
X151082736Y-78615733D01*
X150890293Y-78468067D01*
X150890292Y-78468066D01*
X150890289Y-78468064D01*
X150680212Y-78346776D01*
X150680205Y-78346773D01*
X150456104Y-78253947D01*
X150221785Y-78191161D01*
X149981289Y-78159500D01*
X149981288Y-78159500D01*
X149738712Y-78159500D01*
X149738711Y-78159500D01*
X149498214Y-78191161D01*
X149263895Y-78253947D01*
X149039794Y-78346773D01*
X149039785Y-78346777D01*
X148829706Y-78468067D01*
X148637263Y-78615733D01*
X148637256Y-78615739D01*
X148465739Y-78787256D01*
X148465733Y-78787263D01*
X148318067Y-78979706D01*
X148196777Y-79189785D01*
X148196773Y-79189794D01*
X148103947Y-79413895D01*
X148041161Y-79648214D01*
X148009500Y-79888711D01*
X145280500Y-79888711D01*
X145280500Y-57522135D01*
X153589500Y-57522135D01*
X153589500Y-59317870D01*
X153589501Y-59317876D01*
X153595908Y-59377483D01*
X153646202Y-59512328D01*
X153646206Y-59512335D01*
X153732452Y-59627544D01*
X153732455Y-59627547D01*
X153847664Y-59713793D01*
X153847671Y-59713797D01*
X153979082Y-59762810D01*
X154035016Y-59804681D01*
X154059433Y-59870145D01*
X154044582Y-59938418D01*
X154023431Y-59966673D01*
X153909889Y-60080215D01*
X153784951Y-60252179D01*
X153688444Y-60441585D01*
X153622753Y-60643760D01*
X153589500Y-60853713D01*
X153589500Y-61066286D01*
X153622163Y-61272517D01*
X153622754Y-61276243D01*
X153640912Y-61332128D01*
X153688444Y-61478414D01*
X153784951Y-61667820D01*
X153909890Y-61839786D01*
X154060213Y-61990109D01*
X154232182Y-62115050D01*
X154240946Y-62119516D01*
X154291742Y-62167491D01*
X154308536Y-62235312D01*
X154285998Y-62301447D01*
X154240946Y-62340484D01*
X154232182Y-62344949D01*
X154060213Y-62469890D01*
X153909890Y-62620213D01*
X153784951Y-62792179D01*
X153688444Y-62981585D01*
X153622753Y-63183760D01*
X153604616Y-63298273D01*
X153589500Y-63393713D01*
X153589500Y-63606287D01*
X153622754Y-63816243D01*
X153685063Y-64008011D01*
X153688444Y-64018414D01*
X153784951Y-64207820D01*
X153909890Y-64379786D01*
X154060213Y-64530109D01*
X154232182Y-64655050D01*
X154240946Y-64659516D01*
X154291742Y-64707491D01*
X154308536Y-64775312D01*
X154285998Y-64841447D01*
X154240946Y-64880484D01*
X154232182Y-64884949D01*
X154060213Y-65009890D01*
X153909890Y-65160213D01*
X153784951Y-65332179D01*
X153688444Y-65521585D01*
X153688443Y-65521587D01*
X153688443Y-65521588D01*
X153665335Y-65592706D01*
X153622753Y-65723760D01*
X153621576Y-65731192D01*
X153589500Y-65933713D01*
X153589500Y-66146287D01*
X153622754Y-66356243D01*
X153665396Y-66487482D01*
X153688444Y-66558414D01*
X153784951Y-66747820D01*
X153909890Y-66919786D01*
X154060213Y-67070109D01*
X154232182Y-67195050D01*
X154240946Y-67199516D01*
X154291742Y-67247491D01*
X154308536Y-67315312D01*
X154285998Y-67381447D01*
X154240946Y-67420484D01*
X154232182Y-67424949D01*
X154060213Y-67549890D01*
X153909890Y-67700213D01*
X153784951Y-67872179D01*
X153688444Y-68061585D01*
X153622753Y-68263760D01*
X153589500Y-68473713D01*
X153589500Y-68686286D01*
X153621440Y-68887950D01*
X153622754Y-68896243D01*
X153663763Y-69022456D01*
X153688444Y-69098414D01*
X153784951Y-69287820D01*
X153909890Y-69459786D01*
X154060213Y-69610109D01*
X154232182Y-69735050D01*
X154240946Y-69739516D01*
X154291742Y-69787491D01*
X154308536Y-69855312D01*
X154285998Y-69921447D01*
X154240946Y-69960484D01*
X154232182Y-69964949D01*
X154060213Y-70089890D01*
X153909890Y-70240213D01*
X153784951Y-70412179D01*
X153688444Y-70601585D01*
X153688443Y-70601587D01*
X153688443Y-70601588D01*
X153681704Y-70622328D01*
X153622753Y-70803760D01*
X153589500Y-71013713D01*
X153589500Y-71226286D01*
X153621339Y-71427314D01*
X153622754Y-71436243D01*
X153671540Y-71586391D01*
X153688444Y-71638414D01*
X153784951Y-71827820D01*
X153909890Y-71999786D01*
X154060213Y-72150109D01*
X154232179Y-72275048D01*
X154232181Y-72275049D01*
X154232184Y-72275051D01*
X154421588Y-72371557D01*
X154623757Y-72437246D01*
X154833713Y-72470500D01*
X154833714Y-72470500D01*
X155046286Y-72470500D01*
X155046287Y-72470500D01*
X155256243Y-72437246D01*
X155458412Y-72371557D01*
X155647816Y-72275051D01*
X155804136Y-72161479D01*
X155819786Y-72150109D01*
X155819788Y-72150106D01*
X155819792Y-72150104D01*
X155970104Y-71999792D01*
X155970106Y-71999788D01*
X155970109Y-71999786D01*
X156095048Y-71827820D01*
X156095047Y-71827820D01*
X156095051Y-71827816D01*
X156191557Y-71638412D01*
X156257246Y-71436243D01*
X156290500Y-71226287D01*
X156290500Y-71013713D01*
X156275382Y-70918268D01*
X156284336Y-70848979D01*
X156310171Y-70811195D01*
X162834548Y-64286819D01*
X162895871Y-64253334D01*
X162922229Y-64250500D01*
X184232779Y-64250500D01*
X184299818Y-64270185D01*
X184333097Y-64301615D01*
X184389892Y-64379788D01*
X184540213Y-64530109D01*
X184712182Y-64655050D01*
X184720946Y-64659516D01*
X184771742Y-64707491D01*
X184788536Y-64775312D01*
X184765998Y-64841447D01*
X184720946Y-64880484D01*
X184712182Y-64884949D01*
X184540213Y-65009890D01*
X184389890Y-65160213D01*
X184264951Y-65332179D01*
X184168444Y-65521585D01*
X184168443Y-65521587D01*
X184168443Y-65521588D01*
X184145335Y-65592706D01*
X184102753Y-65723760D01*
X184101576Y-65731192D01*
X184069500Y-65933713D01*
X184069500Y-66146287D01*
X184102754Y-66356243D01*
X184145396Y-66487482D01*
X184168444Y-66558414D01*
X184264951Y-66747820D01*
X184389890Y-66919786D01*
X184540213Y-67070109D01*
X184712182Y-67195050D01*
X184720946Y-67199516D01*
X184771742Y-67247491D01*
X184788536Y-67315312D01*
X184765998Y-67381447D01*
X184720946Y-67420484D01*
X184712182Y-67424949D01*
X184540213Y-67549890D01*
X184389890Y-67700213D01*
X184264951Y-67872179D01*
X184168444Y-68061585D01*
X184102753Y-68263760D01*
X184069500Y-68473713D01*
X184069500Y-68686286D01*
X184101440Y-68887950D01*
X184102754Y-68896243D01*
X184143763Y-69022456D01*
X184168444Y-69098414D01*
X184264951Y-69287820D01*
X184389890Y-69459786D01*
X184540213Y-69610109D01*
X184712182Y-69735050D01*
X184720946Y-69739516D01*
X184771742Y-69787491D01*
X184788536Y-69855312D01*
X184765998Y-69921447D01*
X184720946Y-69960484D01*
X184712182Y-69964949D01*
X184540213Y-70089890D01*
X184389890Y-70240213D01*
X184264951Y-70412179D01*
X184168444Y-70601585D01*
X184168443Y-70601587D01*
X184168443Y-70601588D01*
X184161704Y-70622328D01*
X184102753Y-70803760D01*
X184069500Y-71013713D01*
X184069500Y-71226292D01*
X184084616Y-71321728D01*
X184075662Y-71391021D01*
X184049824Y-71428807D01*
X183065451Y-72413181D01*
X183004128Y-72446666D01*
X182977770Y-72449500D01*
X164289604Y-72449500D01*
X164242155Y-72440062D01*
X164218497Y-72430263D01*
X164218493Y-72430262D01*
X164218488Y-72430260D01*
X164063845Y-72399500D01*
X164063842Y-72399500D01*
X163906158Y-72399500D01*
X163906155Y-72399500D01*
X163751510Y-72430261D01*
X163751498Y-72430264D01*
X163605827Y-72490602D01*
X163605814Y-72490609D01*
X163474711Y-72578210D01*
X163474707Y-72578213D01*
X163363213Y-72689707D01*
X163363210Y-72689711D01*
X163275609Y-72820814D01*
X163275602Y-72820827D01*
X163215264Y-72966498D01*
X163215261Y-72966510D01*
X163184500Y-73121153D01*
X163184500Y-73278846D01*
X163215261Y-73433489D01*
X163215264Y-73433501D01*
X163275602Y-73579172D01*
X163275609Y-73579185D01*
X163363210Y-73710288D01*
X163363213Y-73710292D01*
X163474707Y-73821786D01*
X163474711Y-73821789D01*
X163605814Y-73909390D01*
X163605827Y-73909397D01*
X163751498Y-73969735D01*
X163751503Y-73969737D01*
X163906153Y-74000499D01*
X163906156Y-74000500D01*
X163906158Y-74000500D01*
X164063844Y-74000500D01*
X164063845Y-74000499D01*
X164140152Y-73985320D01*
X164218488Y-73969739D01*
X164218489Y-73969738D01*
X164218497Y-73969737D01*
X164242155Y-73959937D01*
X164289604Y-73950500D01*
X164903770Y-73950500D01*
X164970809Y-73970185D01*
X165016564Y-74022989D01*
X165026508Y-74092147D01*
X164997483Y-74155703D01*
X164991451Y-74162181D01*
X160699703Y-78453927D01*
X160659480Y-78480805D01*
X160635819Y-78490606D01*
X160635818Y-78490607D01*
X160504715Y-78578207D01*
X160504707Y-78578213D01*
X160393213Y-78689707D01*
X160393210Y-78689711D01*
X160305609Y-78820814D01*
X160305602Y-78820827D01*
X160245264Y-78966498D01*
X160245261Y-78966510D01*
X160214500Y-79121153D01*
X160214500Y-79278846D01*
X160245261Y-79433489D01*
X160245264Y-79433501D01*
X160305602Y-79579172D01*
X160305609Y-79579185D01*
X160393210Y-79710288D01*
X160393213Y-79710292D01*
X160504707Y-79821786D01*
X160504711Y-79821789D01*
X160635814Y-79909390D01*
X160635827Y-79909397D01*
X160781498Y-79969735D01*
X160781503Y-79969737D01*
X160936153Y-80000499D01*
X160936156Y-80000500D01*
X160936158Y-80000500D01*
X161093844Y-80000500D01*
X161093845Y-80000499D01*
X161248497Y-79969737D01*
X161394179Y-79909394D01*
X161525289Y-79821789D01*
X161636789Y-79710289D01*
X161724394Y-79579179D01*
X161734191Y-79555524D01*
X161761069Y-79515297D01*
X166538549Y-74737819D01*
X166599872Y-74704334D01*
X166626230Y-74701500D01*
X200442920Y-74701500D01*
X200550073Y-74680185D01*
X200587913Y-74672658D01*
X200724495Y-74616084D01*
X200773729Y-74583186D01*
X200847416Y-74533952D01*
X202891193Y-72490172D01*
X202952514Y-72456689D01*
X202998265Y-72455382D01*
X203093713Y-72470500D01*
X203093715Y-72470500D01*
X203306286Y-72470500D01*
X203306287Y-72470500D01*
X203516243Y-72437246D01*
X203718412Y-72371557D01*
X203907816Y-72275051D01*
X204064136Y-72161479D01*
X204079786Y-72150109D01*
X204079788Y-72150106D01*
X204079792Y-72150104D01*
X204230104Y-71999792D01*
X204230106Y-71999788D01*
X204230109Y-71999786D01*
X204355048Y-71827820D01*
X204355047Y-71827820D01*
X204355051Y-71827816D01*
X204451557Y-71638412D01*
X204517246Y-71436243D01*
X204550500Y-71226287D01*
X204550500Y-71013713D01*
X204517246Y-70803757D01*
X204451557Y-70601588D01*
X204355051Y-70412184D01*
X204355049Y-70412181D01*
X204355048Y-70412179D01*
X204230109Y-70240213D01*
X204079786Y-70089890D01*
X203907820Y-69964951D01*
X203907115Y-69964591D01*
X203899054Y-69960485D01*
X203848259Y-69912512D01*
X203831463Y-69844692D01*
X203853999Y-69778556D01*
X203899054Y-69739515D01*
X203907816Y-69735051D01*
X203929789Y-69719086D01*
X204079786Y-69610109D01*
X204079788Y-69610106D01*
X204079792Y-69610104D01*
X204230104Y-69459792D01*
X204230106Y-69459788D01*
X204230109Y-69459786D01*
X204355048Y-69287820D01*
X204355047Y-69287820D01*
X204355051Y-69287816D01*
X204451557Y-69098412D01*
X204517246Y-68896243D01*
X204550500Y-68686287D01*
X204550500Y-68473713D01*
X204535382Y-68378268D01*
X204544336Y-68308979D01*
X204570171Y-68271195D01*
X207223548Y-65617819D01*
X207284871Y-65584334D01*
X207311229Y-65581500D01*
X210005500Y-65581500D01*
X210072539Y-65601185D01*
X210118294Y-65653989D01*
X210129500Y-65705500D01*
X210129500Y-66427870D01*
X210129501Y-66427876D01*
X210135908Y-66487483D01*
X210186202Y-66622328D01*
X210186206Y-66622335D01*
X210272452Y-66737544D01*
X210272453Y-66737544D01*
X210272454Y-66737546D01*
X210301615Y-66759376D01*
X210330145Y-66780734D01*
X210372015Y-66836668D01*
X210376999Y-66906360D01*
X210343513Y-66967683D01*
X210330145Y-66979266D01*
X210272452Y-67022455D01*
X210186206Y-67137664D01*
X210186202Y-67137671D01*
X210135908Y-67272517D01*
X210129896Y-67328443D01*
X210129501Y-67332123D01*
X210129500Y-67332135D01*
X210129500Y-68427870D01*
X210129501Y-68427876D01*
X210135908Y-68487483D01*
X210186202Y-68622328D01*
X210186204Y-68622331D01*
X210207807Y-68651189D01*
X210232224Y-68716654D01*
X210217372Y-68784927D01*
X210167967Y-68834332D01*
X210108540Y-68849500D01*
X208181457Y-68849500D01*
X207988170Y-68887947D01*
X207988160Y-68887950D01*
X207806092Y-68963364D01*
X207806079Y-68963371D01*
X207642218Y-69072860D01*
X207642214Y-69072863D01*
X207502863Y-69212214D01*
X207502860Y-69212218D01*
X207393371Y-69376079D01*
X207393364Y-69376092D01*
X207317950Y-69558160D01*
X207317947Y-69558170D01*
X207279500Y-69751456D01*
X207279500Y-69751459D01*
X207279500Y-69948541D01*
X207279500Y-69948543D01*
X207279499Y-69948543D01*
X207317947Y-70141829D01*
X207317950Y-70141839D01*
X207393364Y-70323907D01*
X207393371Y-70323920D01*
X207502860Y-70487781D01*
X207502863Y-70487785D01*
X207642214Y-70627136D01*
X207642218Y-70627139D01*
X207806079Y-70736628D01*
X207806092Y-70736635D01*
X207986091Y-70811192D01*
X207988165Y-70812051D01*
X207988169Y-70812051D01*
X207988170Y-70812052D01*
X208181456Y-70850500D01*
X208181459Y-70850500D01*
X210436894Y-70850500D01*
X210480227Y-70858318D01*
X210522517Y-70874091D01*
X210582127Y-70880500D01*
X210755500Y-70880499D01*
X210822539Y-70900183D01*
X210868294Y-70952987D01*
X210879500Y-71004499D01*
X210879500Y-71478541D01*
X210879500Y-71478543D01*
X210879499Y-71478543D01*
X210917947Y-71671829D01*
X210917950Y-71671839D01*
X210993364Y-71853907D01*
X210993371Y-71853920D01*
X211102860Y-72017781D01*
X211102863Y-72017785D01*
X211246537Y-72161459D01*
X211246559Y-72161479D01*
X214980735Y-75895655D01*
X214980764Y-75895686D01*
X215123214Y-76038136D01*
X215123218Y-76038139D01*
X215287079Y-76147628D01*
X215287092Y-76147635D01*
X215415833Y-76200961D01*
X215458744Y-76218735D01*
X215469164Y-76223051D01*
X215565812Y-76242275D01*
X215614135Y-76251887D01*
X215662458Y-76261500D01*
X215662459Y-76261500D01*
X218827542Y-76261500D01*
X218858566Y-76255328D01*
X218924188Y-76242275D01*
X219020836Y-76223051D01*
X219074165Y-76200961D01*
X219202914Y-76147632D01*
X219366782Y-76038139D01*
X219506139Y-75898782D01*
X219506140Y-75898779D01*
X219513206Y-75891714D01*
X219513209Y-75891710D01*
X220308101Y-75096818D01*
X220369424Y-75063333D01*
X220395782Y-75060499D01*
X220705002Y-75060499D01*
X220705008Y-75060499D01*
X220807797Y-75049999D01*
X220974334Y-74994814D01*
X221123656Y-74902712D01*
X221247712Y-74778656D01*
X221284259Y-74719402D01*
X221336207Y-74672679D01*
X221389798Y-74660500D01*
X223530202Y-74660500D01*
X223597241Y-74680185D01*
X223635739Y-74719401D01*
X223672288Y-74778656D01*
X223796344Y-74902712D01*
X223945666Y-74994814D01*
X224112203Y-75049999D01*
X224214991Y-75060500D01*
X224965008Y-75060499D01*
X224965016Y-75060498D01*
X224965019Y-75060498D01*
X225021302Y-75054748D01*
X225067797Y-75049999D01*
X225234334Y-74994814D01*
X225383656Y-74902712D01*
X225507712Y-74778656D01*
X225599814Y-74629334D01*
X225654999Y-74462797D01*
X225665500Y-74360009D01*
X225665500Y-74359986D01*
X226465001Y-74359986D01*
X226475494Y-74462697D01*
X226530641Y-74629119D01*
X226530643Y-74629124D01*
X226622684Y-74778345D01*
X226746654Y-74902315D01*
X226895875Y-74994356D01*
X226895880Y-74994358D01*
X227062302Y-75049505D01*
X227062309Y-75049506D01*
X227165019Y-75059999D01*
X227289999Y-75059999D01*
X227790000Y-75059999D01*
X227914972Y-75059999D01*
X227914986Y-75059998D01*
X228017697Y-75049505D01*
X228184119Y-74994358D01*
X228184124Y-74994356D01*
X228333345Y-74902315D01*
X228457315Y-74778345D01*
X228549356Y-74629124D01*
X228549358Y-74629119D01*
X228604505Y-74462697D01*
X228604506Y-74462690D01*
X228614999Y-74359986D01*
X228615000Y-74359973D01*
X228615000Y-73910000D01*
X227790000Y-73910000D01*
X227790000Y-75059999D01*
X227289999Y-75059999D01*
X227290000Y-75059998D01*
X227290000Y-73910000D01*
X226465001Y-73910000D01*
X226465001Y-74359986D01*
X225665500Y-74359986D01*
X225665499Y-73579185D01*
X225665499Y-72960013D01*
X226465000Y-72960013D01*
X226465000Y-73410000D01*
X227290000Y-73410000D01*
X227790000Y-73410000D01*
X228614999Y-73410000D01*
X228614999Y-72960028D01*
X228614998Y-72960013D01*
X228604505Y-72857302D01*
X228549358Y-72690880D01*
X228549356Y-72690875D01*
X228457315Y-72541654D01*
X228333345Y-72417684D01*
X228184124Y-72325643D01*
X228184119Y-72325641D01*
X228017697Y-72270494D01*
X228017690Y-72270493D01*
X227914986Y-72260000D01*
X227790000Y-72260000D01*
X227790000Y-73410000D01*
X227290000Y-73410000D01*
X227290000Y-72260000D01*
X227165027Y-72260000D01*
X227165012Y-72260001D01*
X227062302Y-72270494D01*
X226895880Y-72325641D01*
X226895875Y-72325643D01*
X226746654Y-72417684D01*
X226622684Y-72541654D01*
X226530643Y-72690875D01*
X226530641Y-72690880D01*
X226475494Y-72857302D01*
X226475493Y-72857309D01*
X226465000Y-72960013D01*
X225665499Y-72960013D01*
X225665499Y-72959998D01*
X225665498Y-72959981D01*
X225654999Y-72857203D01*
X225654998Y-72857200D01*
X225642941Y-72820814D01*
X225599814Y-72690666D01*
X225507712Y-72541344D01*
X225383656Y-72417288D01*
X225234334Y-72325186D01*
X225067797Y-72270001D01*
X225067795Y-72270000D01*
X224965010Y-72259500D01*
X224214998Y-72259500D01*
X224214980Y-72259501D01*
X224112203Y-72270000D01*
X224112200Y-72270001D01*
X223945668Y-72325185D01*
X223945663Y-72325187D01*
X223796342Y-72417289D01*
X223672289Y-72541342D01*
X223672288Y-72541344D01*
X223649549Y-72578211D01*
X223635741Y-72600597D01*
X223583793Y-72647321D01*
X223530202Y-72659500D01*
X221389798Y-72659500D01*
X221322759Y-72639815D01*
X221284259Y-72600597D01*
X221247712Y-72541344D01*
X221123656Y-72417288D01*
X220974334Y-72325186D01*
X220807797Y-72270001D01*
X220807795Y-72270000D01*
X220705010Y-72259500D01*
X219954998Y-72259500D01*
X219954980Y-72259501D01*
X219852203Y-72270000D01*
X219852200Y-72270001D01*
X219685668Y-72325185D01*
X219685663Y-72325187D01*
X219536342Y-72417289D01*
X219412289Y-72541342D01*
X219320187Y-72690663D01*
X219320185Y-72690668D01*
X219320115Y-72690880D01*
X219265001Y-72857203D01*
X219265001Y-72857204D01*
X219265000Y-72857204D01*
X219254500Y-72959983D01*
X219254500Y-73269217D01*
X219234815Y-73336256D01*
X219218181Y-73356898D01*
X218647720Y-73927358D01*
X218586397Y-73960843D01*
X218516705Y-73955859D01*
X218472357Y-73927357D01*
X218455000Y-73910000D01*
X216305001Y-73910000D01*
X216305001Y-74090719D01*
X216285316Y-74157758D01*
X216232512Y-74203513D01*
X216163354Y-74213457D01*
X216099798Y-74184432D01*
X216093320Y-74178400D01*
X214874933Y-72960013D01*
X216305000Y-72960013D01*
X216305000Y-73410000D01*
X217130000Y-73410000D01*
X217630000Y-73410000D01*
X218454999Y-73410000D01*
X218454999Y-72960028D01*
X218454998Y-72960013D01*
X218444505Y-72857302D01*
X218389358Y-72690880D01*
X218389356Y-72690875D01*
X218297315Y-72541654D01*
X218173345Y-72417684D01*
X218024124Y-72325643D01*
X218024119Y-72325641D01*
X217857697Y-72270494D01*
X217857690Y-72270493D01*
X217754986Y-72260000D01*
X217630000Y-72260000D01*
X217630000Y-73410000D01*
X217130000Y-73410000D01*
X217130000Y-72260000D01*
X217005027Y-72260000D01*
X217005012Y-72260001D01*
X216902302Y-72270494D01*
X216735880Y-72325641D01*
X216735875Y-72325643D01*
X216586654Y-72417684D01*
X216462684Y-72541654D01*
X216370643Y-72690875D01*
X216370641Y-72690880D01*
X216315494Y-72857302D01*
X216315493Y-72857309D01*
X216305000Y-72960013D01*
X214874933Y-72960013D01*
X213007100Y-71092180D01*
X212973615Y-71030857D01*
X212978599Y-70961165D01*
X213020471Y-70905232D01*
X213085935Y-70880815D01*
X213094781Y-70880499D01*
X213177871Y-70880499D01*
X213177872Y-70880499D01*
X213237483Y-70874091D01*
X213372331Y-70823796D01*
X213487546Y-70737546D01*
X213573796Y-70622331D01*
X213624091Y-70487483D01*
X213630500Y-70427873D01*
X213630500Y-70427844D01*
X228330000Y-70427844D01*
X228336401Y-70487372D01*
X228336403Y-70487379D01*
X228386645Y-70622086D01*
X228386649Y-70622093D01*
X228472809Y-70737187D01*
X228472812Y-70737190D01*
X228587906Y-70823350D01*
X228587913Y-70823354D01*
X228722620Y-70873596D01*
X228722627Y-70873598D01*
X228782155Y-70879999D01*
X228782172Y-70880000D01*
X229830000Y-70880000D01*
X230330000Y-70880000D01*
X231377828Y-70880000D01*
X231377844Y-70879999D01*
X231437372Y-70873598D01*
X231437379Y-70873596D01*
X231572086Y-70823354D01*
X231572093Y-70823350D01*
X231687187Y-70737190D01*
X231687190Y-70737187D01*
X231773350Y-70622093D01*
X231773354Y-70622086D01*
X231823596Y-70487379D01*
X231823598Y-70487372D01*
X231829999Y-70427844D01*
X231830000Y-70427827D01*
X231830000Y-70130000D01*
X230330000Y-70130000D01*
X230330000Y-70880000D01*
X229830000Y-70880000D01*
X229830000Y-70130000D01*
X228330000Y-70130000D01*
X228330000Y-70427844D01*
X213630500Y-70427844D01*
X213630499Y-69868443D01*
X213630499Y-69332129D01*
X213630498Y-69332123D01*
X213624091Y-69272516D01*
X213573797Y-69137671D01*
X213573793Y-69137664D01*
X213487814Y-69022812D01*
X213487546Y-69022454D01*
X213429854Y-68979265D01*
X213387984Y-68923333D01*
X213383000Y-68853641D01*
X213416485Y-68792318D01*
X213429850Y-68780736D01*
X213487546Y-68737546D01*
X213573796Y-68622331D01*
X213624091Y-68487483D01*
X213630500Y-68427873D01*
X213630499Y-67332135D01*
X228329500Y-67332135D01*
X228329500Y-68427870D01*
X228329501Y-68427876D01*
X228335908Y-68487483D01*
X228386202Y-68622328D01*
X228386206Y-68622335D01*
X228472452Y-68737544D01*
X228472453Y-68737544D01*
X228472454Y-68737546D01*
X228507727Y-68763951D01*
X228530562Y-68781046D01*
X228572432Y-68836980D01*
X228577416Y-68906672D01*
X228543930Y-68967994D01*
X228530562Y-68979578D01*
X228472809Y-69022812D01*
X228386649Y-69137906D01*
X228386645Y-69137913D01*
X228336403Y-69272620D01*
X228336401Y-69272627D01*
X228330000Y-69332155D01*
X228330000Y-69630000D01*
X231830000Y-69630000D01*
X231830000Y-69332172D01*
X231829999Y-69332155D01*
X231823598Y-69272627D01*
X231823596Y-69272620D01*
X231773354Y-69137913D01*
X231773350Y-69137906D01*
X231687190Y-69022812D01*
X231687187Y-69022809D01*
X231629438Y-68979578D01*
X231587567Y-68923645D01*
X231582583Y-68853953D01*
X231616069Y-68792630D01*
X231629432Y-68781049D01*
X231687546Y-68737546D01*
X231773796Y-68622331D01*
X231824091Y-68487483D01*
X231830500Y-68427873D01*
X231830499Y-67332128D01*
X231824091Y-67272517D01*
X231811424Y-67238556D01*
X231773797Y-67137671D01*
X231773793Y-67137664D01*
X231687547Y-67022455D01*
X231687544Y-67022453D01*
X231629856Y-66979267D01*
X231629437Y-66978953D01*
X231587567Y-66923019D01*
X231582583Y-66853327D01*
X231616069Y-66792004D01*
X231629439Y-66780420D01*
X231687189Y-66737188D01*
X231687190Y-66737187D01*
X231773350Y-66622093D01*
X231773354Y-66622086D01*
X231823596Y-66487379D01*
X231823598Y-66487372D01*
X231829999Y-66427844D01*
X231830000Y-66427827D01*
X231830000Y-66130000D01*
X228330000Y-66130000D01*
X228330000Y-66427844D01*
X228336401Y-66487372D01*
X228336403Y-66487379D01*
X228386645Y-66622086D01*
X228386649Y-66622093D01*
X228472809Y-66737186D01*
X228530561Y-66780420D01*
X228572432Y-66836354D01*
X228577416Y-66906046D01*
X228543931Y-66967369D01*
X228530563Y-66978952D01*
X228472454Y-67022453D01*
X228472452Y-67022455D01*
X228386206Y-67137664D01*
X228386202Y-67137671D01*
X228335908Y-67272517D01*
X228329896Y-67328443D01*
X228329501Y-67332123D01*
X228329500Y-67332135D01*
X213630499Y-67332135D01*
X213630499Y-67332128D01*
X213624091Y-67272517D01*
X213611424Y-67238556D01*
X213573797Y-67137671D01*
X213573793Y-67137664D01*
X213487547Y-67022456D01*
X213487548Y-67022456D01*
X213487546Y-67022454D01*
X213429854Y-66979265D01*
X213387984Y-66923333D01*
X213383000Y-66853641D01*
X213416485Y-66792318D01*
X213429854Y-66780734D01*
X213487546Y-66737546D01*
X213573796Y-66622331D01*
X213624091Y-66487483D01*
X213630500Y-66427873D01*
X213630499Y-65705499D01*
X213650183Y-65638461D01*
X213702987Y-65592706D01*
X213754499Y-65581500D01*
X228230138Y-65581500D01*
X228297177Y-65601185D01*
X228317819Y-65617819D01*
X228330000Y-65630000D01*
X231830000Y-65630000D01*
X231830000Y-65332172D01*
X231829999Y-65332155D01*
X231823598Y-65272627D01*
X231823596Y-65272620D01*
X231773354Y-65137913D01*
X231773350Y-65137906D01*
X231687190Y-65022812D01*
X231687187Y-65022809D01*
X231629438Y-64979578D01*
X231587567Y-64923645D01*
X231582583Y-64853953D01*
X231616069Y-64792630D01*
X231629432Y-64781049D01*
X231687546Y-64737546D01*
X231773796Y-64622331D01*
X231824091Y-64487483D01*
X231830500Y-64427873D01*
X231830499Y-63332128D01*
X231824091Y-63272517D01*
X231773796Y-63137669D01*
X231773795Y-63137668D01*
X231773793Y-63137664D01*
X231722123Y-63068643D01*
X231687546Y-63022454D01*
X231629854Y-62979265D01*
X231587984Y-62923333D01*
X231583000Y-62853641D01*
X231616485Y-62792318D01*
X231629850Y-62780736D01*
X231687546Y-62737546D01*
X231773796Y-62622331D01*
X231824091Y-62487483D01*
X231830500Y-62427873D01*
X231830499Y-61332128D01*
X231824091Y-61272517D01*
X231822707Y-61268807D01*
X231773797Y-61137671D01*
X231773793Y-61137664D01*
X231687547Y-61022456D01*
X231687548Y-61022456D01*
X231687546Y-61022454D01*
X231629854Y-60979265D01*
X231587984Y-60923333D01*
X231583000Y-60853641D01*
X231616485Y-60792318D01*
X231629850Y-60780736D01*
X231687546Y-60737546D01*
X231773796Y-60622331D01*
X231824091Y-60487483D01*
X231830500Y-60427873D01*
X231830499Y-59332128D01*
X231824091Y-59272517D01*
X231790224Y-59181716D01*
X231773797Y-59137671D01*
X231773793Y-59137664D01*
X231687547Y-59022456D01*
X231687548Y-59022456D01*
X231687546Y-59022454D01*
X231629854Y-58979265D01*
X231587984Y-58923333D01*
X231583000Y-58853641D01*
X231616485Y-58792318D01*
X231629854Y-58780734D01*
X231687546Y-58737546D01*
X231773796Y-58622331D01*
X231824091Y-58487483D01*
X231830500Y-58427873D01*
X231830499Y-57332128D01*
X231824091Y-57272517D01*
X231821965Y-57266818D01*
X231773797Y-57137671D01*
X231773793Y-57137664D01*
X231687547Y-57022456D01*
X231687548Y-57022456D01*
X231687546Y-57022454D01*
X231629854Y-56979265D01*
X231587984Y-56923333D01*
X231583000Y-56853641D01*
X231616485Y-56792318D01*
X231629854Y-56780734D01*
X231687546Y-56737546D01*
X231773796Y-56622331D01*
X231824091Y-56487483D01*
X231830500Y-56427873D01*
X231830499Y-55332128D01*
X231824091Y-55272517D01*
X231773796Y-55137669D01*
X231773795Y-55137668D01*
X231773793Y-55137664D01*
X231687547Y-55022455D01*
X231687544Y-55022452D01*
X231572335Y-54936206D01*
X231572328Y-54936202D01*
X231437482Y-54885908D01*
X231437483Y-54885908D01*
X231377883Y-54879501D01*
X231377881Y-54879500D01*
X231377873Y-54879500D01*
X231377864Y-54879500D01*
X228782129Y-54879500D01*
X228782123Y-54879501D01*
X228722516Y-54885908D01*
X228587671Y-54936202D01*
X228587664Y-54936206D01*
X228472455Y-55022452D01*
X228472452Y-55022455D01*
X228386206Y-55137664D01*
X228386202Y-55137671D01*
X228335908Y-55272517D01*
X228329782Y-55329500D01*
X228329501Y-55332123D01*
X228329500Y-55332135D01*
X228329500Y-55518769D01*
X228309815Y-55585808D01*
X228257011Y-55631563D01*
X228187853Y-55641507D01*
X228124297Y-55612482D01*
X228117819Y-55606450D01*
X226507421Y-53996052D01*
X226507414Y-53996046D01*
X226433729Y-53946812D01*
X226433729Y-53946813D01*
X226384491Y-53913913D01*
X226247917Y-53857343D01*
X226247907Y-53857340D01*
X226102920Y-53828500D01*
X226102918Y-53828500D01*
X189334917Y-53828500D01*
X189187082Y-53828500D01*
X189187080Y-53828500D01*
X189042092Y-53857340D01*
X189042082Y-53857343D01*
X188905511Y-53913912D01*
X188905498Y-53913919D01*
X188782584Y-53996048D01*
X188782580Y-53996051D01*
X186982180Y-55796451D01*
X186920857Y-55829936D01*
X186851165Y-55824952D01*
X186795232Y-55783080D01*
X186770815Y-55717616D01*
X186770499Y-55708770D01*
X186770499Y-54982129D01*
X186770498Y-54982123D01*
X186770497Y-54982116D01*
X186764091Y-54922517D01*
X186713796Y-54787669D01*
X186713795Y-54787668D01*
X186713793Y-54787664D01*
X186627547Y-54672455D01*
X186627544Y-54672452D01*
X186512335Y-54586206D01*
X186512328Y-54586202D01*
X186377482Y-54535908D01*
X186377483Y-54535908D01*
X186317883Y-54529501D01*
X186317881Y-54529500D01*
X186317873Y-54529500D01*
X186317864Y-54529500D01*
X184522129Y-54529500D01*
X184522123Y-54529501D01*
X184462516Y-54535908D01*
X184327671Y-54586202D01*
X184327664Y-54586206D01*
X184212455Y-54672452D01*
X184212452Y-54672455D01*
X184126206Y-54787664D01*
X184126202Y-54787671D01*
X184075908Y-54922517D01*
X184069501Y-54982116D01*
X184069501Y-54982123D01*
X184069500Y-54982135D01*
X184069500Y-56777870D01*
X184069501Y-56777876D01*
X184075908Y-56837483D01*
X184126202Y-56972328D01*
X184126206Y-56972335D01*
X184212452Y-57087544D01*
X184212455Y-57087547D01*
X184327664Y-57173793D01*
X184327671Y-57173797D01*
X184459082Y-57222810D01*
X184515016Y-57264681D01*
X184539433Y-57330145D01*
X184524582Y-57398418D01*
X184503431Y-57426673D01*
X184389889Y-57540215D01*
X184264951Y-57712179D01*
X184168444Y-57901585D01*
X184102753Y-58103760D01*
X184069500Y-58313713D01*
X184069500Y-58526286D01*
X184102735Y-58736127D01*
X184102754Y-58736243D01*
X184149463Y-58879999D01*
X184168444Y-58938414D01*
X184264951Y-59127820D01*
X184389890Y-59299786D01*
X184540213Y-59450109D01*
X184712182Y-59575050D01*
X184720946Y-59579516D01*
X184771742Y-59627491D01*
X184788536Y-59695312D01*
X184765998Y-59761447D01*
X184720946Y-59800484D01*
X184712182Y-59804949D01*
X184540213Y-59929890D01*
X184389890Y-60080213D01*
X184264951Y-60252179D01*
X184168444Y-60441585D01*
X184102753Y-60643760D01*
X184069500Y-60853713D01*
X184069500Y-61066292D01*
X184084616Y-61161728D01*
X184083914Y-61167153D01*
X184085827Y-61172280D01*
X184079485Y-61201430D01*
X184075662Y-61231021D01*
X184071829Y-61236626D01*
X184070975Y-61240553D01*
X184049824Y-61268807D01*
X183875451Y-61443181D01*
X183814128Y-61476666D01*
X183787770Y-61479500D01*
X161216080Y-61479500D01*
X161071092Y-61508340D01*
X161071082Y-61508343D01*
X160934511Y-61564912D01*
X160934498Y-61564919D01*
X160811584Y-61647048D01*
X160811580Y-61647051D01*
X156494635Y-65963995D01*
X156433312Y-65997480D01*
X156363620Y-65992496D01*
X156307687Y-65950624D01*
X156284481Y-65895712D01*
X156257246Y-65723757D01*
X156191557Y-65521588D01*
X156095051Y-65332184D01*
X156095049Y-65332181D01*
X156095048Y-65332179D01*
X155970109Y-65160213D01*
X155819786Y-65009890D01*
X155647820Y-64884951D01*
X155639082Y-64880499D01*
X155639054Y-64880485D01*
X155588259Y-64832512D01*
X155571463Y-64764692D01*
X155593999Y-64698556D01*
X155639054Y-64659515D01*
X155647816Y-64655051D01*
X155692856Y-64622328D01*
X155819786Y-64530109D01*
X155819788Y-64530106D01*
X155819792Y-64530104D01*
X155970104Y-64379792D01*
X155970106Y-64379788D01*
X155970109Y-64379786D01*
X156095048Y-64207820D01*
X156095047Y-64207820D01*
X156095051Y-64207816D01*
X156191557Y-64018412D01*
X156257246Y-63816243D01*
X156290500Y-63606287D01*
X156290500Y-63393713D01*
X156257246Y-63183757D01*
X156191557Y-62981588D01*
X156095051Y-62792184D01*
X156095049Y-62792181D01*
X156095048Y-62792179D01*
X155970109Y-62620213D01*
X155819786Y-62469890D01*
X155647820Y-62344951D01*
X155647115Y-62344591D01*
X155639054Y-62340485D01*
X155588259Y-62292512D01*
X155571463Y-62224692D01*
X155593999Y-62158556D01*
X155639054Y-62119515D01*
X155647816Y-62115051D01*
X155722466Y-62060815D01*
X155819786Y-61990109D01*
X155819788Y-61990106D01*
X155819792Y-61990104D01*
X155970104Y-61839792D01*
X155970106Y-61839788D01*
X155970109Y-61839786D01*
X156095048Y-61667820D01*
X156095047Y-61667820D01*
X156095051Y-61667816D01*
X156191557Y-61478412D01*
X156257246Y-61276243D01*
X156290500Y-61066287D01*
X156290500Y-60853713D01*
X156257246Y-60643757D01*
X156191557Y-60441588D01*
X156095051Y-60252184D01*
X156095049Y-60252181D01*
X156095048Y-60252179D01*
X155970109Y-60080213D01*
X155856569Y-59966673D01*
X155823084Y-59905350D01*
X155828068Y-59835658D01*
X155869940Y-59779725D01*
X155900915Y-59762810D01*
X156032331Y-59713796D01*
X156147546Y-59627546D01*
X156233796Y-59512331D01*
X156284091Y-59377483D01*
X156290500Y-59317873D01*
X156290499Y-57522128D01*
X156284091Y-57462517D01*
X156235459Y-57332129D01*
X156233797Y-57327671D01*
X156233793Y-57327664D01*
X156147547Y-57212455D01*
X156147544Y-57212452D01*
X156032335Y-57126206D01*
X156032328Y-57126202D01*
X155897482Y-57075908D01*
X155897483Y-57075908D01*
X155837883Y-57069501D01*
X155837881Y-57069500D01*
X155837873Y-57069500D01*
X155837864Y-57069500D01*
X154042129Y-57069500D01*
X154042123Y-57069501D01*
X153982516Y-57075908D01*
X153847671Y-57126202D01*
X153847664Y-57126206D01*
X153732455Y-57212452D01*
X153732452Y-57212455D01*
X153646206Y-57327664D01*
X153646202Y-57327671D01*
X153595908Y-57462517D01*
X153589501Y-57522116D01*
X153589501Y-57522123D01*
X153589500Y-57522135D01*
X145280500Y-57522135D01*
X145280500Y-55802706D01*
X145280618Y-55797297D01*
X145288687Y-55612482D01*
X145297386Y-55413226D01*
X145298326Y-55402495D01*
X145348152Y-55024025D01*
X145350025Y-55013405D01*
X145432649Y-54640709D01*
X145435440Y-54630295D01*
X145550230Y-54266227D01*
X145553917Y-54256095D01*
X145700003Y-53903412D01*
X145704561Y-53893638D01*
X145880822Y-53555045D01*
X145886217Y-53545700D01*
X146091325Y-53223744D01*
X146097515Y-53214905D01*
X146329896Y-52912060D01*
X146336834Y-52903791D01*
X146594726Y-52622352D01*
X146602352Y-52614726D01*
X146883791Y-52356834D01*
X146892060Y-52349896D01*
X147194905Y-52117515D01*
X147203744Y-52111325D01*
X147525700Y-51906217D01*
X147535045Y-51900822D01*
X147873638Y-51724561D01*
X147883412Y-51720003D01*
X148236095Y-51573917D01*
X148246227Y-51570230D01*
X148610295Y-51455440D01*
X148620709Y-51452649D01*
X148993405Y-51370025D01*
X149004025Y-51368152D01*
X149382495Y-51318326D01*
X149393226Y-51317386D01*
X149777297Y-51300617D01*
X149782706Y-51300500D01*
X149845892Y-51300500D01*
X228614108Y-51300500D01*
X228677294Y-51300500D01*
X228682702Y-51300617D01*
G37*
%TD.AperFunction*%
%TD*%
M02*
