%TF.GenerationSoftware,KiCad,Pcbnew,9.0.2*%
%TF.CreationDate,2026-03-17T23:02:29-06:00*%
%TF.ProjectId,TelecomESP32,54656c65-636f-46d4-9553-5033322e6b69,rev?*%
%TF.SameCoordinates,Original*%
%TF.FileFunction,Paste,Top*%
%TF.FilePolarity,Positive*%
%FSLAX46Y46*%
G04 Gerber Fmt 4.6, Leading zero omitted, Abs format (unit mm)*
G04 Created by KiCad (PCBNEW 9.0.2) date 2026-03-17 23:02:29*
%MOMM*%
%LPD*%
G01*
G04 APERTURE LIST*
G04 Aperture macros list*
%AMRoundRect*
0 Rectangle with rounded corners*
0 $1 Rounding radius*
0 $2 $3 $4 $5 $6 $7 $8 $9 X,Y pos of 4 corners*
0 Add a 4 corners polygon primitive as box body*
4,1,4,$2,$3,$4,$5,$6,$7,$8,$9,$2,$3,0*
0 Add four circle primitives for the rounded corners*
1,1,$1+$1,$2,$3*
1,1,$1+$1,$4,$5*
1,1,$1+$1,$6,$7*
1,1,$1+$1,$8,$9*
0 Add four rect primitives between the rounded corners*
20,1,$1+$1,$2,$3,$4,$5,0*
20,1,$1+$1,$4,$5,$6,$7,0*
20,1,$1+$1,$6,$7,$8,$9,0*
20,1,$1+$1,$8,$9,$2,$3,0*%
G04 Aperture macros list end*
%ADD10RoundRect,0.250000X-0.325000X-0.650000X0.325000X-0.650000X0.325000X0.650000X-0.325000X0.650000X0*%
%ADD11R,0.350000X0.500000*%
%ADD12RoundRect,0.250000X0.325000X0.650000X-0.325000X0.650000X-0.325000X-0.650000X0.325000X-0.650000X0*%
%ADD13RoundRect,0.250000X0.650000X-0.325000X0.650000X0.325000X-0.650000X0.325000X-0.650000X-0.325000X0*%
%ADD14R,2.500000X1.000000*%
%ADD15RoundRect,0.250000X-0.312500X-0.625000X0.312500X-0.625000X0.312500X0.625000X-0.312500X0.625000X0*%
%ADD16R,0.550000X0.250000*%
G04 APERTURE END LIST*
D10*
%TO.C,C1*%
X177800000Y-86360000D03*
X180750000Y-86360000D03*
%TD*%
D11*
%TO.C,U1*%
X160610000Y-89390000D03*
X161260000Y-89390000D03*
X161910000Y-89390000D03*
X162560000Y-89390000D03*
X162560000Y-91440000D03*
X161910000Y-91440000D03*
X161260000Y-91440000D03*
X160610000Y-91440000D03*
%TD*%
D12*
%TO.C,C5*%
X220330000Y-73660000D03*
X217380000Y-73660000D03*
%TD*%
D10*
%TO.C,C6*%
X224590000Y-73660000D03*
X227540000Y-73660000D03*
%TD*%
%TO.C,C4*%
X176325000Y-78740000D03*
X179275000Y-78740000D03*
%TD*%
D13*
%TO.C,C2*%
X165100000Y-91850000D03*
X165100000Y-88900000D03*
%TD*%
D14*
%TO.C,U4*%
X211880000Y-55880000D03*
X211880000Y-57880000D03*
X211880000Y-59880000D03*
X211880000Y-61880000D03*
X211880000Y-63880000D03*
X211880000Y-65880000D03*
X211880000Y-67880000D03*
X211880000Y-69880000D03*
X230080000Y-69880000D03*
X230080000Y-67880000D03*
X230080000Y-65880000D03*
X230080000Y-63880000D03*
X230080000Y-61880000D03*
X230080000Y-59880000D03*
X230080000Y-57880000D03*
X230080000Y-55880000D03*
%TD*%
D13*
%TO.C,C3*%
X157480000Y-91850000D03*
X157480000Y-88900000D03*
%TD*%
D15*
%TO.C,R1*%
X172720000Y-86360000D03*
X175645000Y-86360000D03*
%TD*%
D16*
%TO.C,IC1*%
X175260000Y-81280000D03*
X175260000Y-81780000D03*
X175260000Y-82280000D03*
X178010000Y-82280000D03*
X178010000Y-81780000D03*
X178010000Y-81280000D03*
%TD*%
M02*
